<?xml version="1.0" encoding="utf-8"?>
<!-- Generator: Adobe Illustrator 24.0.1, SVG Export Plug-In . SVG Version: 6.00 Build 0)  -->
<svg version="1.1" id="Layer_1" xmlns="http://www.w3.org/2000/svg" xmlns:xlink="http://www.w3.org/1999/xlink" x="0px" y="0px"
	 viewBox="0 0 200 200" style="enable-background:new 0 0 200 200;" xml:space="preserve">
<style type="text/css">
	.st0{fill:#FBA41A;}
	.st1{fill:#984A21;}
	.st2{fill:#EE242A;}
	.st3{fill:#FEC30A;}
	.st4{fill:#21AF12;}
	.st5{fill:#FFFFFF;}
</style>
<path class="st0" d="M160.4,143H37.5c-2.2,0-4-1.8-4-4v-10.3c0-0.6,0.4-1,1-1h128.9c0.6,0,1,0.4,1,1V139
	C164.4,141.2,162.6,143,160.4,143z"/>
<path class="st1" d="M161,127.7H36.9c-0.5,0-1-0.4-1-1v-17c0-0.6,0.5-1,1-1H161c0.6,0,1,0.4,1,1v17C162,127.3,161.5,127.7,161,127.7
	z"/>
<path class="st2" d="M160.8,109.9H39.4c-1.3,0-2.4-1.1-2.4-2.4v-4.8c0-1.3,1.1-2.4,2.4-2.4h121.3c1.3,0,2.4,1.1,2.4,2.4v4.8
	C163.2,108.8,162.1,109.9,160.8,109.9z"/>
<path class="st3" d="M64.8,100.3c0,0,52,11.9,63.8,19l20.6-19H64.8z"/>
<path class="st0" d="M37.7,100.3c-2.1,0-3.5-2-2.9-3.9C38.9,84.3,55,48,101.2,48c46.4,0,60.7,36.6,64.2,48.6
	c0.5,1.9-0.9,3.8-2.9,3.8H37.7z"/>
<path class="st4" d="M39.4,100.3c0,0-4.8,7.1,2.4,5.3s7.1-3.5,7.1-3.5s2.4-1.8,7.1,1.8s11.9,5.3,11.9,5.3s2.4,1.8,7.1-1.8
	c2-1.5,3.3-2.4,4.2-3c0.8-0.6,0.4-1.9,1.5-2.1c1.5-0.2,1-0.2,3.9-0.2c4.8,0,0.2,7.1,8.4,5.3s10.6,3.5,13-1.8s11.9-1.8,11.9-1.8
	s4.8,8.8,9.5,5.3c4.8-3.5,14.3-2.6,14.3-2.6s0,4.4,4.8,0.9s7.9,0,7.9,0s1.6,5.3,4,0c2.4-5.3,2.4-7.1,2.4-7.1H39.4z"/>
<g>
	<g>
		<g>
			
				<ellipse transform="matrix(0.4601 -0.8879 0.8879 0.4601 11.2895 174.7652)" class="st5" cx="149.3" cy="78.1" rx="0.6" ry="1.4"/>
		</g>
		<g>
			
				<ellipse transform="matrix(0.7369 -0.6761 0.6761 0.7369 -14.3603 118.0676)" class="st5" cx="144.5" cy="77.5" rx="0.6" ry="1.4"/>
		</g>
		<g>
			
				<ellipse transform="matrix(0.3083 -0.9513 0.9513 0.3083 27.0539 185.4595)" class="st5" cx="141.1" cy="74.1" rx="0.6" ry="1.4"/>
		</g>
		<g>
			
				<ellipse transform="matrix(0.7863 -0.6179 0.6179 0.7863 -15.7076 100.7723)" class="st5" cx="137.8" cy="73.1" rx="1.4" ry="0.6"/>
		</g>
		<g>
			<ellipse transform="matrix(0.9932 -0.1166 0.1166 0.9932 -7.6236 16.289)" class="st5" cx="135.5" cy="73.3" rx="1.4" ry="0.6"/>
		</g>
		<g>
			
				<ellipse transform="matrix(0.2841 -0.9588 0.9588 0.2841 25.5395 179.7888)" class="st5" cx="133.2" cy="72.8" rx="0.6" ry="1.4"/>
		</g>
		<g>
			<ellipse transform="matrix(0.8778 -0.4791 0.4791 0.8778 -16.6107 72.9635)" class="st5" cx="134.7" cy="69" rx="0.6" ry="1.4"/>
		</g>
		<g>
			
				<ellipse transform="matrix(0.9372 -0.3487 0.3487 0.9372 -16.1438 50.8782)" class="st5" cx="133.3" cy="70.3" rx="1.4" ry="0.6"/>
		</g>
		<g>
			<ellipse transform="matrix(0.387 -0.9221 0.9221 0.387 20.2641 162.6322)" class="st5" cx="132.5" cy="66.1" rx="0.6" ry="1.4"/>
		</g>
		<g>
			
				<ellipse transform="matrix(0.2417 -0.9704 0.9704 0.2417 37.149 180.6844)" class="st5" cx="134.2" cy="66.6" rx="1.4" ry="0.6"/>
		</g>
		<g>
			
				<ellipse transform="matrix(0.9501 -0.3118 0.3118 0.9501 -13.2895 45.4796)" class="st5" cx="135.6" cy="64.3" rx="0.6" ry="1.4"/>
		</g>
		<g>
			
				<ellipse transform="matrix(0.9972 -7.435779e-02 7.435779e-02 0.9972 -4.4179 10.0445)" class="st5" cx="132.7" cy="64.4" rx="1.4" ry="0.6"/>
		</g>
		<g>
			
				<ellipse transform="matrix(0.3859 -0.9225 0.9225 0.3859 20.3779 161.7339)" class="st5" cx="131.7" cy="65.6" rx="0.6" ry="1.4"/>
		</g>
		<g>
			
				<ellipse transform="matrix(0.7963 -0.6049 0.6049 0.7963 -13.2475 91.1683)" class="st5" cx="128.8" cy="65.3" rx="1.4" ry="0.6"/>
		</g>
		<g>
			<ellipse transform="matrix(0.929 -0.3702 0.3702 0.929 -13.331 51.1136)" class="st5" cx="126.5" cy="60.3" rx="1.4" ry="0.6"/>
		</g>
		<g>
			
				<ellipse transform="matrix(0.3473 -0.9377 0.9377 0.3473 21.3843 152.8246)" class="st5" cx="120.5" cy="61.1" rx="1.4" ry="0.6"/>
		</g>
		<g>
			
				<ellipse transform="matrix(0.9138 -0.4061 0.4061 0.9138 -14.5429 52.5359)" class="st5" cx="116.5" cy="60.5" rx="1.4" ry="0.6"/>
		</g>
		<g>
			
				<ellipse transform="matrix(0.9347 -0.3555 0.3555 0.9347 -12.5562 43.8732)" class="st5" cx="113.1" cy="56.1" rx="0.6" ry="1.4"/>
		</g>
		<g>
			
				<ellipse transform="matrix(0.4176 -0.9086 0.9086 0.4176 12.9307 133.3526)" class="st5" cx="110.5" cy="56.6" rx="1.4" ry="0.6"/>
		</g>
		<g>
			
				<ellipse transform="matrix(0.9732 -0.2301 0.2301 0.9732 -11.1935 26.6155)" class="st5" cx="108.5" cy="61.3" rx="1.4" ry="0.6"/>
		</g>
		<g>
			
				<ellipse transform="matrix(0.9986 -5.309000e-02 5.309000e-02 0.9986 -3.0434 5.6153)" class="st5" cx="104.2" cy="60.1" rx="0.6" ry="1.4"/>
		</g>
		<g>
			
				<ellipse transform="matrix(0.5759 -0.8175 0.8175 0.5759 -12.3802 109.997)" class="st5" cx="99.8" cy="66.9" rx="1.4" ry="0.6"/>
		</g>
		<g>
			
				<ellipse transform="matrix(0.8031 -0.5959 0.5959 0.8031 -23.6295 77.0849)" class="st5" cx="104.8" cy="74.3" rx="1.4" ry="0.6"/>
		</g>
		<g>
			
				<ellipse transform="matrix(0.8407 -0.5415 0.5415 0.8407 -22.328 70.7605)" class="st5" cx="109.1" cy="73.3" rx="0.6" ry="1.4"/>
		</g>
		<g>
			
				<ellipse transform="matrix(0.3031 -0.9529 0.9529 0.3031 12.2414 153.8973)" class="st5" cx="111.3" cy="68.6" rx="1.4" ry="0.6"/>
		</g>
		<g>
			
				<ellipse transform="matrix(0.3543 -0.9351 0.9351 0.3543 15.4788 149.4095)" class="st5" cx="115.9" cy="63.5" rx="1.4" ry="0.6"/>
		</g>
		<g>
			
				<ellipse transform="matrix(0.7256 -0.6881 0.6881 0.7256 -10.0664 94.4754)" class="st5" cx="113.4" cy="59.9" rx="1.4" ry="0.6"/>
		</g>
		<g>
			
				<ellipse transform="matrix(0.9956 -9.352149e-02 9.352149e-02 0.9956 -4.5721 10.4143)" class="st5" cx="108.8" cy="54" rx="0.6" ry="1.4"/>
		</g>
		<g>
			
				<ellipse transform="matrix(0.9408 -0.3391 0.3391 0.9408 -11.2693 38.1994)" class="st5" cx="103.7" cy="51.4" rx="0.6" ry="1.4"/>
		</g>
		<g>
			<ellipse transform="matrix(0.9726 -0.2325 0.2325 0.9726 -10.3389 24.386)" class="st5" cx="98.3" cy="56" rx="0.6" ry="1.4"/>
		</g>
		<g>
			<ellipse transform="matrix(0.6415 -0.7671 0.7671 0.6415 -6.8118 91.2491)" class="st5" cx="94.2" cy="52.9" rx="1.4" ry="0.6"/>
		</g>
		<g>
			<ellipse transform="matrix(0.4872 -0.8733 0.8733 0.4872 0.4757 107.716)" class="st5" cx="92" cy="53.5" rx="0.6" ry="1.4"/>
		</g>
		<g>
			<ellipse transform="matrix(0.5242 -0.8516 0.8516 0.5242 -5.266 103.8647)" class="st5" cx="90.3" cy="56.6" rx="0.6" ry="1.4"/>
		</g>
		<g>
			<ellipse transform="matrix(0.9197 -0.3925 0.3925 0.9197 -13.9258 38.4341)" class="st5" cx="87" cy="53.3" rx="0.6" ry="1.4"/>
		</g>
		<g>
			
				<ellipse transform="matrix(0.9613 -0.2755 0.2755 0.9613 -12.9713 25.5047)" class="st5" cx="84.3" cy="58.9" rx="1.4" ry="0.6"/>
		</g>
		<g>
			
				<ellipse transform="matrix(0.3826 -0.9239 0.9239 0.3826 -5.3606 112.9467)" class="st5" cx="81.8" cy="60.5" rx="0.6" ry="1.4"/>
		</g>
		<g>
			<ellipse transform="matrix(0.994 -0.109 0.109 0.994 -6.3394 9.0495)" class="st5" cx="79.6" cy="62.5" rx="0.6" ry="1.4"/>
		</g>
		<g>
			<ellipse transform="matrix(0.746 -0.666 0.666 0.746 -22.1551 66.51)" class="st5" cx="76.1" cy="62.3" rx="0.6" ry="1.4"/>
		</g>
		<g>
			<ellipse transform="matrix(0.8559 -0.5171 0.5171 0.8559 -24.422 48.6743)" class="st5" cx="75.1" cy="68.2" rx="1.4" ry="0.6"/>
		</g>
		<g>
			
				<ellipse transform="matrix(0.997 -7.728986e-02 7.728986e-02 0.997 -5.4424 5.9007)" class="st5" cx="73.5" cy="73.3" rx="1.4" ry="0.6"/>
		</g>
		<g>
			<ellipse transform="matrix(0.749 -0.6626 0.6626 0.749 -30.529 72.4019)" class="st5" cx="80.3" cy="76.5" rx="0.6" ry="1.4"/>
		</g>
		<g>
			<ellipse transform="matrix(0.985 -0.1727 0.1727 0.985 -11.4079 15.6667)" class="st5" cx="84.3" cy="73.4" rx="0.6" ry="1.4"/>
		</g>
		<g>
			<ellipse transform="matrix(0.9688 -0.2479 0.2479 0.9688 -14.7628 22.7793)" class="st5" cx="83.1" cy="70" rx="0.6" ry="1.4"/>
		</g>
		<g>
			<ellipse transform="matrix(0.9904 -0.1381 0.1381 0.9904 -8.3467 12.57)" class="st5" cx="86.4" cy="66.4" rx="0.6" ry="1.4"/>
		</g>
		<g>
			<ellipse transform="matrix(0.7045 -0.7097 0.7097 0.7045 -21.9963 74.9216)" class="st5" cx="79" cy="63.9" rx="0.6" ry="1.4"/>
		</g>
		<g>
			<ellipse transform="matrix(0.6022 -0.7984 0.7984 0.6022 -15.9563 85.9004)" class="st5" cx="78.2" cy="59" rx="0.6" ry="1.4"/>
		</g>
		<g>
			
				<ellipse transform="matrix(0.6228 -0.7824 0.7824 0.6228 -19.5297 80.8654)" class="st5" cx="74.1" cy="60.7" rx="1.4" ry="0.6"/>
		</g>
		<g>
			
				<ellipse transform="matrix(0.1856 -0.9826 0.9826 0.1856 -4.6789 121.4249)" class="st5" cx="70.9" cy="63.5" rx="0.6" ry="1.4"/>
		</g>
		<g>
			
				<ellipse transform="matrix(0.3118 -0.9502 0.9502 0.3118 -14.4131 107.6582)" class="st5" cx="67.1" cy="63.8" rx="0.6" ry="1.4"/>
		</g>
		<g>
			<ellipse transform="matrix(0.7113 -0.7029 0.7029 0.7113 -25.5954 61.4368)" class="st5" cx="62" cy="61.9" rx="1.4" ry="0.6"/>
		</g>
		<g>
			<ellipse transform="matrix(0.9329 -0.36 0.36 0.9329 -20.0317 25.9248)" class="st5" cx="59.6" cy="66.7" rx="1.4" ry="0.6"/>
		</g>
		<g>
			
				<ellipse transform="matrix(0.9993 -3.765484e-02 3.765484e-02 0.9993 -2.5631 2.2023)" class="st5" cx="57.2" cy="69.1" rx="0.6" ry="1.4"/>
		</g>
		<g>
			
				<ellipse transform="matrix(0.8357 -0.5491 0.5491 0.8357 -30.2257 43.5141)" class="st5" cx="57.6" cy="72.3" rx="0.6" ry="1.4"/>
		</g>
		<g>
			<ellipse transform="matrix(0.4101 -0.912 0.912 0.4101 -35.7874 96.0381)" class="st5" cx="56.3" cy="75.7" rx="0.6" ry="1.4"/>
		</g>
	</g>
</g>
<g>
	<g>
		<g>
			
				<ellipse transform="matrix(9.171303e-02 -0.9958 0.9958 9.171303e-02 51.8352 204.2168)" class="st5" cx="137.9" cy="73.7" rx="0.6" ry="1.4"/>
		</g>
		<g>
			<ellipse transform="matrix(0.2934 -0.956 0.956 0.2934 29.224 177.9416)" class="st5" cx="135" cy="69.2" rx="1.4" ry="0.6"/>
		</g>
		<g>
			
				<ellipse transform="matrix(0.2291 -0.9734 0.9734 0.2291 30.2653 181.3193)" class="st5" cx="129.6" cy="71.6" rx="1.4" ry="0.6"/>
		</g>
		<g>
			<ellipse transform="matrix(0.6646 -0.7472 0.7472 0.6646 -9.7237 117.72)" class="st5" cx="126.3" cy="69.7" rx="0.6" ry="1.4"/>
		</g>
		<g>
			
				<ellipse transform="matrix(0.9998 -1.948937e-02 1.948937e-02 0.9998 -1.3144 2.4063)" class="st5" cx="122.8" cy="68.6" rx="0.6" ry="1.4"/>
		</g>
		<g>
			
				<ellipse transform="matrix(0.9657 -0.2598 0.2598 0.9657 -14.1502 33.6649)" class="st5" cx="120.3" cy="70.4" rx="0.6" ry="1.4"/>
		</g>
		<g>
			
				<ellipse transform="matrix(0.1267 -0.9919 0.9919 0.1267 35.7409 173.2339)" class="st5" cx="116.3" cy="66.3" rx="0.6" ry="1.4"/>
		</g>
		<g>
			
				<ellipse transform="matrix(0.3677 -0.9299 0.9299 0.3677 7.6226 146.5524)" class="st5" cx="111.6" cy="67.7" rx="0.6" ry="1.4"/>
		</g>
		<g>
			<ellipse transform="matrix(0.893 -0.45 0.45 0.893 -18.8927 55.8366)" class="st5" cx="108" cy="67.7" rx="1.4" ry="0.6"/>
		</g>
		<g>
			
				<ellipse transform="matrix(0.4952 -0.8688 0.8688 0.4952 -6.6829 125.7373)" class="st5" cx="104.9" cy="68.6" rx="0.6" ry="1.4"/>
		</g>
		<g>
			<ellipse transform="matrix(0.787 -0.617 0.617 0.787 -21.2952 76.7659)" class="st5" cx="100.5" cy="69.2" rx="0.6" ry="1.4"/>
		</g>
		<g>
			<ellipse transform="matrix(0.509 -0.8607 0.8607 0.509 -13.1394 116.8487)" class="st5" cx="95.9" cy="69.9" rx="1.4" ry="0.6"/>
		</g>
		<g>
			<ellipse transform="matrix(0.8637 -0.5041 0.5041 0.8637 -22.2758 56.3594)" class="st5" cx="93" cy="69.4" rx="1.4" ry="0.6"/>
		</g>
		<g>
			
				<ellipse transform="matrix(0.8587 -0.5124 0.5124 0.8587 -22.7293 55.9229)" class="st5" cx="90.1" cy="69.2" rx="0.6" ry="1.4"/>
		</g>
		<g>
			<ellipse transform="matrix(0.87 -0.493 0.493 0.87 -23.6383 52.962)" class="st5" cx="88.6" cy="71.3" rx="0.6" ry="1.4"/>
		</g>
		<g>
			
				<ellipse transform="matrix(8.908488e-02 -0.996 0.996 8.908488e-02 7.8699 148.8269)" class="st5" cx="85.3" cy="70.1" rx="1.4" ry="0.6"/>
		</g>
		<g>
			
				<ellipse transform="matrix(0.8527 -0.5225 0.5225 0.8527 -24.3048 52.7103)" class="st5" cx="81.3" cy="69.4" rx="1.4" ry="0.6"/>
		</g>
		<g>
			<ellipse transform="matrix(0.9279 -0.3727 0.3727 0.9279 -20.506 34.1172)" class="st5" cx="78" cy="70.1" rx="1.4" ry="0.6"/>
		</g>
		<g>
			
				<ellipse transform="matrix(0.5182 -0.8553 0.8553 0.5182 -26.8689 99.2254)" class="st5" cx="74.6" cy="73.5" rx="1.4" ry="0.6"/>
		</g>
		<g>
			<ellipse transform="matrix(0.1905 -0.9817 0.9817 0.1905 -15.7387 132.9174)" class="st5" cx="72.7" cy="76" rx="1.4" ry="0.6"/>
		</g>
		<g>
			<ellipse transform="matrix(0.1181 -0.993 0.993 0.1181 -13.5038 136.3793)" class="st5" cx="70" cy="75.8" rx="1.4" ry="0.6"/>
		</g>
		<g>
			
				<ellipse transform="matrix(0.9674 -0.2533 0.2533 0.9674 -16.6341 19.4823)" class="st5" cx="67.3" cy="74.3" rx="1.4" ry="0.6"/>
		</g>
		<g>
			
				<ellipse transform="matrix(0.9764 -0.2159 0.2159 0.9764 -15.6773 15.8621)" class="st5" cx="64.8" cy="79.7" rx="1.4" ry="0.6"/>
		</g>
		<g>
			<ellipse transform="matrix(0.3677 -0.93 0.93 0.3677 -35.9757 105.0141)" class="st5" cx="59.2" cy="79" rx="1.4" ry="0.6"/>
		</g>
		<g>
			<ellipse transform="matrix(0.898 -0.44 0.44 0.898 -30.0808 33.949)" class="st5" cx="58.2" cy="81.9" rx="1.4" ry="0.6"/>
		</g>
		<g>
			
				<ellipse transform="matrix(0.1539 -0.9881 0.9881 0.1539 -32.5115 121.7076)" class="st5" cx="54.8" cy="79.8" rx="1.4" ry="0.6"/>
		</g>
	</g>
</g>
<g>
	<g>
		<g>
			
				<ellipse transform="matrix(0.9718 -0.2359 0.2359 0.9718 -14.0849 26.3995)" class="st5" cx="103.3" cy="72.1" rx="0.6" ry="1.4"/>
		</g>
		<g>
			
				<ellipse transform="matrix(8.283207e-03 -1 1 8.283207e-03 27.434 170.1465)" class="st5" cx="99.5" cy="71.2" rx="0.6" ry="1.4"/>
		</g>
		<g>
			
				<ellipse transform="matrix(0.6223 -0.7828 0.7828 0.6223 -15.5385 101.2687)" class="st5" cx="97.2" cy="66.7" rx="1.4" ry="0.6"/>
		</g>
		<g>
			<ellipse transform="matrix(0.9892 -0.1464 0.1464 0.9892 -8.3066 14.7852)" class="st5" cx="96.3" cy="63.8" rx="1.4" ry="0.6"/>
		</g>
		<g>
			<ellipse transform="matrix(0.4956 -0.8685 0.8685 0.4956 -9.2268 112.36)" class="st5" cx="92.1" cy="64.1" rx="1.4" ry="0.6"/>
		</g>
		<g>
			<ellipse transform="matrix(0.7652 -0.6437 0.6437 0.7652 -16.0893 73.6992)" class="st5" cx="93" cy="58.9" rx="0.6" ry="1.4"/>
		</g>
		<g>
			<ellipse transform="matrix(0.1455 -0.9894 0.9894 0.1455 25.849 140.2247)" class="st5" cx="94.1" cy="55.1" rx="1.4" ry="0.6"/>
		</g>
		<g>
			<ellipse transform="matrix(0.4637 -0.886 0.886 0.4637 1.5027 108.916)" class="st5" cx="90.7" cy="53.2" rx="1.4" ry="0.6"/>
		</g>
	</g>
</g>
</svg>
