<?xml version="1.0" encoding="utf-8"?>
<!-- Generator: Adobe Illustrator 24.0.1, SVG Export Plug-In . SVG Version: 6.00 Build 0)  -->
<svg version="1.1" id="Layer_1" xmlns="http://www.w3.org/2000/svg" xmlns:xlink="http://www.w3.org/1999/xlink" x="0px" y="0px"
	 viewBox="0 0 200 200" style="enable-background:new 0 0 200 200;" xml:space="preserve">
<style type="text/css">
	.st0{fill:#F47C00;}
	.st1{fill:#109D58;}
</style>
<g id="SJKajA.tif">
	<g>
		<path class="st0" d="M139.1,74.2c1.5,2.1,2.9,4.2,4,6.6c1.7,3.7,1.7,7.5,1.4,11.4c-0.7,12.1-6.9,21.1-15.9,28.6
			c-5.3,4.5-11.3,8-17,12c-0.9,0.6-1.7,0.4-2.4-0.6c-2-2.8-4-5.6-6.2-8.3c-0.7-0.8-1.5-1-2.2-0.6c-0.7,0.5-0.9,1.2-0.5,2.1
			c1.2,2.6,2.4,5.3,3.6,7.9c0.3,0.7,0.6,1.4,0.9,2.1c0.5,1.1,0.3,1.7-0.7,2.4c-4.2,2.9-8.4,5.8-12.6,8.7
			c-8.7,6.1-17.3,12.1-25.9,18.2c-1.4,1-2,0.9-3.1-0.5c-1-1.4-2.1-2.7-3.2-4.1c-0.7-0.9-1.4-1.1-2.2-0.6c-0.8,0.5-0.9,1.2-0.5,2.2
			c0.8,1.8,1.7,3.6,2.5,5.4c0.6,1.3,0.5,1.9-0.7,2.7c-4.7,3.2-9.2,6.7-13.9,9.9c-6.1,4.1-12.8,6.9-20.1,7.9c-0.5,0.1-1.1,0-1.6,0.3
			c-1.5,0-3,0-4.5,0c-0.3-0.3-0.8-0.3-1.2-0.4c-3.2-0.7-4.7-2.6-4.8-5.8c-0.1-2.8,0.5-5.5,1.4-8.1c2.2-6.8,5.6-13.1,9.7-19
			C29.5,146,36,137.6,42.3,129c0.7-1,1.3-1.1,2.4-0.6c2,0.9,4.1,1.9,6.1,2.8c0.6,0.3,1.2,0.3,1.7-0.1c0.5-0.4,0.7-0.9,0.6-1.5
			c-0.1-0.5-0.4-0.8-0.8-1.1c-1.5-1.2-3.1-2.4-4.6-3.5c-1.1-0.9-1.3-1.6-0.4-2.8c9.2-12.8,18.4-25.6,27.9-38.3
			c0.7-1,1.4-1.2,2.5-0.6c3.1,1.4,6.2,2.8,9.3,4.3c0.4,0.2,0.9,0.5,1.4,0.3c0.6-0.2,1.1-0.6,1.2-1.2c0.2-0.7-0.1-1.2-0.6-1.6
			c-2.2-1.8-4.4-3.4-6.7-5.1c-0.5-0.3-1-0.7-1.5-1.1c-0.7-0.6-0.9-1.4-0.3-2.1c4.3-5.6,8.8-11.1,15.1-14.8c5.9-3.4,12.2-4,18.8-2.8
			c4.4,0.8,8.5,2.4,12.4,4.5c1.2,0.8,2.4,1.6,3.6,2.4C133.6,68.4,136.5,71.1,139.1,74.2z"/>
		<path class="st1" d="M140.1,73.2c-2.6-3.1-5.5-5.8-8.8-8.2c-1.2-0.8-2.4-1.6-3.6-2.4c1.1-2.6,1.3-5.3,0.8-8
			c-0.3-1.9-1.4-3.3-3.2-4c-0.8-0.3-1.7-0.6-2.6-0.9c-0.9-0.3-1.8-0.7-2.5-1.3c-1.1-1-1.3-2.3-0.6-4c0.3-0.6,0.1-0.9-0.4-1.3
			c-1.4-1-2.8-1.9-4-3.1c-2-2-1.9-3.6,0.3-5.3c0.4-0.3,0.4-0.5,0.1-0.9c-0.9-1.1-1.9-2.1-2.8-3.2c-0.8-0.9-1.4-1.9-1.8-3
			c-0.6-1.6-0.1-2.6,1.3-3.4c0.1,0,0.2-0.1,0.2-0.1c0.5-0.3,1.4-0.2,1.6-0.8c0.2-0.5-0.1-1.2-0.2-1.9c-0.2-1.8-0.3-3.5,0.2-5.2
			c1-3,4-4.5,7-3.4c1.1,0.4,2.1,1.1,3,1.8c1.4,1.1,3,1.5,4.8,0.9c1.3-0.4,2.5,0,3.2,1.4c0.7,1.4,1.4,2,3,1.9
			c1.2-0.1,2.1,0.8,2.6,1.9c0.5,1,0.7,2.1,0.9,3.2c0.2,1.2,0.7,2.3,1.8,2.9c0.5,0.3,0.7,0.8,0.7,1.3c0.7,3.7,0.8,7.5,0.8,11.3
			c-0.1,5.8-1.2,11.5-2.8,17.1c-0.1,0.2-0.1,0.3-0.1,0.5c-0.1,0.2,0.1,0.5,0.2,0.5c0.2,0.1,0.3-0.1,0.4-0.3
			c2.3-3.6,4.9-6.9,6.5-10.9c1.4-3.5,1.6-7,0.5-10.6c-0.4-1.2-0.6-2.4-0.3-3.7c0.5-2.2,1.9-3.1,4.1-2.7c0.7,0.1,1.4,0.3,2.2,0.5
			c0.1-2.3,0.8-4.4,1.6-6.5c0.3-0.8,0.7-1.6,1.2-2.4c1.2-2,2.9-2.6,5.1-1.9c0.3,0.1,0.7,0.2,1,0.4c1.2,0.6,1.2,0.5,1.7-0.8
			c1.4-3.2,3.7-5.6,6.7-7.2c1.5-0.8,2.9-0.5,4.1,0.8c0.8,0.8,1.3,1.7,1.8,2.7c0.2,0.5,0.4,0.5,0.9,0.3c1.2-0.6,2.5-1.2,3.8-1.6
			c2.4-0.8,4.3-0.1,5.8,1.8c1.1,1.5,1.1,3.1,0.5,4.8c-0.4,1.2-1,2.3-1.6,3.5c-0.3,0.5-0.2,0.7,0.3,0.9c0.9,0.4,1.8,0.8,2.5,1.5
			c1.7,1.6,1.9,3.7,0.6,5.6c-0.8,1.1-1.8,2.1-2.9,3c-1.4,1.1-2.8,2.2-4.2,3.2c-0.6,0.4-0.9,0.8-0.3,1.4c0.2,0.3,0.3,0.7,0.5,1.1
			c0.6,1.7,0.2,3-1.2,4.1c-1.7,1.2-3.6,1.9-5.5,2.5c-0.9,0.3-1.9,0.5-2.8,0.7c-0.5,0.1-0.7,0.4-0.8,0.9c-0.1,0.9-0.1,1.8-0.2,2.7
			c-0.3,2-1.6,3.1-3.6,3.1c-1.1,0-2.2-0.3-3.2-0.6c-3.5-1-7-0.8-10.3,0.7c-3.8,1.8-7.2,4.1-10.4,6.8c1.3-0.3,2.6-0.5,3.8-0.8
			c7.1-1.8,14.3-1.9,21.5-1.5c1.9,0.1,3.7,0.4,5.2,1.6c1.1,0.8,2.5,1.1,3.8,1.5c0.3,0.1,0.6,0.2,1,0.3c2.2,0.7,3.1,1.8,3.1,4.1
			c0,0.7,0.2,1.1,0.9,1.4c2.5,1.2,3.1,2.8,2,5.4c-0.4,1,0.2,1.6,0.7,2.3c0.8,1.1,1.6,2.1,2.1,3.4c0.4,0.9,0.7,1.9,0.6,3
			c-0.3,2.5-2.4,4.5-5,4.8c-1.7,0.2-3.4,0-5.1-0.3c-0.5-0.1-0.7,0-1,0.5c-1.5,3.2-3.3,3.7-6.3,1.7c-1.4-1-2.5-2.2-3.7-3.4
			c-0.4-0.4-0.6-0.5-1.1-0.1c-3.2,2.3-4.7,2-6.9-1.3c-0.5-0.8-1-1.6-1.5-2.5c-0.2-0.4-0.5-0.6-1-0.4c-3.4,1-4.8,0.2-5.8-3.2
			c-0.3-1-0.6-2-1.1-3c-0.8-1.6-2.1-2.5-3.9-2.6C144.2,72.3,142.1,72.6,140.1,73.2z"/>
	</g>
</g>
</svg>
