<?xml version="1.0" encoding="utf-8"?>
<!-- Generator: Adobe Illustrator 24.0.1, SVG Export Plug-In . SVG Version: 6.00 Build 0)  -->
<svg version="1.1" id="Layer_1" xmlns="http://www.w3.org/2000/svg" xmlns:xlink="http://www.w3.org/1999/xlink" x="0px" y="0px"
	 viewBox="0 0 200 200" style="enable-background:new 0 0 200 200;" xml:space="preserve">
<style type="text/css">
	.st0{fill:#F47C00;}
	.st1{fill:#109D58;}
</style>
<g id="SJKajA.tif">
	<g>
		<path class="st0" d="M143.2,71.8c1.7,2.4,3.3,4.7,4.5,7.4c1.9,4.2,1.9,8.5,1.6,12.9c-0.8,13.6-7.8,23.8-17.9,32.3
			c-6,5.1-12.7,9-19.2,13.5c-1,0.7-1.9,0.5-2.7-0.7c-2.3-3.2-4.5-6.3-7-9.4c-0.8-0.9-1.7-1.1-2.5-0.7c-0.8,0.6-1,1.4-0.6,2.4
			c1.4,2.9,2.7,6,4.1,8.9c0.3,0.8,0.7,1.6,1,2.4c0.6,1.2,0.3,1.9-0.8,2.7c-4.7,3.3-9.5,6.5-14.2,9.8c-9.8,6.9-19.5,13.6-29.2,20.5
			c-1.6,1.1-2.3,1-3.5-0.6c-1.1-1.6-2.4-3-3.6-4.6c-0.8-1-1.6-1.2-2.5-0.7s-1,1.4-0.6,2.5c0.9,2,1.9,4.1,2.8,6.1
			c0.7,1.5,0.6,2.1-0.8,3c-5.3,3.6-10.4,7.6-15.7,11.2c-6.9,4.6-14.4,7.8-22.7,8.9c-0.6,0.1-1.2,0-1.8,0.3c-1.7,0-3.4,0-5.1,0
			c-0.3-0.3-0.9-0.3-1.4-0.5c-3.6-0.8-5.3-2.9-5.4-6.5c-0.1-3.2,0.6-6.2,1.6-9.1c2.5-7.7,6.3-14.8,10.9-21.4
			c6.9-9.7,14.2-19.2,21.3-28.9c0.8-1.1,1.5-1.2,2.7-0.7c2.3,1,4.6,2.1,6.9,3.2c0.7,0.3,1.4,0.3,1.9-0.1s0.8-1,0.7-1.7
			c-0.1-0.6-0.5-0.9-0.9-1.2c-1.7-1.4-3.5-2.7-5.2-3.9c-1.2-1-1.5-1.8-0.5-3.2C50,111.5,60.4,97,71.1,82.7c0.8-1.1,1.6-1.4,2.8-0.7
			c3.5,1.6,7,3.2,10.5,4.9c0.5,0.2,1,0.6,1.6,0.3c0.7-0.2,1.2-0.7,1.4-1.4c0.2-0.8-0.1-1.4-0.7-1.8c-2.5-2-5-3.8-7.6-5.8
			c-0.6-0.3-1.1-0.8-1.7-1.2c-0.8-0.7-1-1.6-0.3-2.4C82,68.4,87,62.2,94.1,58c6.7-3.8,13.8-4.5,21.2-3.2c5,0.9,9.6,2.7,14,5.1
			c1.4,0.9,2.7,1.8,4.1,2.7C137,65.2,140.3,68.3,143.2,71.8z"/>
		<path class="st1" d="M144.3,70.6c-2.9-3.5-6.2-6.5-9.9-9.2c-1.4-0.9-2.7-1.8-4.1-2.7c1.2-2.9,1.5-6,0.9-9
			c-0.3-2.1-1.6-3.7-3.6-4.5c-0.9-0.3-1.9-0.7-2.9-1c-1-0.3-2-0.8-2.8-1.5c-1.2-1.1-1.5-2.6-0.7-4.5c0.3-0.7,0.1-1-0.5-1.5
			c-1.6-1.1-3.2-2.1-4.5-3.5c-2.3-2.3-2.1-4.1,0.3-6c0.5-0.3,0.5-0.6,0.1-1c-1-1.2-2.1-2.4-3.2-3.6c-0.9-1-1.6-2.1-2-3.4
			c-0.7-1.8-0.1-2.9,1.5-3.8c0.1,0,0.2-0.1,0.2-0.1c0.6-0.3,1.6-0.2,1.8-0.9c0.2-0.6-0.1-1.4-0.2-2.1c-0.2-2-0.3-3.9,0.2-5.9
			c1.1-3.4,4.5-5.1,7.9-3.8c1.2,0.5,2.4,1.2,3.4,2c1.6,1.2,3.4,1.7,5.4,1c1.5-0.5,2.8,0,3.6,1.6c0.8,1.6,1.6,2.3,3.4,2.1
			c1.4-0.1,2.4,0.9,2.9,2.1c0.6,1.1,0.8,2.4,1,3.6c0.2,1.4,0.8,2.6,2,3.3c0.6,0.3,0.8,0.9,0.8,1.5c0.8,4.2,0.9,8.5,0.9,12.7
			c-0.1,6.5-1.4,13-3.2,19.3c-0.1,0.2-0.1,0.3-0.1,0.6c-0.1,0.2,0.1,0.6,0.2,0.6c0.2,0.1,0.3-0.1,0.5-0.3c2.6-4.1,5.5-7.8,7.3-12.3
			c1.6-3.9,1.8-7.9,0.6-12c-0.5-1.4-0.7-2.7-0.3-4.2c0.6-2.5,2.1-3.5,4.6-3c0.8,0.1,1.6,0.3,2.5,0.6c0.1-2.6,0.9-5,1.8-7.3
			c0.3-0.9,0.8-1.8,1.4-2.7c1.4-2.3,3.3-2.9,5.8-2.1c0.3,0.1,0.8,0.2,1.1,0.5c1.4,0.7,1.4,0.6,1.9-0.9c1.6-3.6,4.2-6.3,7.6-8.1
			c1.7-0.9,3.3-0.6,4.6,0.9c0.9,0.9,1.5,1.9,2,3c0.2,0.6,0.5,0.6,1,0.3c1.4-0.7,2.8-1.4,4.3-1.8c2.7-0.9,4.9-0.1,6.5,2
			c1.2,1.7,1.2,3.5,0.6,5.4c-0.5,1.4-1.1,2.6-1.8,3.9c-0.3,0.6-0.2,0.8,0.3,1c1,0.5,2,0.9,2.8,1.7c1.9,1.8,2.1,4.2,0.7,6.3
			c-0.9,1.2-2,2.4-3.3,3.4c-1.6,1.2-3.2,2.5-4.7,3.6c-0.7,0.5-1,0.9-0.3,1.6c0.2,0.3,0.3,0.8,0.6,1.2c0.7,1.9,0.2,3.4-1.4,4.6
			c-1.9,1.4-4.1,2.1-6.2,2.8c-1,0.3-2.1,0.6-3.2,0.8c-0.6,0.1-0.8,0.5-0.9,1c-0.1,1-0.1,2-0.2,3c-0.3,2.3-1.8,3.5-4.1,3.5
			c-1.2,0-2.5-0.3-3.6-0.7c-3.9-1.1-7.9-0.9-11.6,0.8c-4.3,2-8.1,4.6-11.7,7.7c1.5-0.3,2.9-0.6,4.3-0.9c8-2,16.1-2.1,24.3-1.7
			c2.1,0.1,4.2,0.5,5.9,1.8c1.2,0.9,2.8,1.2,4.3,1.7c0.3,0.1,0.7,0.2,1.1,0.3c2.5,0.8,3.5,2,3.5,4.6c0,0.8,0.2,1.2,1,1.6
			c2.8,1.4,3.5,3.2,2.3,6.1c-0.5,1.1,0.2,1.8,0.8,2.6c0.9,1.2,1.8,2.4,2.4,3.8c0.5,1,0.8,2.1,0.7,3.4c-0.3,2.8-2.7,5.1-5.6,5.4
			c-1.9,0.2-3.8,0-5.8-0.3c-0.6-0.1-0.8,0-1.1,0.6c-1.7,3.6-3.7,4.2-7.1,1.9c-1.6-1.1-2.8-2.5-4.2-3.8c-0.5-0.5-0.7-0.6-1.2-0.1
			c-3.6,2.6-5.3,2.3-7.8-1.5c-0.6-0.9-1.1-1.8-1.7-2.8c-0.2-0.5-0.6-0.7-1.1-0.5c-3.8,1.1-5.4,0.2-6.5-3.6c-0.3-1.1-0.7-2.3-1.2-3.4
			c-0.9-1.8-2.4-2.8-4.4-2.9C149,69.6,146.6,69.9,144.3,70.6z"/>
	</g>
</g>
</svg>
