<?xml version="1.0" encoding="utf-8"?>
<!-- Generator: Adobe Illustrator 24.0.1, SVG Export Plug-In . SVG Version: 6.00 Build 0)  -->
<svg version="1.1" xmlns="http://www.w3.org/2000/svg" xmlns:xlink="http://www.w3.org/1999/xlink" x="0px" y="0px"
	 viewBox="0 0 200 200" style="enable-background:new 0 0 200 200;" xml:space="preserve">
<style type="text/css">
	.st0{fill:#BCCE46;}
	.st1{fill:#E4DC9F;}
	.st2{fill:#EC6D32;}
	.st3{fill:#30312F;}
</style>
<g id="Layer_1">
	<g>
		<path class="st0" d="M38.2,59c-3.4-3.7-4.6-8-3.8-13c2-13.4,9.6-22.6,21.2-28.8c8.6-4.6,17.8-6.6,27.5-6.2
			c16.5,0.7,28.9,8.3,36.9,22.8c2.9,5.2,4.2,10.9,4.5,16.9c0.5,11.6-2.6,22.3-7.6,32.5c-5,10.3-11.6,19.5-19,28.2
			c-4.9,5.8-10.2,11.3-15.8,16.5c-1.7,1.7-3.4,3.4-4.6,5.5c-1.2,2-2.2,4.1-1.2,6.6c0.8,2,2.2,2.7,4.3,2.2c3-0.7,5.3-2.6,7.7-4.5
			c4.9-4,8.9-8.8,13-13.6c6.1-7.1,12.2-14.2,19.4-20.1c3.7-3,7.6-5.7,12.1-7.5c9.1-3.7,17.2-2,24.5,4.3c5.4,4.7,8.5,10.8,10.5,17.6
			c1.8,6.1,2.5,12.3,2.8,18.6c0.1,1.8,0.1,3.6,0.5,5.3c0.5,2,1.5,2.4,3.1,1.1c2.4-1.9,4.2-4.5,5.8-7c1.6-2.4,3-5,4.1-7.7
			c0.4-0.9,0.8-1.7,1.4-2.4c0.9-1.2,2.1-1.6,3.6-1.4c1.3,0.2,1.6,1.3,2,2.3c2.8,7.3,2.5,14.8,0.6,22.2c-1.1,4.3-2.6,8.5-4.7,12.4
			c-0.7-0.1-1.3,0.1-1.9,0.6c-1.7,1.3-3,2.9-4.5,4.3c-2.1,1.9-4.4,3.7-7.1,4.7c-5.2,1.9-10.3,1.1-15.4-0.5c-4.2-1.4-6.7-4.2-7.8-8.4
			c-1.6-6.2-1.4-12.4-0.8-18.7c0.3-3.6,0.3-7.1-1.1-10.5c-1.6-4-7.3-6.7-11.4-2.4c-1.4,1.5-2.7,2.9-3.9,4.6
			c-4.2,5.8-8,11.9-12.3,17.6c-3.2,4.2-6.6,8.2-10.9,11.5c-4.8,3.7-9.9,6.7-15.5,9.1c-7.3,3-14.7,5.8-22.8,5
			c-2.5-0.2-4.9-0.6-7.2-1.5c-4.1-1.5-7.3-4.2-10.1-7.5c-4.2-4.9-6.6-10.4-6.7-16.9c-0.1-4.1,0.7-8.1,1.9-12.1
			c2.6-8.6,6.9-16.4,11.8-23.8c5-7.4,10.8-14.2,16-21.4c3.7-5.2,7.4-10.4,10.2-16.1c3.5-7.4-0.4-15.3-8.4-16.9
			c-2.9-0.6-5.9-0.5-8.9-0.2c-3.3,0.2-6.6,0.8-9.7,2c-2.2,0.8-4.3,1.7-5.8,3.7c-3.2-0.6-6.3-1.4-9.1-3c1-1.6,2.3-2.8,4-3.7
			c0.7-0.4,1.4-0.6,2-1.2c1.1-1,1.1-2.4,0-3.4c-0.7-0.6-1.5-1.1-2.4-1.4c-3.6-1.3-6.9-1.1-9.4,2.4C39.1,58,38.6,58.5,38.2,59z
			 M91.9,44.2c3,0,5.5-2.1,6.3-5.2c1-3.7-1.1-7.7-4.6-8.7c-3.4-0.9-6.9,1.1-7.9,4.8C84.4,39.6,87.5,44.2,91.9,44.2z"/>
		<path class="st1" d="M54.4,67.8c1.5-1.9,3.6-2.8,5.8-3.7c3.1-1.2,6.4-1.7,9.7-2c3-0.2,5.9-0.3,8.9,0.2c8.1,1.6,11.9,9.5,8.4,16.9
			c-2.8,5.8-6.5,11-10.2,16.1c-5.2,7.2-11.1,14-16,21.4c-5,7.4-9.2,15.2-11.8,23.8c-1.2,3.9-2,7.9-1.9,12.1c0.1,6.4,2.5,12,6.7,16.9
			c2.8,3.3,6.1,6,10.1,7.5c2.3,0.9,4.8,1.2,7.2,1.5c8.2,0.8,15.5-2,22.8-5c5.6-2.3,10.7-5.4,15.5-9.1c4.2-3.3,7.7-7.3,10.9-11.5
			c4.3-5.7,8.1-11.8,12.3-17.6c1.2-1.6,2.5-3.1,3.9-4.6c4.1-4.3,9.8-1.5,11.4,2.4c1.4,3.4,1.4,6.9,1.1,10.5
			c-0.6,6.3-0.9,12.5,0.8,18.7c1.1,4.2,3.6,7,7.8,8.4c5.1,1.7,10.2,2.5,15.4,0.5c2.7-1,5-2.7,7.1-4.7c1.5-1.4,2.9-3,4.5-4.3
			c0.6-0.5,1.2-0.7,1.9-0.6c-1,2.4-2.5,4.5-4.2,6.5c-4.1,4.9-9.3,8.2-15.8,8.7c-6.9,0.6-13-1.6-18.3-6.2c-3.2-2.9-5.4-6.5-6.5-10.6
			c-0.8-3.3-1.4-6.6-1.4-10.1c0-1.3,0-2.7-0.2-4c-0.5-2.9-2.5-3.3-4.9-1.9c-1.4,0.8-2.3,2.1-3,3.4c-2.5,4.4-5.7,8.1-9.1,11.8
			c-5,5.4-10.6,10.2-16.6,14.4c-4.6,3.2-9.6,5.8-14.8,7.9c-4.6,1.8-9.4,3.2-14.3,3.8c-4.4,0.6-8.8,0.8-13.3,0.4
			c-4.7-0.4-9.3-1.2-13.8-2.6c-7.1-2.3-13.6-5.7-18.8-11.3c-4.1-4.5-6.5-9.8-7.2-15.8c-0.7-6.5,0.6-12.7,3.2-18.6
			c3.2-7.5,8.1-14,13-20.4c2.2-3,4.4-6,6.7-8.9c4.4-5.8,8.8-11.7,13.4-17.3c2.4-3,4.7-6.1,6.3-9.7c0.8-1.8,1.4-3.7,1-5.7
			c-0.7-3-3.1-4.2-5.6-5.3c-2.2-0.9-4.4-1.6-6.7-2.1C55.3,68.2,54.8,68.2,54.4,67.8z"/>
		<path class="st2" d="M38.2,59c0.5-0.5,1-1,1.4-1.6c2.5-3.5,5.8-3.6,9.4-2.4c0.9,0.3,1.7,0.8,2.4,1.4c1.1,1,1.1,2.4,0,3.4
			c-0.6,0.5-1.3,0.8-2,1.2c-1.7,0.9-3,2.1-4,3.7c-1.1,1.3-2.2,2.6-3.3,3.8c-4,4-7.6,8.3-11.3,12.4c-3.6,4-7.9,7-13.4,7.8
			c-2.5,0.4-5,0.1-7.4-0.8c-0.7-0.3-1.4-0.6-1.4-1.5c0-0.9,0.6-1.4,1.3-1.7c1-0.5,2.2-0.5,3.3-0.5c3.9-0.1,7.1-1.6,9.7-4.5
			c0.7-0.7,1.2-1.5,1.5-2.5c0.3-1-0.1-1.7-0.9-2.1c-1-0.5-2.1-0.6-3.3-0.6c-3.3-0.1-6.5-0.9-9.5-2.3c-1.1-0.5-2.1-1.2-2.8-2.2
			c-0.5-0.8-0.7-1.8-0.2-2.6c0.6-0.9,1.5-0.7,2.3-0.5c2,0.4,3.7,1.5,5.7,1.8c6.8,1.1,13-0.1,18.2-4.7C35.6,62.5,36.9,60.8,38.2,59z"
			/>
		<path class="st3" d="M91.9,44.2c-4.4,0-7.5-4.5-6.2-9.1c1.1-3.7,4.5-5.7,7.9-4.8c3.5,1,5.6,4.9,4.6,8.7
			C97.4,42.1,94.9,44.2,91.9,44.2z"/>
	</g>
</g>
<g id="Layer_2">
</g>
</svg>
