<?xml version="1.0" encoding="utf-8"?>
<!-- Generator: Adobe Illustrator 24.0.1, SVG Export Plug-In . SVG Version: 6.00 Build 0)  -->
<svg version="1.1" id="Layer_1" xmlns="http://www.w3.org/2000/svg" xmlns:xlink="http://www.w3.org/1999/xlink" x="0px" y="0px"
	 viewBox="0 0 200 200" style="enable-background:new 0 0 200 200;" xml:space="preserve">
<style type="text/css">
	.st0{fill:#FCC24A;}
	.st1{fill:#FA922D;}
	.st2{fill:#E94401;}
	.st3{fill:#DE2D02;}
	.st4{fill:#FEFEFE;}
	.st5{fill:#6FC749;}
</style>
<g>
	<path class="st0" d="M72.4,164.9c-5.4,3.1-11.2,5.5-16.8,8.2c-9.9,4.8-19.8,9.4-29.7,14.1c-0.5,0.3-1.1,0.5-2.2,1
		c6-17,11.9-33.4,17.7-49.9c3.8,1.5,7.8,1.9,11.8,1.1c13.4-2.6,21.1-13.7,19.2-27.2c-1.2-7.8-8.1-15.9-15.3-17.6
		c2.7-7.7,5.4-15.5,8.1-23.2c1.9-5.3,3.9-10.7,5.8-16c0.6,4.1,2.5,7.7,5.3,10.8c1.8,2,3.7,3.9,6.5,4.5l0,0c0.2,0.4,0.5,0.4,0.8,0.4
		c2.6,2.2,5.4,2.9,8.5,1.1c1.2,0,2.3,0.1,3.5,0c5.8-0.2,10.9,1.4,15.2,5.5c-0.4,0.5-1,0.3-1.5,0.4c-11.2,0.7-19.3,12.1-16.3,23
		c2,7.2,6.6,11.8,14,13.4c7.4,1.6,13.5-0.7,18.4-6.5c2.8,1.8,5.8,3.4,9.1,4.1c-0.8,6.2,2.3,7.4,6,7.7c3,0.3,5.6-0.9,7.9-2.7
		c2,1.5,3.7,3.2,5.5,5c0.9,1,1.3,2.5,2.8,2.8c-4.9,2.4-9.8,4.8-14.7,7.2c-9.7,4.6-19.4,9.2-29.1,13.8c-4.2-8.6-12.7-13.4-22.2-12.7
		c-8.8,0.7-16.6,7.2-19.3,15.7C69.6,154.3,70.3,159.6,72.4,164.9z M42.7,157.8c-0.3,1.7,0.5,2.1,2.3,1.7c3.3-0.7,3.3-0.7,4,2.6
		c0,0.1,0,0.1,0.1,0.2c1,4.5,1,4.5,5.5,3.4c1.7-0.4,4-0.4,4.8-1.4c0.9-1.2-0.4-3.3-0.8-5c-0.7-3-0.7-3,2.1-3.7
		c2.4-0.6,2.5-0.9,1.3-3.1c-2.4-4.2-7.1-6.2-12-4.9C45.9,148.6,42.7,153,42.7,157.8z M86.1,84.6c0-2.3-0.6-4.4-1.7-6
		c-0.7-1.1-1.2-1.4-2.3-0.2c-2.6,2.6-2.7,2.5-5.2,0c-3.4-3.4-3.4-3.4-6.8,0c-3.7,3.6-3.7,3.6,0,7.4c2.2,2.2,2.2,2.3-0.1,4.5
		c-1.2,1.1-1.3,1.9,0.2,2.8c3.4,2,6.9,2.3,10.4,0.5C84.2,91.7,85.9,88.6,86.1,84.6z M125.2,119.7c0.1-3,0.1-3-2.2-2.9
		c-4,0.2-8,3.9-8.8,8.3c-0.8,4.3,1.7,9.2,5.5,11c3.4,1.6,3.6,1.5,3.9-2.2c0.1-1.4,0.6-2,2-1.8c1.8,0.3,3.6,0.3,5.3,0.6
		c1,0.2,1.3-0.1,1.4-1.1c0.2-1.8,0.4-3.7,0.7-5.5c0.4-3.3,0.4-3.3-2.9-3.5c-0.8-0.1-1.6-0.4-2.4-0.3
		C125.3,122.6,124.7,121.5,125.2,119.7z M90.3,113.6c-0.8,0-1.4,0-1.9,0c-4.8,0.4-7.1,4.5-4.9,8.7c1.6,3.2,4.5,4.5,7.8,5
		c3.1,0.5,5.4-1,6.7-4.4c1.2-3.4,0.3-6.5-2.4-7.9C93.9,114.1,92.1,113.2,90.3,113.6z"/>
	<path class="st1" d="M75.6,42.5c2.8-7.8,5.6-15.6,8.2-23.5c0.5-1.6,1.4-0.9,2.2-0.6c8,2.9,15.7,6.3,23.2,10.3
		c18,9.6,34,21.9,47.8,36.9c11.9,12.9,21.7,27.3,29.5,43.1c0.6,1.3,0.5,1.8-0.9,2.4c-7.4,3.4-14.7,6.9-22,10.4
		c-0.1-0.3-0.1-0.5-0.2-0.8c-4.8-9.3-10.1-18.2-16.4-26.5c-8.8-11.6-19.1-21.6-30.7-30.3c-9.5-7.1-19.8-12.9-30.7-17.6
		C82.4,44.8,79.1,43.3,75.6,42.5z"/>
	<path class="st2" d="M75.6,42.5c3.5,0.8,6.8,2.3,10,3.7c10.9,4.7,21.2,10.5,30.7,17.6c11.6,8.7,21.8,18.7,30.7,30.3
		c6.4,8.3,11.6,17.3,16.4,26.5c0.1,0.2,0.2,0.5,0.2,0.8c-2.3,1.1-4.7,2.3-7,3.4c-1.5-0.3-1.9-1.9-2.8-2.8c-1.7-1.8-3.5-3.5-5.5-5
		c0.2-0.3,0.5-0.7,0.7-1c1.7-2.6,1.3-5.5-1-8.3c-1.8-2.1-4.2-2.6-7.1-1.6c-3,1.1-5.1,3.1-6.5,5.9c-3.3-0.7-6.3-2.2-9.1-4.1
		c3.7-4.8,5-10.2,3.5-16.1c-1.2-4.4-3.8-7.9-7.5-10.6c-3.2-2.3-6.9-2.8-10.6-3.5c-4.2-4.1-9.4-5.7-15.2-5.5c-1.2,0-2.3,0-3.5,0
		c2.5-3.2,2.8-6.6,1.3-10.3c-1.5-3.9-5-5.4-8.8-3.9c-4,1.6-5.4,4.8-3.7,8.8c0.5,1.3,1.2,2.6,1.9,3.8c-2.8-0.6-4.7-2.5-6.5-4.5
		c-2.7-3.1-4.6-6.6-5.3-10.8C72.5,51.1,74.1,46.8,75.6,42.5z"/>
	<path class="st3" d="M57.1,94.6c7.1,1.7,14.1,9.8,15.3,17.6c2,13.5-5.7,24.6-19.2,27.2c-3.9,0.8-7.9,0.4-11.8-1.1
		c4.9-13.8,9.8-27.6,14.8-41.5C56.5,96.1,56.8,95.3,57.1,94.6z M62.4,112.9c0-2.3-1.2-3.5-2.7-3.4c-1.2,0.1-2.6,1.5-2.5,2.8
		c0.1,1.6,1.2,2.6,2.9,2.5C61.7,114.7,62.4,113.7,62.4,112.9z M53.2,124.3c-1.1,0.1-1.9,0.6-1.9,1.9c0,1.3,0.7,2.1,2,2.1
		c1.3,0,2-0.8,2-2.1C55.4,124.9,54.6,124.3,53.2,124.3z M60.8,122.8c0.1,1.1,0.5,1.9,1.7,1.8c1.1-0.1,2-0.6,1.9-1.9
		c-0.1-1.1-0.8-1.6-1.9-1.6C61.3,121,60.7,121.6,60.8,122.8z M53.6,115.8c-0.8,0.2-1.4,0.7-1.4,1.5c0,0.9,0.7,1.4,1.4,1.5
		c0.9,0.1,1.4-0.6,1.3-1.4C54.9,116.4,54.4,116,53.6,115.8z"/>
	<path class="st3" d="M72.4,164.9c-2.1-5.2-2.8-10.5-1.1-16.1c2.6-8.5,10.5-15,19.3-15.7c9.5-0.7,18,4.1,22.2,12.7
		c-11.2,5.4-22.4,10.7-33.6,16.1C76.9,162.9,74.6,163.9,72.4,164.9z M99.6,143.5c0-1.8-1-3-2.5-3c-1.4,0-2.7,1.4-2.7,2.8
		c0,1.5,1.4,2.8,2.8,2.6C98.7,145.9,99.8,145.1,99.6,143.5z M81.4,156.1c1.7,0.1,2.7-0.6,2.8-2.2c0.2-1.3-1.1-2.7-2.5-2.7
		c-1.3-0.1-2.8,1.2-2.7,2.5C79.2,155.2,79.9,156.2,81.4,156.1z M83.1,141.7c0,1.4,0.9,2,2.1,2c1.4,0,2.2-1,2.2-2.3
		c0-1.4-1-2.1-2.3-2.1C83.7,139.4,83.1,140.3,83.1,141.7z M91,149.9c0.9-0.1,1.2-0.7,1.2-1.6c0-1-0.6-1.3-1.5-1.3
		c-0.8,0-1.3,0.4-1.3,1.2C89.4,149.3,90,149.8,91,149.9z"/>
	<path class="st3" d="M110.7,77.7c3.7,0.7,7.4,1.2,10.6,3.5c3.7,2.7,6.3,6.1,7.5,10.6c1.5,5.9,0.2,11.3-3.5,16.1
		c-4.9,5.8-11,8.1-18.4,6.5c-7.3-1.6-11.9-6.2-14-13.4c-3.1-10.9,5.1-22.3,16.3-23C109.7,78,110.3,78.2,110.7,77.7z M117.4,88.7
		c-0.2-1.3-0.9-2.3-2.5-2.3c-1.6,0-2.4,0.9-2.4,2.5c0,1.7,1.1,2.3,2.5,2.4C116.5,91.2,117.2,90.3,117.4,88.7z M101.3,100.4
		c1.1,0,2-0.7,2-2.2c0-1.3-0.8-2.2-2.2-2.2c-1.5-0.1-2.3,0.8-2.3,2.3C98.9,99.5,99.4,100.4,101.3,100.4z M104.1,85.1
		c-1,0.2-1.9,0.7-1.9,1.9c0,1.2,0.9,2.1,2.1,2c1.1-0.1,1.8-0.9,1.8-2.1C106.2,85.7,105.4,85.2,104.1,85.1z M109.5,99.6
		c-1.5,0-2.4,0.5-2.4,1.8c0,1.1,0.5,1.8,1.7,1.9c1.1,0,2.1-0.4,2.1-1.7C110.9,100.6,110.6,99.5,109.5,99.6z M117.2,99.9
		c1-0.2,1.7-0.8,1.7-1.8c0-1-0.7-1.7-1.7-1.7c-1.1,0-1.6,0.8-1.6,1.8C115.5,99.2,116.3,99.7,117.2,99.9z M109.5,92.1
		c-1.1,0.1-1.6,0.5-1.6,1.3c0,0.8,0.6,1.1,1.4,1.1c0.9,0,1.3-0.5,1.2-1.3C110.5,92.5,110,92.1,109.5,92.1z"/>
	<path class="st4" d="M42.7,157.8c0-4.8,3.2-9.2,7.4-10.3c4.9-1.3,9.6,0.7,12,4.9c1.2,2.1,1.1,2.5-1.3,3.1c-2.9,0.7-2.8,0.7-2.1,3.7
		c0.4,1.7,1.7,3.8,0.8,5c-0.8,1.1-3.1,1-4.8,1.4c-4.5,1.1-4.6,1.1-5.5-3.4c0-0.1,0-0.1-0.1-0.2c-0.8-3.3-0.8-3.4-4-2.6
		C43.2,159.8,42.3,159.5,42.7,157.8z"/>
	<path class="st4" d="M86.1,84.6c-0.1,4-1.9,7.1-5.6,8.9c-3.5,1.8-7,1.5-10.4-0.5c-1.5-0.9-1.4-1.7-0.2-2.8c2.3-2.2,2.3-2.3,0.1-4.5
		c-3.7-3.8-3.7-3.8,0-7.4c3.5-3.4,3.5-3.4,6.8,0c2.6,2.6,2.7,2.7,5.2,0c1.1-1.1,1.6-0.8,2.3,0.2C85.4,80.2,86.1,82.2,86.1,84.6z"/>
	<path class="st4" d="M125.2,119.7c-0.5,1.7,0,2.8,2.4,2.6c0.8-0.1,1.6,0.2,2.4,0.3c3.3,0.2,3.4,0.3,2.9,3.5
		c-0.2,1.8-0.5,3.7-0.7,5.5c-0.1,1-0.4,1.3-1.4,1.1c-1.8-0.3-3.6-0.4-5.3-0.6c-1.4-0.2-1.9,0.4-2,1.8c-0.3,3.7-0.5,3.8-3.9,2.2
		c-3.8-1.8-6.3-6.8-5.5-11c0.8-4.3,4.8-8.1,8.8-8.3C125.4,116.7,125.4,116.7,125.2,119.7z"/>
	<path class="st5" d="M134.4,112c1.3-2.9,3.5-4.9,6.5-5.9c2.9-1,5.3-0.5,7.1,1.6c2.3,2.8,2.7,5.7,1,8.3c-0.2,0.3-0.4,0.7-0.7,1
		c-2.3,1.8-5,3-7.9,2.7C136.7,119.4,133.6,118.2,134.4,112z"/>
	<path class="st5" d="M82.7,70.7c-0.6-1.3-1.3-2.5-1.9-3.8c-1.7-4-0.3-7.2,3.7-8.8c3.9-1.5,7.3,0,8.8,3.9c1.4,3.7,1.2,7.1-1.3,10.3
		c-3.1,1.8-5.9,1.1-8.5-1.1C83.3,70.7,83.1,70.5,82.7,70.7L82.7,70.7z"/>
	<path class="st5" d="M90.3,113.6c1.8-0.4,3.5,0.6,5.2,1.4c2.7,1.4,3.6,4.5,2.4,7.9c-1.2,3.4-3.5,5-6.7,4.4c-3.3-0.6-6.2-1.8-7.8-5
		c-2.2-4.3,0.1-8.3,4.9-8.7C89,113.5,89.5,113.6,90.3,113.6z"/>
	<path class="st2" d="M82.7,70.6c0.4-0.1,0.7,0.1,0.8,0.4C83.2,71,82.8,71,82.7,70.6z"/>
	<path class="st1" d="M62.4,112.9c0,0.8-0.8,1.8-2.4,1.9c-1.6,0.1-2.8-1-2.9-2.5c0-1.2,1.3-2.7,2.5-2.8
		C61.3,109.5,62.4,110.6,62.4,112.9z"/>
	<path class="st1" d="M53.2,124.3c1.4,0,2.2,0.6,2.2,1.9c0,1.3-0.7,2.1-2,2.1c-1.3,0-2-0.8-2-2.1C51.3,125,52,124.4,53.2,124.3z"/>
	<path class="st1" d="M60.8,122.8c-0.1-1.2,0.5-1.8,1.7-1.8c1.1,0,1.9,0.5,1.9,1.6c0.1,1.3-0.9,1.8-1.9,1.9
		C61.3,124.7,60.8,123.8,60.8,122.8z"/>
	<path class="st1" d="M53.6,115.8c0.8,0.2,1.4,0.7,1.4,1.5c0,0.9-0.5,1.5-1.3,1.4c-0.7-0.1-1.5-0.5-1.4-1.5
		C52.2,116.4,52.7,115.9,53.6,115.8z"/>
	<path class="st1" d="M99.6,143.5c0.2,1.6-0.9,2.4-2.4,2.5c-1.5,0.2-2.8-1.2-2.8-2.6c0-1.4,1.3-2.8,2.7-2.8
		C98.6,140.5,99.6,141.7,99.6,143.5z"/>
	<path class="st1" d="M81.4,156.1c-1.5,0-2.2-1-2.3-2.4c-0.1-1.3,1.4-2.6,2.7-2.5c1.4,0.1,2.6,1.4,2.5,2.7
		C84.1,155.5,83.1,156.2,81.4,156.1z"/>
	<path class="st1" d="M83.1,141.7c0-1.4,0.6-2.3,2-2.4c1.3,0,2.3,0.7,2.3,2.1c0,1.3-0.8,2.3-2.2,2.3C84,143.7,83.1,143.1,83.1,141.7
		z"/>
	<path class="st1" d="M91,149.9c-1-0.1-1.6-0.6-1.6-1.6c0-0.9,0.5-1.2,1.3-1.2c0.9,0,1.5,0.3,1.5,1.3
		C92.2,149.2,91.9,149.8,91,149.9z"/>
	<path class="st1" d="M117.4,88.7c-0.2,1.6-0.9,2.5-2.4,2.5c-1.4,0-2.6-0.7-2.5-2.4c0-1.6,0.9-2.4,2.4-2.5
		C116.5,86.4,117.2,87.4,117.4,88.7z"/>
	<path class="st1" d="M101.3,100.4c-1.9,0-2.4-0.9-2.5-2.2c0-1.5,0.8-2.3,2.3-2.3c1.3,0.1,2.2,0.9,2.2,2.2
		C103.3,99.6,102.4,100.3,101.3,100.4z"/>
	<path class="st1" d="M104.1,85.1c1.3,0.1,2.1,0.6,2.1,1.9c0,1.2-0.7,2-1.8,2.1c-1.2,0.1-2.1-0.8-2.1-2
		C102.2,85.8,103.1,85.3,104.1,85.1z"/>
	<path class="st1" d="M109.5,99.6c1.1-0.1,1.4,1,1.4,2c0,1.2-1,1.7-2.1,1.7c-1.1,0-1.7-0.8-1.7-1.9C107.2,100.1,108,99.6,109.5,99.6
		z"/>
	<path class="st1" d="M117.2,99.9c-1-0.2-1.8-0.7-1.7-1.7c0.1-0.9,0.6-1.8,1.6-1.8c1,0,1.7,0.7,1.7,1.7
		C118.9,99.1,118.2,99.7,117.2,99.9z"/>
	<path class="st1" d="M109.5,92.1c0.5-0.1,1,0.4,1,1.2c0,0.7-0.4,1.3-1.2,1.3c-0.8,0-1.3-0.3-1.4-1.1
		C107.9,92.6,108.4,92.2,109.5,92.1z"/>
</g>
</svg>
