<?xml version="1.0" encoding="utf-8"?>
<!-- Generator: Adobe Illustrator 24.0.2, SVG Export Plug-In . SVG Version: 6.00 Build 0)  -->
<svg version="1.1" xmlns="http://www.w3.org/2000/svg" xmlns:xlink="http://www.w3.org/1999/xlink" x="0px" y="0px"
	 viewBox="0 0 1068 259" style="enable-background:new 0 0 1068 259;" xml:space="preserve">
<style type="text/css">
	.st0{fill:#A5A5A5;}
	.st1{fill:#74AF78;}
	.st2{fill:#896033;stroke:#664519;stroke-miterlimit:10;}
	.st3{fill:#46B530;}
	.st4{fill:#664519;}
	.st5{fill:#D32222;}
</style>
<g id="Layer_1">
	<g id="platform">
		<title>platArtboard 1</title>
		<path id="Path_134" class="st0" d="M53.6,114.5l12,69l480,62.9l275.8-53.8l162,13.2l50.5-65.5l-89.3,11.3l-144.4-12l-254.6,48
			l-359.3-84.1L53.6,114.5z"/>
		<path id="Path_135" class="st1" d="M868.6,81.5c0,0,193.5,19.6,182,66.8c0,0-6.7,27.5-56,21.6c0,0,20.2,0.2-46-1
			c-40.9-0.8-93.8,1.3-157.9,10c-167.7,22.7-420.3,27.8-566-10.1c0,0-35.6-8.4-91.2,3.4C78,184,42.3,159.5,42.3,159.5
			s-48.2-35,59.7-69.1C221.1,52.8,509.7,78,868.6,81.5z"/>
	</g>
	<g id="snake">
	</g>
</g>
<g id="Layer_3">
	<ellipse class="st2" cx="252.1" cy="92.4" rx="48.1" ry="40.9"/>
	<g>
		<g>
			<path class="st3" d="M180.9,70.8c4.2-6.3,12.7-8.1,19.7-9.5c4.4-0.8,8.8-1.3,13.3-1.4c3.6-0.1,8.8-0.8,11.6,1.8
				c6.4,5.8,1.1,17.8-1.4,24.3c-2.6,6.9-4.9,14.3-4.2,21.8c1.6,17.1,19.4,24.4,34.8,23.5c16.2-0.9,28.7-11,42.2-18.8
				c16.2-9.2,35.4-10.6,52.3-2.3c6.9,3.4,13-6.9,6.1-10.4c-15.6-7.8-34-9.6-50.7-4c-16,5.4-28.4,18.8-44.9,22.7
				c-7.7,1.8-18.8,1.1-24.8-4.8c-5.8-5.7-2.4-15.6-0.1-22.1c3.2-8.7,6.8-17.6,5-27.1c-1.5-8.4-7.5-14.9-15.9-16.3
				c-9.9-1.7-21.2,0-30.9,2.3c-9,2.1-17.2,6.2-22.5,14C166.3,71.2,176.7,77.3,180.9,70.8L180.9,70.8z"/>
		</g>
	</g>
	<path class="st4" d="M246.8,133.1l214.1-11.3l181-25.9c0,0,15.1,0,15.1-24.1s-15.1-25.5-15.1-25.5L510.5,61l-258.4-9.5
		c0,0,17.9-0.2,31.4,12.4S300,96.6,300,96.6s-8,21-18.5,28.2C271,132,246.8,133.1,246.8,133.1z"/>
	<circle cx="179.9" cy="60.7" r="3"/>
	<g>
		<g>
			<path class="st5" d="M172,70.9c-2.7,1.8-4.3,4.9-4,8.2c0.2,1.9,3.2,1.9,3,0c-0.2-2.2,0.6-4.3,2.5-5.6
				C175.1,72.4,173.6,69.8,172,70.9L172,70.9z"/>
		</g>
	</g>
	<g>
		<g>
			<path class="st5" d="M167.9,75.4c-0.3,0.7-1.4,1.1-2.1,0.8c-0.7-0.3-1.6-0.2-2.1,0.5c-0.4,0.6-0.2,1.7,0.5,2.1
				c2.6,1.2,5.4,0,6.5-2.6c0.3-0.8-0.3-1.6-1-1.8C168.9,74.1,168.2,74.6,167.9,75.4L167.9,75.4z"/>
		</g>
	</g>
</g>
</svg>
