<?xml version="1.0" encoding="utf-8"?>
<!-- Generator: Adobe Illustrator 24.0.1, SVG Export Plug-In . SVG Version: 6.00 Build 0)  -->
<svg version="1.1" id="Layer_1" xmlns="http://www.w3.org/2000/svg" xmlns:xlink="http://www.w3.org/1999/xlink" x="0px" y="0px"
	 viewBox="0 0 200 200" style="enable-background:new 0 0 200 200;" xml:space="preserve">
<style type="text/css">
	.st0{fill:#98948C;}
	.st1{fill:#7C7972;}
	.st2{fill:#605D58;}
	.st3{fill:#A8A59E;}
	.st4{fill:#706C63;}
</style>
<g>
	<path class="st0" d="M124.6,67.6c0.4,0,0.8-0.1,1.2,0.3c1.9,2.3,4.3,4.2,6.4,6.3c3.4,3.3,7.2,6.3,10.3,9.8
		c-2.3,1.4-4.5,2.7-6.8,4.2c-3.5,2.3-7.1,4.2-10.4,6.7c-4.2,0.5-8.3,1.4-12.4,2.4c-1.6-0.2-3.2,0.3-4.8,0.4
		c-4.5,0.2-9.1,0.3-13.5,0.9c-1.9,0.2-3.9-0.1-5.8,0.6c-2,0.7-2.3,1.5-1.1,3.2c1.1,1.5,2.4,2.9,2.9,4.8c-3.9,3.6-7.8,7.3-11.7,10.9
		c-6.7-2-13.4-3.9-20-6.2c-10.6-3.6-21.4-5.9-32.5-6.7c-5.9-0.4-11.9-0.3-17.8-0.4c-0.4-0.6,0-1,0.2-1.4c1.7-3.5,3.4-7,5-10.6
		c0.5-1.2,1.4-2,2.5-2.6c4.2-2.3,8.3-4.6,12.4-6.9c2.4-1.3,4.1-3.4,5.9-5.4c2-2.2,4.3-3.2,7.2-3c1,0.1,2.1,0,3.1,0
		c-2.1,1.9-2,2.5,0.6,3.7c2.5,1.1,5.1,2.3,7.6,3.4c2.3,1,4.6,1.7,7.1,1.6c2.3-0.1,4.3-0.9,6.4-1.4c3.3-0.8,6.5-2.3,10-2.5
		c6.3-0.4,12.6-0.6,18.8-0.8c0.5,0,1-0.1,1.5-0.3c3.9-1.1,7.6-2.9,11.4-4.4C113.8,72,119.4,70.1,124.6,67.6z"/>
	<path class="st1" d="M8.6,104.7c5.9,0.1,11.9,0,17.8,0.4c11.1,0.8,22,3.1,32.5,6.7c6.6,2.3,13.3,4.1,20,6.2
		c-2.8,3.7-5.6,7.4-8.2,11.2c-1.9,2.7-4.3,5.2-5.8,8.2c-4.9-1-9.8-2-14.6-3c-11.1-2.3-22.2-4.7-33.3-7c-4-0.8-5-1.9-5.7-5.9
		c-0.8-4.8-1.7-9.6-2.5-14.4C8.6,106.3,8.6,105.5,8.6,104.7z"/>
	<path class="st2" d="M64.9,137.3c1.6-3,3.9-5.4,5.8-8.2c2.7-3.8,5.5-7.5,8.2-11.2c3.9-3.6,7.8-7.3,11.7-10.9c0.3,0,0.5,0,0.8,0
		c-0.1,0.6,0.3,1.1,0.6,1.6c1.9,3.5,4,6.9,5.6,10.5c1.1,2.4,2.7,3.3,5.1,3.2c4-0.2,7.9,0.6,11.8,0.4c0.5,0,1,0.2,1.5,0.4
		c6.5,2.8,13.1,5.6,19.6,8.5c1.6,0.7,3.4,1,4.6,2.4c-3.8,0-7.7,0.3-11.5,0.1c-4.8-0.2-9.5,0.6-14.2,1.8c-4.3,1.1-8.7,1.7-13.2,1.7
		C89.2,137.3,77,137.3,64.9,137.3z"/>
	<path class="st2" d="M112.9,97.3c4.1-1,8.2-1.9,12.4-2.4c8.2,2.5,16.3,5,24.5,7.4c4.6,1.4,9.1,3.4,14,3.8c3.8,0.3,7.5-0.2,10-3.8
		c0.9,2.2,1.8,4.4,2.6,6.6c0.4,1.2,0.1,2.2-0.8,3c-5.3,4.8-10.5,9.5-15.8,14.3c-6.7-3-13.1-6.5-19.8-9.7c-1.7-0.8-3.4-1.9-5.3-2.5
		c-3.5-2-7.4-3.3-11.1-5c-4.1-1.9-8.5-3.5-12.5-5.6C111.8,101.4,112.4,99.3,112.9,97.3z"/>
	<path class="st3" d="M124.6,67.6c-5.3,2.5-10.8,4.4-16.1,6.6c-3.8,1.6-7.5,3.3-11.4,4.4c-0.5,0.1-1,0.2-1.5,0.3
		c-6.3,0.3-12.6,0.4-18.8,0.8c-3.4,0.2-6.6,1.7-10,2.5c-2.1,0.5-4.2,1.3-6.4,1.4c-2.6,0.1-4.9-0.6-7.1-1.6c-2.5-1.2-5.1-2.3-7.6-3.4
		c-2.6-1.2-2.7-1.8-0.6-3.7c0.4-0.3,0.9-0.3,1.3-0.2c8.4,0.6,16.2-1.5,23.8-4.6c8.3-3.3,17.1-5.2,25.8-7.3c3.8-0.9,7.3,0.4,10.9,1
		c5.7,1.1,11.3,2.3,16.9,3.4C124,67.3,124.3,67.5,124.6,67.6z"/>
	<path class="st4" d="M173.8,102.3c-2.4,3.6-6.2,4-10,3.8c-4.9-0.3-9.4-2.4-14-3.8c-8.2-2.4-16.3-5-24.5-7.4c3.3-2.5,7-4.4,10.4-6.7
		c2.2-1.5,4.5-2.8,6.8-4.2c6.6-0.4,13.3-0.4,19.9-0.4c1,0,2.1,0.2,2.9-0.6c0.1,0,0.2,0,0.2,0.2c0.1,0.2,0.2,0.4,0.4,0.1
		c0.7-0.1,0.9,0.4,1.1,0.9C169.3,90.2,171.6,96.3,173.8,102.3z"/>
	<path class="st1" d="M134.8,114c1.9,0.5,3.5,1.6,5.3,2.5c6.6,3.2,13,6.7,19.8,9.7c-5.8,2.8-11.8,5.1-17.7,7.5
		c-0.6,0.3-1.2,0.4-1.9,0.2c-1.2-1.4-3-1.7-4.6-2.4c-6.5-2.9-13.1-5.7-19.6-8.5c0.5-0.3,1-0.7,1.5-0.9
		C123.2,119.4,129,116.7,134.8,114z"/>
	<path class="st2" d="M165.3,83c-0.8,0.9-1.9,0.6-2.9,0.6c-6.6,0-13.3,0-19.9,0.4c-3.2-3.6-6.9-6.6-10.3-9.8c-2.2-2.1-4.5-4-6.4-6.3
		c7,1.8,14,3.5,20.9,5.3c2,0.5,3.7,1.6,4.7,3.8c0.7,1.6,2.3,2.4,4,2.9C158.6,80.9,162,81.9,165.3,83z"/>
	<path class="st2" d="M166,83.2c-0.2,0.3-0.3,0.1-0.4-0.1C165.7,83.2,165.8,83.2,166,83.2z"/>
	<path class="st3" d="M112.9,97.3c-0.6,2-1.1,4.1-1.7,6.1c-3.3,0.6-6.6,1.1-9.8,1.7c-3.3,0.6-6.6,1.3-10,1.9c-0.3,0-0.5,0-0.8,0
		c-0.5-1.9-1.8-3.2-2.9-4.8c-1.2-1.7-0.9-2.5,1.1-3.2c1.9-0.7,3.8-0.3,5.8-0.6c4.5-0.5,9-0.6,13.5-0.9
		C109.7,97.6,111.3,97,112.9,97.3z"/>
	<path class="st4" d="M91.4,107c3.3-0.6,6.6-1.3,10-1.9c3.3-0.6,6.6-1.2,9.8-1.7c4,2.2,8.3,3.7,12.5,5.6c3.7,1.7,7.5,3,11.1,5
		c-5.8,2.7-11.5,5.4-17.3,8.1c-0.5,0.2-1,0.6-1.5,0.9c-0.5-0.1-1-0.4-1.5-0.4c-4,0.2-7.9-0.7-11.8-0.4c-2.4,0.1-4-0.7-5.1-3.2
		c-1.6-3.6-3.7-7-5.6-10.5C91.7,108.1,91.4,107.6,91.4,107z"/>
</g>
</svg>
