<?xml version="1.0" encoding="utf-8"?>
<!-- Generator: Adobe Illustrator 24.0.2, SVG Export Plug-In . SVG Version: 6.00 Build 0)  -->
<svg version="1.1" xmlns="http://www.w3.org/2000/svg" xmlns:xlink="http://www.w3.org/1999/xlink" x="0px" y="0px"
	 viewBox="0 0 36 36" style="enable-background:new 0 0 36 36;" xml:space="preserve">
<style type="text/css">
	.st0{fill:#FFFFFF;}
	.st1{fill:#718FCC;}
</style>
<g id="Layer_1">
	<g>
		<circle class="st0" cx="17.9" cy="18.1" r="18"/>
	</g>
</g>
<g id="Layer_2">
	<g>
		<path class="st1" d="M16,21.7c0-0.5,0-1,0.1-1.4c0.1-0.4,0.2-0.7,0.3-1c0.2-0.3,0.4-0.6,0.6-0.8c0.3-0.3,0.6-0.6,1.1-0.9
			c0.4-0.3,0.7-0.6,1-1c0.3-0.3,0.4-0.7,0.6-1c0.1-0.4,0.2-0.7,0.2-1.1c0-0.6-0.2-1.1-0.5-1.5c-0.3-0.4-0.8-0.5-1.5-0.5
			c-0.5,0-1,0.1-1.4,0.4c-0.4,0.3-0.6,0.7-0.6,1.3h-3.1l0-0.1c0-0.9,0.2-1.7,0.6-2.3c0.4-0.6,1-1.1,1.8-1.5c0.8-0.3,1.7-0.5,2.7-0.5
			c1.6,0,2.9,0.4,3.9,1.2c0.9,0.8,1.4,1.9,1.4,3.3c0,0.6-0.1,1.2-0.4,1.8c-0.2,0.5-0.6,1.1-1,1.5s-0.9,1-1.5,1.4
			c-0.3,0.2-0.5,0.5-0.6,0.7c-0.1,0.2-0.2,0.5-0.3,0.8c0,0.3-0.1,0.6-0.1,1H16z M16,26.2v-2.8h3.2v2.8H16z"/>
	</g>
</g>
</svg>
