<?xml version="1.0" standalone="no"?>
<!DOCTYPE svg PUBLIC "-//W3C//DTD SVG 20010904//EN"
 "http://www.w3.org/TR/2001/REC-SVG-20010904/DTD/svg10.dtd">
<svg version="1.0" xmlns="http://www.w3.org/2000/svg"
 width="700.000000pt" height="700.000000pt" viewBox="0 0 700.000000 700.000000"
 preserveAspectRatio="xMidYMid meet">
<metadata>
Created by potrace 1.11, written by Peter Selinger 2001-2013
</metadata>
<g transform="translate(0.000000,700.000000) scale(0.100000,-0.100000)"
fill="#000000" stroke="none">
<path d="M2698 6615 c-2 -2 -34 -5 -72 -9 -38 -4 -79 -9 -90 -11 -12 -2 -34
-6 -51 -9 -16 -2 -76 -16 -131 -30 -447 -114 -836 -398 -1014 -741 -86 -165
-147 -396 -142 -538 3 -112 32 -196 99 -291 32 -45 34 -51 21 -75 -26 -51
-181 -197 -249 -235 -131 -72 -215 -91 -389 -89 -100 1 -127 5 -210 32 -150
50 -168 53 -192 29 -26 -26 -19 -80 14 -115 65 -70 226 -126 393 -138 106 -8
134 -16 154 -41 32 -41 12 -94 -64 -168 -88 -85 -202 -129 -345 -135 -59 -2
-87 -11 -111 -37 -19 -20 -21 -29 -13 -51 8 -22 22 -31 79 -49 163 -51 355
-13 524 105 78 54 141 116 286 281 119 136 117 133 221 241 38 41 98 108 132
149 96 115 131 148 193 182 55 30 96 77 81 93 -4 5 -2 5 5 1 29 -16 -12 -67
-87 -109 -52 -30 -140 -109 -140 -126 0 -28 231 -103 360 -116 97 -10 302 -94
362 -148 56 -51 76 -131 56 -219 -12 -57 -89 -207 -144 -285 -24 -34 -104
-138 -177 -230 -138 -174 -362 -466 -524 -683 -52 -69 -99 -132 -106 -140 -55
-67 -235 -321 -290 -408 -113 -177 -224 -425 -252 -556 -3 -14 -7 -37 -10 -50
-25 -120 -28 -311 -6 -434 75 -419 449 -755 999 -898 224 -58 539 -85 727 -63
33 4 87 10 120 14 271 29 639 168 930 351 361 227 773 626 962 933 73 118 91
139 146 166 48 23 91 26 119 9 25 -16 39 -72 43 -172 12 -297 59 -488 153
-627 100 -148 261 -267 447 -329 75 -26 119 -31 260 -31 143 1 223 19 335 75
142 71 302 230 391 387 18 32 38 63 44 68 17 15 100 207 128 300 59 191 80
311 81 475 1 85 -2 178 -6 205 -18 121 -69 267 -101 290 -43 30 -115 14 -155
-35 -7 -8 -41 -73 -76 -145 -113 -230 -275 -445 -355 -473 -27 -10 -33 -8 -51
15 -11 14 -20 28 -21 32 0 3 -2 17 -4 31 -2 14 -6 66 -10 115 -3 50 -8 122
-11 160 -37 497 -170 865 -393 1093 -123 125 -274 218 -416 258 -73 20 -240
27 -315 13 -308 -57 -650 -299 -1046 -738 -55 -60 -59 -65 -129 -146 -82 -96
-136 -158 -159 -185 -176 -203 -281 -313 -409 -425 -102 -89 -227 -157 -301
-163 -45 -4 -56 -1 -83 22 -61 52 -71 142 -25 239 40 86 87 141 333 385 118
118 241 245 274 283 33 38 73 84 89 102 15 17 45 52 65 77 20 25 41 50 47 55
20 18 180 228 256 335 279 395 480 819 558 1178 36 166 48 296 44 477 -3 179
-7 209 -40 342 -48 198 -133 362 -280 548 -249 312 -578 491 -994 541 -45 5
-338 13 -342 9z m370 -2030 c-3 -3 -9 2 -12 12 -6 14 -5 15 5 6 7 -7 10 -15 7
-18z m22 -50 c0 -5 -5 -3 -10 5 -5 8 -10 20 -10 25 0 6 5 3 10 -5 5 -8 10 -19
10 -25z m14 -57 c3 -16 3 -28 -2 -28 -4 0 -9 14 -10 32 -3 37 2 35 12 -4z
m-12 -165 c-36 -138 -208 -418 -471 -766 -75 -100 -200 -265 -277 -367 -269
-355 -424 -615 -538 -902 -76 -191 -136 -418 -136 -517 0 -23 -4 -41 -8 -41
-8 0 -1 95 13 170 30 171 116 410 223 624 129 258 318 536 646 951 251 318
470 656 525 812 18 51 23 73 31 133 2 11 3 11 7 -2 2 -10 -4 -53 -15 -95z
m2069 -1920 c13 -16 12 -17 -3 -4 -10 7 -18 15 -18 17 0 8 8 3 21 -13z m48
-98 c0 -5 -6 1 -14 15 -8 14 -14 30 -14 35 0 6 6 -1 14 -15 8 -14 14 -29 14
-35z m19 -90 c10 -57 8 -93 -2 -44 -2 13 -9 46 -14 72 -5 27 -6 45 -1 40 4 -4
12 -35 17 -68z m8 -177 c-3 -57 -6 -109 -6 -115 0 -7 -4 -13 -8 -13 -5 0 -5
24 -1 53 3 28 6 80 5 115 0 34 3 62 8 62 5 0 6 -46 2 -102z m-10 -155 c-8 -19
-9 -304 -2 -343 2 -14 7 -51 11 -82 5 -51 22 -127 40 -183 6 -17 5 -18 -4 -3
-33 50 -67 282 -65 433 1 39 2 98 3 133 1 38 5 62 12 62 6 0 8 -7 5 -17z
m-3556 -173 c0 -5 -4 -10 -10 -10 -5 0 -10 5 -10 10 0 6 5 10 10 10 6 0 10 -4
10 -10z m-3 -40 c1 -11 -2 -20 -7 -20 -6 0 -7 17 -1 38 3 8 7 -1 8 -18z m2
-77 c-1 -53 -6 -49 -11 10 -2 20 0 37 4 37 4 0 8 -21 7 -47z m19 -118 c0 -16
-2 -15 -8 5 -4 14 -8 34 -8 45 0 16 2 15 8 -5 4 -14 8 -34 8 -45z m21 -75 c0
-9 -4 -8 -9 5 -5 11 -9 27 -9 35 0 9 4 8 9 -5 5 -11 9 -27 9 -35z m21 -55 c0
-5 -5 -3 -10 5 -5 8 -10 20 -10 25 0 6 5 3 10 -5 5 -8 10 -19 10 -25z m14 -31
c3 -8 2 -12 -4 -9 -6 3 -10 10 -10 16 0 14 7 11 14 -7z m3560 -100 c3 -8 2
-12 -4 -9 -6 3 -10 10 -10 16 0 14 7 11 14 -7z m-3453 -81 c13 -16 12 -17 -3
-4 -17 13 -22 21 -14 21 2 0 10 -8 17 -17z"/>
</g>
</svg>
