<?xml version="1.0" encoding="utf-8"?>
<!-- Generator: Adobe Illustrator 24.0.1, SVG Export Plug-In . SVG Version: 6.00 Build 0)  -->
<svg version="1.1" id="Layer_1" xmlns="http://www.w3.org/2000/svg" xmlns:xlink="http://www.w3.org/1999/xlink" x="0px" y="0px"
	 viewBox="0 0 200 200" style="enable-background:new 0 0 200 200;" xml:space="preserve">
<style type="text/css">
	.st0{display:none;}
	.st1{fill:#70BD51;}
	.st2{fill:#B32E2B;}
	.st3{fill:#AD7E14;}
</style>
<g id="Layer_1_1_" class="st0">
</g>
<g id="Layer_2_1_">
	<path class="st1" d="M137,8.1c0,0,1.1,39.1-41.3,43.1C95.7,51.1,94.6,12,137,8.1z"/>
	<path class="st2" d="M95.5,194.2c0,0-27.3,17.7-54.5-10.9s-28.6-68.1-28.6-68.1S6.9,57.9,55.9,45.6c0,0,8.2-1.4,13.6,0
		C75,47,90,52.4,90,52.4s6.8,4.1,15-1.4s28.6-5.5,28.6-5.5s38.2-1.4,51.8,49.1s-34.1,92.7-34.1,92.7s-15,15-36.8,12.3
		c0,0-9.5-2.7-12.3-5.5S95.5,194.2,95.5,194.2z"/>
	<path class="st3" d="M100.9,49.7c0,0,0,1.4-4.1,1.4c-4.1,0-9.5-2.7-9.5-2.7s-1.4-1.4-1.4-6.8S72.3,17,72.3,17L62.7,6.1
		c0,0-2.7-4.1,2.7-5.5s9.5,0,9.5,0s4.1,0,9.5,10.9c5.5,10.9,8.2,16.4,8.2,16.4s2.7,5.5,4.1,9.5C98.2,41.5,100.9,47,100.9,49.7z"/>
</g>
</svg>
