<?xml version="1.0" encoding="utf-8"?>
<!-- Generator: Adobe Illustrator 24.0.1, SVG Export Plug-In . SVG Version: 6.00 Build 0)  -->
<svg version="1.1" xmlns="http://www.w3.org/2000/svg" xmlns:xlink="http://www.w3.org/1999/xlink" x="0px" y="0px"
	 viewBox="0 0 200 200" style="enable-background:new 0 0 200 200;" xml:space="preserve">
<style type="text/css">
	.st0{display:none;}
	.st1{fill:#70BD51;}
	.st2{fill:#B32E2B;}
	.st3{fill:#AD7E14;}
</style>
<g id="Layer_1" class="st0">
</g>
<g id="Layer_2">
	<path class="st1" d="M134,36c0,0,0.8,28.7-30.3,31.6C103.7,67.5,102.9,38.8,134,36z"/>
	<path class="st2" d="M103.5,172.5c0,0-20,13-40-8s-21-50-21-50s-4-42,32-51c0,0,6-1,10,0s15,5,15,5s5,3,11-1s21-4,21-4s28-1,38,36
		s-25,68-25,68s-11,11-27,9c0,0-7-2-9-4S103.5,172.5,103.5,172.5z"/>
	<path class="st3" d="M107.5,66.5c0,0,0,1-3,1s-7-2-7-2s-1-1-1-5s-10-18-10-18l-7-8c0,0-2-3,2-4s7,0,7,0s3,0,7,8s6,12,6,12s2,4,3,7
		S107.5,64.5,107.5,66.5z"/>
</g>
</svg>
