<?xml version="1.0" encoding="utf-8"?>
<!-- Generator: Adobe Illustrator 24.0.1, SVG Export Plug-In . SVG Version: 6.00 Build 0)  -->
<svg version="1.1" id="Layer_1" xmlns="http://www.w3.org/2000/svg" xmlns:xlink="http://www.w3.org/1999/xlink" x="0px" y="0px"
	 viewBox="0 0 200 200" style="enable-background:new 0 0 200 200;" xml:space="preserve">
<style type="text/css">
	.st0{fill:#FBA41A;}
	.st1{fill:#984A21;}
	.st2{fill:#EE242A;}
	.st3{fill:#FEC30A;}
	.st4{fill:#21AF12;}
	.st5{fill:#FFFFFF;}
</style>
<path class="st0" d="M192,172.1H6.7c-3.3,0-6-2.7-6-6v-15.5c0-0.9,0.6-1.5,1.5-1.5h194.4c0.9,0,1.5,0.6,1.5,1.5V166
	C198.1,169.4,195.4,172.1,192,172.1z"/>
<path class="st1" d="M193,149H5.8c-0.8,0-1.5-0.6-1.5-1.5v-25.6c0-0.9,0.8-1.5,1.5-1.5H193c0.9,0,1.5,0.6,1.5,1.5v25.6
	C194.5,148.4,193.7,149,193,149z"/>
<path class="st2" d="M192.7,122.2H9.6c-2,0-3.6-1.7-3.6-3.6v-7.2c0-2,1.7-3.6,3.6-3.6h182.9c2,0,3.6,1.7,3.6,3.6v7.2
	C196.3,120.5,194.6,122.2,192.7,122.2z"/>
<path class="st3" d="M47.9,107.7c0,0,78.4,17.9,96.2,28.7l31.1-28.7H47.9z"/>
<path class="st0" d="M7,107.7c-3.2,0-5.3-3-4.4-5.9c6.2-18.2,30.5-73,100.1-73c70,0,91.5,55.2,96.8,73.3c0.8,2.9-1.4,5.7-4.4,5.7H7
	V107.7z"/>
<path class="st4" d="M9.6,107.7c0,0-7.2,10.7,3.6,8s10.7-5.3,10.7-5.3s3.6-2.7,10.7,2.7s17.9,8,17.9,8s3.6,2.7,10.7-2.7
	c3-2.3,5-3.6,6.3-4.5c1.2-0.9,0.6-2.9,2.3-3.2c2.3-0.3,1.5-0.3,5.9-0.3c7.2,0,0.3,10.7,12.7,8c12.4-2.7,16,5.3,19.6-2.7
	S128,113,128,113s7.2,13.3,14.3,8c7.2-5.3,21.6-3.9,21.6-3.9s0,6.6,7.2,1.4s11.9,0,11.9,0s2.4,8,6,0c3.6-8,3.6-10.7,3.6-10.7
	L9.6,107.7L9.6,107.7z"/>
<g>
	<g>
		<g>
			
				<ellipse transform="matrix(0.4601 -0.8879 0.8879 0.4601 28.7473 195.7784)" class="st5" cx="175.3" cy="74.3" rx="0.9" ry="2.1"/>
		</g>
		<g>
			
				<ellipse transform="matrix(0.7369 -0.6761 0.6761 0.7369 -5.296 132.9235)" class="st5" cx="168.1" cy="73.3" rx="0.9" ry="2.1"/>
		</g>
		<g>
			<ellipse transform="matrix(0.3083 -0.9513 0.9513 0.3083 47.84 202.0532)" class="st5" cx="162.9" cy="68.1" rx="0.9" ry="2.1"/>
		</g>
		<g>
			<ellipse transform="matrix(0.7863 -0.6179 0.6179 0.7863 -7.4248 111.8629)" class="st5" cx="158" cy="66.7" rx="2.1" ry="0.9"/>
		</g>
		<g>
			<ellipse transform="matrix(0.9932 -0.1166 0.1166 0.9932 -6.752 18.4708)" class="st5" cx="154.5" cy="66.9" rx="2.1" ry="0.9"/>
		</g>
		<g>
			<ellipse transform="matrix(0.2841 -0.9588 0.9588 0.2841 44.6831 192.1304)" class="st5" cx="151" cy="66.1" rx="0.9" ry="2.1"/>
		</g>
		<g>
			<ellipse transform="matrix(0.8778 -0.4791 0.4791 0.8778 -10.2357 80.82)" class="st5" cx="153.3" cy="60.5" rx="0.9" ry="2.1"/>
		</g>
		<g>
			
				<ellipse transform="matrix(0.9372 -0.3487 0.3487 0.9372 -12.2728 56.6339)" class="st5" cx="151.2" cy="62.4" rx="2.1" ry="0.9"/>
		</g>
		<g>
			<ellipse transform="matrix(0.387 -0.9221 0.9221 0.387 40.2881 172.6047)" class="st5" cx="150" cy="56" rx="0.9" ry="2.1"/>
		</g>
		<g>
			
				<ellipse transform="matrix(0.2417 -0.9704 0.9704 0.2417 60.5833 191.0938)" class="st5" cx="152.6" cy="56.8" rx="2.1" ry="0.9"/>
		</g>
		<g>
			
				<ellipse transform="matrix(0.9501 -0.3118 0.3118 0.9501 -8.9325 50.8785)" class="st5" cx="154.6" cy="53.4" rx="0.9" ry="2.1"/>
		</g>
		<g>
			
				<ellipse transform="matrix(0.9972 -7.436014e-02 7.436014e-02 0.9972 -3.5646 11.3224)" class="st5" cx="150.3" cy="53.5" rx="2.1" ry="0.9"/>
		</g>
		<g>
			
				<ellipse transform="matrix(0.3859 -0.9225 0.9225 0.3859 40.3727 171.2103)" class="st5" cx="148.8" cy="55.3" rx="0.9" ry="2.1"/>
		</g>
		<g>
			
				<ellipse transform="matrix(0.7963 -0.6049 0.6049 0.7963 -3.7476 98.5249)" class="st5" cx="144.4" cy="54.8" rx="2.1" ry="0.9"/>
		</g>
		<g>
			<ellipse transform="matrix(0.929 -0.3702 0.3702 0.929 -7.518 55.5371)" class="st5" cx="140.9" cy="47.4" rx="2.1" ry="0.9"/>
		</g>
		<g>
			
				<ellipse transform="matrix(0.3473 -0.9377 0.9377 0.3473 40.6298 155.3487)" class="st5" cx="131.9" cy="48.5" rx="2.1" ry="0.9"/>
		</g>
		<g>
			
				<ellipse transform="matrix(0.9138 -0.4061 0.4061 0.9138 -8.5169 55.2032)" class="st5" cx="125.8" cy="47.7" rx="2.1" ry="0.9"/>
		</g>
		<g>
			<ellipse transform="matrix(0.9347 -0.3555 0.3555 0.9347 -6.6981 45.593)" class="st5" cx="120.7" cy="41" rx="0.9" ry="2.1"/>
		</g>
		<g>
			
				<ellipse transform="matrix(0.4176 -0.9086 0.9086 0.4176 30.0799 130.4402)" class="st5" cx="116.8" cy="41.8" rx="2.1" ry="0.9"/>
		</g>
		<g>
			
				<ellipse transform="matrix(0.9732 -0.2301 0.2301 0.9732 -8.1921 27.4913)" class="st5" cx="113.8" cy="48.9" rx="2.1" ry="0.9"/>
		</g>
		<g>
			
				<ellipse transform="matrix(0.9986 -5.308945e-02 5.308945e-02 0.9986 -2.3466 5.7624)" class="st5" cx="107.3" cy="47.1" rx="0.9" ry="2.1"/>
		</g>
		<g>
			
				<ellipse transform="matrix(0.5759 -0.8175 0.8175 0.5759 -4.2194 106.5954)" class="st5" cx="100.6" cy="57.4" rx="2.1" ry="0.9"/>
		</g>
		<g>
			
				<ellipse transform="matrix(0.8031 -0.5959 0.5959 0.8031 -19.4932 77.9651)" class="st5" cx="108.2" cy="68.5" rx="2.1" ry="0.9"/>
		</g>
		<g>
			<ellipse transform="matrix(0.8407 -0.5415 0.5415 0.8407 -17.9988 72.7543)" class="st5" cx="114.7" cy="67" rx="0.9" ry="2.1"/>
		</g>
		<g>
			<ellipse transform="matrix(0.3031 -0.953 0.953 0.3031 25.1779 154.2682)" class="st5" cx="118.1" cy="59.9" rx="2.1" ry="0.9"/>
		</g>
		<g>
			<ellipse transform="matrix(0.3543 -0.9351 0.9351 0.3543 31.8542 150.5803)" class="st5" cx="125" cy="52.2" rx="2.1" ry="0.9"/>
		</g>
		<g>
			<ellipse transform="matrix(0.7256 -0.6881 0.6881 0.7256 1.0832 96.2408)" class="st5" cx="121.2" cy="46.8" rx="2.1" ry="0.9"/>
		</g>
		<g>
			
				<ellipse transform="matrix(0.9956 -9.352310e-02 9.352310e-02 0.9956 -3.0396 10.8487)" class="st5" cx="114.2" cy="37.9" rx="0.9" ry="2.1"/>
		</g>
		<g>
			
				<ellipse transform="matrix(0.9408 -0.3391 0.3391 0.9408 -5.1875 38.1449)" class="st5" cx="106.6" cy="33.9" rx="0.9" ry="2.1"/>
		</g>
		<g>
			<ellipse transform="matrix(0.9726 -0.2325 0.2325 0.9726 -6.8049 23.9914)" class="st5" cx="98.4" cy="40.9" rx="0.9" ry="2.1"/>
		</g>
		<g>
			<ellipse transform="matrix(0.6415 -0.7671 0.7671 0.6415 5.2629 83.7178)" class="st5" cx="92.2" cy="36.2" rx="2.1" ry="0.9"/>
		</g>
		<g>
			<ellipse transform="matrix(0.4872 -0.8733 0.8733 0.4872 13.2837 96.6281)" class="st5" cx="88.9" cy="37" rx="0.9" ry="2.1"/>
		</g>
		<g>
			<ellipse transform="matrix(0.5242 -0.8516 0.8516 0.5242 5.4341 93.3766)" class="st5" cx="86.3" cy="41.8" rx="0.9" ry="2.1"/>
		</g>
		<g>
			<ellipse transform="matrix(0.9197 -0.3925 0.3925 0.9197 -7.9171 34.8898)" class="st5" cx="81.4" cy="36.8" rx="0.9" ry="2.1"/>
		</g>
		<g>
			<ellipse transform="matrix(0.9613 -0.2755 0.2755 0.9613 -9.4741 23.0378)" class="st5" cx="77.3" cy="45.2" rx="2.1" ry="0.9"/>
		</g>
		<g>
			<ellipse transform="matrix(0.3826 -0.9239 0.9239 0.3826 1.3572 97.3974)" class="st5" cx="73.6" cy="47.7" rx="0.9" ry="2.1"/>
		</g>
		<g>
			<ellipse transform="matrix(0.994 -0.109 0.109 0.994 -5.1048 7.952)" class="st5" cx="70.2" cy="50.7" rx="0.9" ry="2.1"/>
		</g>
		<g>
			<ellipse transform="matrix(0.746 -0.666 0.666 0.746 -17.0563 56.032)" class="st5" cx="64.9" cy="50.4" rx="0.9" ry="2.1"/>
		</g>
		<g>
			
				<ellipse transform="matrix(0.8559 -0.5171 0.5171 0.8559 -21.5178 41.3451)" class="st5" cx="63.4" cy="59.3" rx="2.1" ry="0.9"/>
		</g>
		<g>
			
				<ellipse transform="matrix(0.997 -7.729053e-02 7.729053e-02 0.997 -4.9929 4.9144)" class="st5" cx="61" cy="67" rx="2.1" ry="0.9"/>
		</g>
		<g>
			<ellipse transform="matrix(0.749 -0.6626 0.6626 0.749 -29.6726 65.2268)" class="st5" cx="71.3" cy="71.8" rx="0.9" ry="2.1"/>
		</g>
		<g>
			<ellipse transform="matrix(0.985 -0.1727 0.1727 0.985 -10.4303 14.3548)" class="st5" cx="77.3" cy="67.1" rx="0.9" ry="2.1"/>
		</g>
		<g>
			<ellipse transform="matrix(0.9688 -0.2479 0.2479 0.9688 -13.0078 20.6415)" class="st5" cx="75.5" cy="62" rx="0.9" ry="2.1"/>
		</g>
		<g>
			<ellipse transform="matrix(0.9904 -0.1381 0.1381 0.9904 -7.0395 11.6501)" class="st5" cx="80.4" cy="56.6" rx="0.9" ry="2.1"/>
		</g>
		<g>
			
				<ellipse transform="matrix(0.7045 -0.7097 0.7097 0.7045 -16.9535 64.7652)" class="st5" cx="69.3" cy="52.7" rx="0.9" ry="2.1"/>
		</g>
		<g>
			<ellipse transform="matrix(0.6022 -0.7984 0.7984 0.6022 -9.1264 72.4554)" class="st5" cx="68.1" cy="45.4" rx="0.9" ry="2.1"/>
		</g>
		<g>
			<ellipse transform="matrix(0.6228 -0.7824 0.7824 0.6228 -14.1594 66.524)" class="st5" cx="61.9" cy="47.9" rx="2.1" ry="0.9"/>
		</g>
		<g>
			<ellipse transform="matrix(0.1856 -0.9826 0.9826 0.1856 -4.893 98.5875)" class="st5" cx="57" cy="52.2" rx="0.9" ry="2.1"/>
		</g>
		<g>
			
				<ellipse transform="matrix(0.3118 -0.9502 0.9502 0.3118 -14.6345 85.0363)" class="st5" cx="51.4" cy="52.6" rx="0.9" ry="2.1"/>
		</g>
		<g>
			
				<ellipse transform="matrix(0.7113 -0.7029 0.7029 0.7113 -22.3591 45.0548)" class="st5" cx="43.7" cy="49.7" rx="2.1" ry="0.9"/>
		</g>
		<g>
			<ellipse transform="matrix(0.9329 -0.36 0.36 0.9329 -17.8373 18.2211)" class="st5" cx="40" cy="57" rx="2.1" ry="0.9"/>
		</g>
		<g>
			
				<ellipse transform="matrix(0.9993 -3.765449e-02 3.765449e-02 0.9993 -2.257 1.4137)" class="st5" cx="36.4" cy="60.6" rx="0.9" ry="2.1"/>
		</g>
		<g>
			<ellipse transform="matrix(0.8357 -0.5491 0.5491 0.8357 -29.8651 31.0838)" class="st5" cx="37" cy="65.5" rx="0.9" ry="2.1"/>
		</g>
		<g>
			<ellipse transform="matrix(0.4101 -0.912 0.912 0.4101 -43.7119 73.6856)" class="st5" cx="35.1" cy="70.6" rx="0.9" ry="2.1"/>
		</g>
	</g>
</g>
<g>
	<g>
		<g>
			
				<ellipse transform="matrix(9.171171e-02 -0.9958 0.9958 9.171171e-02 76.3666 218.7131)" class="st5" cx="158.1" cy="67.5" rx="0.9" ry="2.1"/>
		</g>
		<g>
			<ellipse transform="matrix(0.2934 -0.956 0.956 0.2934 50.5424 189.8867)" class="st5" cx="153.7" cy="60.8" rx="2.1" ry="0.9"/>
		</g>
		<g>
			
				<ellipse transform="matrix(0.2291 -0.9734 0.9734 0.2291 49.6626 191.4091)" class="st5" cx="145.7" cy="64.4" rx="2.1" ry="0.9"/>
		</g>
		<g>
			<ellipse transform="matrix(0.6646 -0.7472 0.7472 0.6646 1.219 125.6886)" class="st5" cx="140.6" cy="61.5" rx="0.9" ry="2.1"/>
		</g>
		<g>
			
				<ellipse transform="matrix(0.9998 -1.948957e-02 1.948957e-02 0.9998 -1.1411 2.6491)" class="st5" cx="135.3" cy="59.9" rx="0.9" ry="2.1"/>
		</g>
		<g>
			
				<ellipse transform="matrix(0.9657 -0.2598 0.2598 0.9657 -11.7395 36.3349)" class="st5" cx="131.6" cy="62.6" rx="0.9" ry="2.1"/>
		</g>
		<g>
			
				<ellipse transform="matrix(0.1267 -0.9919 0.9919 0.1267 53.6403 173.6598)" class="st5" cx="125.4" cy="56.4" rx="0.9" ry="2.1"/>
		</g>
		<g>
			
				<ellipse transform="matrix(0.3677 -0.9299 0.9299 0.3677 20.5356 147.1358)" class="st5" cx="118.5" cy="58.5" rx="0.9" ry="2.1"/>
		</g>
		<g>
			<ellipse transform="matrix(0.893 -0.45 0.45 0.893 -14.2335 57.1301)" class="st5" cx="113" cy="58.5" rx="2.1" ry="0.9"/>
		</g>
		<g>
			
				<ellipse transform="matrix(0.4952 -0.8688 0.8688 0.4952 2.6891 124.2817)" class="st5" cx="108.3" cy="59.8" rx="0.9" ry="2.1"/>
		</g>
		<g>
			<ellipse transform="matrix(0.787 -0.617 0.617 0.787 -15.8494 75.7002)" class="st5" cx="101.7" cy="60.8" rx="0.9" ry="2.1"/>
		</g>
		<g>
			<ellipse transform="matrix(0.509 -0.8607 0.8607 0.509 -6.7208 111.84)" class="st5" cx="94.7" cy="61.8" rx="2.1" ry="0.9"/>
		</g>
		<g>
			
				<ellipse transform="matrix(0.8637 -0.5041 0.5041 0.8637 -18.4703 53.9236)" class="st5" cx="90.4" cy="61.1" rx="2.1" ry="0.9"/>
		</g>
		<g>
			<ellipse transform="matrix(0.8587 -0.5124 0.5124 0.8587 -18.9737 52.6595)" class="st5" cx="86" cy="60.7" rx="0.9" ry="2.1"/>
		</g>
		<g>
			<ellipse transform="matrix(0.87 -0.493 0.493 0.87 -20.6483 49.6054)" class="st5" cx="83.8" cy="64" rx="0.9" ry="2.1"/>
		</g>
		<g>
			
				<ellipse transform="matrix(8.908701e-02 -0.996 0.996 8.908701e-02 9.8449 135.0699)" class="st5" cx="78.8" cy="62.2" rx="2.1" ry="0.9"/>
		</g>
		<g>
			
				<ellipse transform="matrix(0.8527 -0.5225 0.5225 0.8527 -21.2025 46.9975)" class="st5" cx="72.7" cy="61.1" rx="2.1" ry="0.9"/>
		</g>
		<g>
			
				<ellipse transform="matrix(0.9279 -0.3727 0.3727 0.9279 -18.2706 29.7353)" class="st5" cx="67.8" cy="62.1" rx="2.1" ry="0.9"/>
		</g>
		<g>
			
				<ellipse transform="matrix(0.5182 -0.8553 0.8553 0.5182 -27.3127 86.0624)" class="st5" cx="62.7" cy="67.3" rx="2.1" ry="0.9"/>
		</g>
		<g>
			
				<ellipse transform="matrix(0.1905 -0.9817 0.9817 0.1905 -21.351 116.2481)" class="st5" cx="59.8" cy="71.1" rx="2.1" ry="0.9"/>
		</g>
		<g>
			<ellipse transform="matrix(0.1181 -0.993 0.993 0.1181 -21.0928 117.7736)" class="st5" cx="55.8" cy="70.8" rx="2.1" ry="0.9"/>
		</g>
		<g>
			<ellipse transform="matrix(0.9674 -0.2533 0.2533 0.9674 -15.664 15.3101)" class="st5" cx="51.6" cy="68.5" rx="2.1" ry="0.9"/>
		</g>
		<g>
			
				<ellipse transform="matrix(0.9764 -0.2159 0.2159 0.9764 -15.4087 12.1415)" class="st5" cx="47.9" cy="76.6" rx="2.1" ry="0.9"/>
		</g>
		<g>
			<ellipse transform="matrix(0.3677 -0.93 0.93 0.3677 -45.2861 84.5287)" class="st5" cx="39.5" cy="75.6" rx="2.1" ry="0.9"/>
		</g>
		<g>
			<ellipse transform="matrix(0.898 -0.44 0.44 0.898 -31.2903 24.8453)" class="st5" cx="37.9" cy="79.9" rx="2.1" ry="0.9"/>
		</g>
		<g>
			
				<ellipse transform="matrix(0.1539 -0.9881 0.9881 0.1539 -48.2041 97.3551)" class="st5" cx="32.7" cy="76.8" rx="2.1" ry="0.9"/>
		</g>
	</g>
</g>
<g>
	<g>
		<g>
			
				<ellipse transform="matrix(0.9718 -0.2359 0.2359 0.9718 -12.3776 26.8311)" class="st5" cx="105.9" cy="65.1" rx="0.9" ry="2.1"/>
		</g>
		<g>
			
				<ellipse transform="matrix(8.282923e-03 -1 1 8.282923e-03 35.4641 163.4525)" class="st5" cx="100.1" cy="63.8" rx="0.9" ry="2.1"/>
		</g>
		<g>
			<ellipse transform="matrix(0.6223 -0.7828 0.7828 0.6223 -8.0937 97.2003)" class="st5" cx="96.7" cy="57" rx="2.1" ry="0.9"/>
		</g>
		<g>
			<ellipse transform="matrix(0.9892 -0.1464 0.1464 0.9892 -6.6774 14.5289)" class="st5" cx="95.4" cy="52.6" rx="2.1" ry="0.9"/>
		</g>
		<g>
			<ellipse transform="matrix(0.4956 -0.8685 0.8685 0.4956 -1.2551 104.1247)" class="st5" cx="89" cy="53.1" rx="2.1" ry="0.9"/>
		</g>
		<g>
			<ellipse transform="matrix(0.7652 -0.6437 0.6437 0.7652 -7.9117 68.8037)" class="st5" cx="90.4" cy="45.2" rx="0.9" ry="2.1"/>
		</g>
		<g>
			<ellipse transform="matrix(0.1455 -0.9894 0.9894 0.1455 39.4587 124.8248)" class="st5" cx="92" cy="39.6" rx="2.1" ry="0.9"/>
		</g>
		<g>
			<ellipse transform="matrix(0.4637 -0.886 0.886 0.4637 14.1167 96.6853)" class="st5" cx="86.9" cy="36.7" rx="2.1" ry="0.9"/>
		</g>
	</g>
</g>
</svg>
