<?xml version="1.0" encoding="utf-8"?>
<!-- Generator: Adobe Illustrator 24.0.1, SVG Export Plug-In . SVG Version: 6.00 Build 0)  -->
<svg version="1.1" id="Layer_1" xmlns="http://www.w3.org/2000/svg" xmlns:xlink="http://www.w3.org/1999/xlink" x="0px" y="0px"
	 viewBox="0 0 1214 1280" style="enable-background:new 0 0 1214 1280;" xml:space="preserve">
<style type="text/css">
	.st0{fill:#70BD51;}
	.st1{fill:#AD7E14;}
	.st2{fill:#5BAA2D;}
</style>
<path class="st0" d="M325.7,1.7c-0.9,1-2.9,1.9-4.4,1.9c-2.9,0-2.8,0.3,3.8,19.9c3.7,11,12.8,41.9,20.2,68.6
	c14.8,53.8,23.6,81.6,32.1,101.6c21.3,51,49.9,83,88.8,99.1c18.3,7.6,44.7,12.6,66.9,12.7h11.2l-0.6-37.8
	c-0.8-40.9-2.9-60.8-9.3-86.5c-13.8-55.5-35.4-88.2-75.5-115c-13.1-8.8-39.5-22.3-67.3-34.5c-19.4-8.6-51-24.2-58.4-28.9
	C327.3-0.7,327.7-0.7,325.7,1.7z"/>
<path class="st1" d="M581.2,198c-7.9,15.5-14,31.6-17,44.7c-3,12.8-5.2,37.6-4.2,48.3l0.8,8.1l10,3.4c8.4,2.8,10.7,3,13.3,1.9
	c1.6-0.8,2.9-1.9,2.7-2.4c-8-15.5-8-15.2-7.9-33.9c0-19.8,0.5-21.6,12.9-55.3c9.1-24.5,9-23.1,2.9-25c-2.9-0.8-5.7-1.5-6.5-1.5
	C587.7,186.3,584.4,191.6,581.2,198z"/>
<path class="st2" d="M571.2,313.2c-31,2.7-57.7,11.4-75.4,24.7c-26.8,20.3-54.3,66.5-64.2,107.6c-1.8,7.1-5.7,26.9-8.9,44
	c-8.6,46.1-12.7,61-23.1,84.4c-11.8,26.5-28.2,52.7-65.1,104.8c-23.3,32.7-41.6,60.3-51,76.6c-21.4,37.7-34.4,72.3-41.2,111
	c-3,16.9-3.3,22.1-3.8,62.8l-0.4,37.1c0,4.9,0.6,9.8,1.9,14.5l3.6,12.6c49,170.2,154.8,264.2,321.3,285.5c17.4,2.3,96.3,1,113.6-1.8
	c63.3-10.2,108.4-26.6,150.5-54.8c85.3-56.8,132-150.5,145.3-290.4c2.4-25.9,2.2-67.1-0.5-83.7c-5.5-34-13.6-62.2-26.5-92.5
	c-13.5-31.5-29.8-59.9-65.6-113.6c-29.8-44.8-42.4-65.1-60.4-97.8c-46.2-83.9-55.1-98.8-74.6-126.9c-36.7-52.4-62.6-78.8-90.3-92.1
	c-11.9-5.8-30.3-10.3-48.5-11.8C591.4,311.8,588.1,311.8,571.2,313.2z"/>
</svg>
