<?xml version="1.0" encoding="utf-8"?>
<!-- Generator: Adobe Illustrator 24.0.1, SVG Export Plug-In . SVG Version: 6.00 Build 0)  -->
<svg version="1.1" id="Layer_1" xmlns="http://www.w3.org/2000/svg" xmlns:xlink="http://www.w3.org/1999/xlink" x="0px" y="0px"
	 viewBox="0 0 1214 1280" style="enable-background:new 0 0 1214 1280;" xml:space="preserve">
<style type="text/css">
	.st0{fill:#70BD51;}
	.st1{fill:#AD7E14;}
	.st2{fill:#5BAA2D;}
</style>
<path class="st0" d="M385.3,136.9c-0.7,0.8-2.3,1.5-3.5,1.5c-2.3,0-2.2,0.2,3,15.7c2.9,8.7,10.1,33,15.9,54.1
	c11.7,42.4,18.6,64.3,25.3,80.1c16.8,40.2,39.3,65.4,70,78.1c14.4,6,35.2,9.9,52.7,10h8.8l-0.5-29.8c-0.6-32.2-2.3-47.9-7.3-68.2
	c-10.9-43.7-27.9-69.5-59.5-90.6c-10.3-6.9-31.1-17.6-53-27.2c-15.3-6.8-40.2-19.1-46-22.8C386.6,135,386.9,135,385.3,136.9z"/>
<path class="st1" d="M586.7,291.6c-6.2,12.2-11,24.9-13.4,35.2c-2.4,10.1-4.1,29.6-3.3,38.1l0.6,6.4l7.9,2.7
	c6.6,2.2,8.4,2.4,10.5,1.5c1.3-0.6,2.3-1.5,2.1-1.9c-6.3-12.2-6.3-12-6.2-26.7c0-15.6,0.4-17,10.2-43.6c7.2-19.3,7.1-18.2,2.3-19.7
	c-2.3-0.6-4.5-1.2-5.1-1.2C591.8,282.4,589.2,286.6,586.7,291.6z"/>
<path class="st2" d="M578.8,382.4c-24.4,2.1-45.5,9-59.4,19.5c-21.1,16-42.8,52.4-50.6,84.8c-1.4,5.6-4.5,21.2-7,34.7
	c-6.8,36.3-10,48.1-18.2,66.5c-9.3,20.9-22.2,41.5-51.3,82.6c-18.4,25.8-32.8,47.5-40.2,60.4c-16.9,29.7-27.1,57-32.5,87.5
	c-2.4,13.3-2.6,17.4-3,49.5l-0.3,29.2c0,3.9,0.5,7.7,1.5,11.4l2.8,9.9c38.6,134.1,122,208.2,253.2,225c13.7,1.8,75.9,0.8,89.5-1.4
	c49.9-8,85.4-21,118.6-43.2c67.2-44.8,104-118.6,114.5-228.9c1.9-20.4,1.7-52.9-0.4-66c-4.3-26.8-10.7-49-20.9-72.9
	c-10.6-24.8-23.5-47.2-51.7-89.5c-23.5-35.3-33.4-51.3-47.6-77.1c-36.4-66.1-43.4-77.9-58.8-100c-28.9-41.3-49.3-62.1-71.2-72.6
	c-9.4-4.6-23.9-8.1-38.2-9.3C594.7,381.3,592.1,381.3,578.8,382.4z"/>
</svg>
