<?xml version="1.0" encoding="utf-8"?>
<!-- Generator: Adobe Illustrator 24.0.1, SVG Export Plug-In . SVG Version: 6.00 Build 0)  -->
<svg version="1.1" id="Layer_1" xmlns="http://www.w3.org/2000/svg" xmlns:xlink="http://www.w3.org/1999/xlink" x="0px" y="0px"
	 viewBox="0 0 200 200" style="enable-background:new 0 0 200 200;" xml:space="preserve">
<style type="text/css">
	.st0{fill:#FCC24A;}
	.st1{fill:#FA922D;}
	.st2{fill:#E94401;}
	.st3{fill:#DE2D02;}
	.st4{fill:#FEFEFE;}
	.st5{fill:#6FC749;}
</style>
<g>
	<path class="st0" d="M61.5,172.6c-6.3,3.6-13.2,6.5-19.7,9.6c-11.6,5.6-23.3,11-34.9,16.6c-0.6,0.4-1.3,0.6-2.6,1.2
		c7-20,14-39.2,20.8-58.6c4.5,1.8,9.2,2.2,13.9,1.3c15.7-3.1,24.8-16.1,22.6-32C60.1,101.5,52,92,43.5,90c3.2-9,6.3-18.2,9.5-27.3
		c2.2-6.2,4.6-12.6,6.8-18.8c0.7,4.8,2.9,9,6.2,12.7c2.1,2.3,4.3,4.6,7.6,5.3l0,0c0.2,0.5,0.6,0.5,0.9,0.5c3.1,2.6,6.3,3.4,10,1.3
		c1.4,0,2.7,0.1,4.1,0c6.8-0.2,12.8,1.6,17.9,6.5c-0.5,0.6-1.2,0.4-1.8,0.5c-13.2,0.8-22.7,14.2-19.2,27c2.3,8.5,7.8,13.9,16.4,15.7
		c8.7,1.9,15.9-0.8,21.6-7.6c3.3,2.1,6.8,4,10.7,4.8c-0.9,7.3,2.7,8.7,7,9c3.5,0.4,6.6-1.1,9.3-3.2c2.3,1.8,4.3,3.8,6.5,5.9
		c1.1,1.2,1.5,2.9,3.3,3.3c-5.8,2.8-11.5,5.6-17.3,8.5c-11.4,5.4-22.8,10.8-34.2,16.2c-4.9-10.1-14.9-15.7-26.1-14.9
		c-10.3,0.8-19.5,8.5-22.7,18.4C58.2,160.2,59.1,166.4,61.5,172.6z M26.6,164.3c-0.4,2,0.6,2.5,2.7,2c3.9-0.8,3.9-0.8,4.7,3.1
		c0,0.1,0,0.1,0.1,0.2c1.2,5.3,1.2,5.3,6.5,4c2-0.5,4.7-0.5,5.6-1.6c1.1-1.4-0.5-3.9-0.9-5.9c-0.8-3.5-0.8-3.5,2.5-4.3
		c2.8-0.7,2.9-1.1,1.5-3.6c-2.8-4.9-8.3-7.3-14.1-5.8C30.4,153.5,26.6,158.6,26.6,164.3z M77.6,78.3c0-2.7-0.7-5.2-2-7
		c-0.8-1.3-1.4-1.6-2.7-0.2c-3.1,3.1-3.2,2.9-6.1,0c-4-4-4-4-8,0c-4.3,4.2-4.3,4.2,0,8.7c2.6,2.6,2.6,2.7-0.1,5.3
		c-1.4,1.3-1.5,2.2,0.2,3.3c4,2.3,8.1,2.7,12.2,0.6C75.4,86.6,77.4,83,77.6,78.3z M123.6,119.5c0.1-3.5,0.1-3.5-2.6-3.4
		c-4.7,0.2-9.4,4.6-10.3,9.8c-0.9,5.1,2,10.8,6.5,12.9c4,1.9,4.2,1.8,4.6-2.6c0.1-1.6,0.7-2.4,2.3-2.1c2.1,0.4,4.2,0.4,6.2,0.7
		c1.2,0.2,1.5-0.1,1.6-1.3c0.2-2.1,0.5-4.3,0.8-6.5c0.5-3.9,0.5-3.9-3.4-4.1c-0.9-0.1-1.9-0.5-2.8-0.4
		C123.7,122.9,123,121.6,123.6,119.5z M82.6,112.3c-0.9,0-1.6,0-2.2,0c-5.6,0.5-8.3,5.3-5.8,10.2c1.9,3.8,5.3,5.3,9.2,5.9
		c3.6,0.6,6.3-1.2,7.9-5.2c1.4-4,0.4-7.6-2.8-9.3C86.8,112.9,84.7,111.9,82.6,112.3z"/>
	<path class="st1" d="M65.3,28.8c3.3-9.2,6.6-18.3,9.6-27.6c0.6-1.9,1.6-1.1,2.6-0.7c9.4,3.4,18.4,7.4,27.3,12.1
		c21.1,11.3,39.9,25.7,56.2,43.4c14,15.2,25.5,32.1,34.7,50.6c0.7,1.5,0.6,2.1-1.1,2.8c-8.7,4-17.3,8.1-25.8,12.2
		c-0.1-0.4-0.1-0.6-0.2-0.9c-5.6-10.9-11.9-21.4-19.3-31.1c-10.3-13.6-22.4-25.4-36.1-35.6C101.9,45.6,89.8,38.8,77,33.3
		C73.3,31.5,69.4,29.7,65.3,28.8z"/>
	<path class="st2" d="M65.3,28.8c4.1,0.9,8,2.7,11.7,4.3c12.8,5.5,24.9,12.3,36.1,20.7c13.6,10.2,25.6,22,36.1,35.6
		c7.5,9.8,13.6,20.3,19.3,31.1c0.1,0.2,0.2,0.6,0.2,0.9c-2.7,1.3-5.5,2.7-8.2,4c-1.8-0.4-2.2-2.2-3.3-3.3c-2-2.1-4.1-4.1-6.5-5.9
		c0.2-0.4,0.6-0.8,0.8-1.2c2-3.1,1.5-6.5-1.2-9.8c-2.1-2.5-4.9-3.1-8.3-1.9c-3.5,1.3-6,3.6-7.6,6.9c-3.9-0.8-7.4-2.6-10.7-4.8
		c4.3-5.6,5.9-12,4.1-18.9c-1.4-5.2-4.5-9.3-8.8-12.5c-3.8-2.7-8.1-3.3-12.5-4.1c-4.9-4.8-11-6.7-17.9-6.5c-1.4,0-2.7,0-4.1,0
		c2.9-3.8,3.3-7.8,1.5-12.1c-1.8-4.6-5.9-6.3-10.3-4.6c-4.7,1.9-6.3,5.6-4.3,10.3c0.6,1.5,1.4,3.1,2.2,4.5c-3.3-0.7-5.5-2.9-7.6-5.3
		c-3.2-3.6-5.4-7.8-6.2-12.7C61.6,38.9,63.5,33.9,65.3,28.8z"/>
	<path class="st3" d="M43.5,90c8.3,2,16.6,11.5,18,20.7c2.3,15.9-6.7,28.9-22.6,32c-4.6,0.9-9.3,0.5-13.9-1.3
		c5.8-16.2,11.5-32.4,17.4-48.8C42.8,91.8,43.2,90.8,43.5,90z M49.8,111.5c0-2.7-1.4-4.1-3.2-4c-1.4,0.1-3.1,1.8-2.9,3.3
		c0.1,1.9,1.4,3.1,3.4,2.9C49,113.6,49.8,112.5,49.8,111.5z M39,124.9c-1.3,0.1-2.2,0.7-2.2,2.2s0.8,2.5,2.3,2.5s2.3-0.9,2.3-2.5
		C41.5,125.6,40.6,124.9,39,124.9z M47.9,123.2c0.1,1.3,0.6,2.2,2,2.1c1.3-0.1,2.3-0.7,2.2-2.2c-0.1-1.3-0.9-1.9-2.2-1.9
		C48.5,121,47.8,121.7,47.9,123.2z M39.4,114.9c-0.9,0.2-1.6,0.8-1.6,1.8c0,1.1,0.8,1.6,1.6,1.8c1.1,0.1,1.6-0.7,1.5-1.6
		C41,115.6,40.4,115.2,39.4,114.9z"/>
	<path class="st3" d="M61.5,172.6c-2.5-6.1-3.3-12.3-1.3-18.9c3.1-10,12.3-17.6,22.7-18.4c11.2-0.8,21.1,4.8,26.1,14.9
		c-13.2,6.3-26.3,12.6-39.5,18.9C66.8,170.3,64.1,171.4,61.5,172.6z M93.5,147.5c0-2.1-1.2-3.5-2.9-3.5c-1.6,0-3.2,1.6-3.2,3.3
		c0,1.8,1.6,3.3,3.3,3.1C92.4,150.3,93.7,149.4,93.5,147.5z M72.1,162.3c2,0.1,3.2-0.7,3.3-2.6c0.2-1.5-1.3-3.2-2.9-3.2
		c-1.5-0.1-3.3,1.4-3.2,2.9C69.5,161.2,70.3,162.4,72.1,162.3z M74.1,145.4c0,1.6,1.1,2.4,2.5,2.4c1.6,0,2.6-1.2,2.6-2.7
		c0-1.6-1.2-2.5-2.7-2.5C74.8,142.7,74.1,143.7,74.1,145.4z M83.4,155c1.1-0.1,1.4-0.8,1.4-1.9c0-1.2-0.7-1.5-1.8-1.5
		c-0.9,0-1.5,0.5-1.5,1.4C81.5,154.3,82.2,154.9,83.4,155z"/>
	<path class="st3" d="M106.5,70.2c4.3,0.8,8.7,1.4,12.5,4.1c4.3,3.2,7.4,7.2,8.8,12.5c1.8,6.9,0.2,13.3-4.1,18.9
		c-5.8,6.8-12.9,9.5-21.6,7.6c-8.6-1.9-14-7.3-16.4-15.7c-3.6-12.8,6-26.2,19.2-27C105.4,70.5,106.1,70.8,106.5,70.2z M114.4,83.1
		c-0.2-1.5-1.1-2.7-2.9-2.7s-2.8,1.1-2.8,2.9c0,2,1.3,2.7,2.9,2.8C113.3,86,114.2,85,114.4,83.1z M95.5,96.8c1.3,0,2.3-0.8,2.3-2.6
		c0-1.5-0.9-2.6-2.6-2.6c-1.8-0.1-2.7,0.9-2.7,2.7C92.7,95.8,93.2,96.8,95.5,96.8z M98.8,78.9c-1.2,0.2-2.2,0.8-2.2,2.2
		c0,1.4,1.1,2.5,2.5,2.3c1.3-0.1,2.1-1.1,2.1-2.5C101.2,79.6,100.3,79,98.8,78.9z M105.1,95.9c-1.8,0-2.8,0.6-2.8,2.1
		c0,1.3,0.6,2.1,2,2.2c1.3,0,2.5-0.5,2.5-2C106.8,97.1,106.4,95.8,105.1,95.9z M114.2,96.2c1.2-0.2,2-0.9,2-2.1s-0.8-2-2-2
		c-1.3,0-1.9,0.9-1.9,2.1C112.2,95.4,113.1,96,114.2,96.2z M105.1,87.1c-1.3,0.1-1.9,0.6-1.9,1.5s0.7,1.3,1.6,1.3
		c1.1,0,1.5-0.6,1.4-1.5C106.3,87.6,105.7,87.1,105.1,87.1z"/>
	<path class="st4" d="M26.6,164.3c0-5.6,3.8-10.8,8.7-12.1c5.8-1.5,11.3,0.8,14.1,5.8c1.4,2.5,1.3,2.9-1.5,3.6
		c-3.4,0.8-3.3,0.8-2.5,4.3c0.5,2,2,4.5,0.9,5.9c-0.9,1.3-3.6,1.2-5.6,1.6c-5.3,1.3-5.4,1.3-6.5-4c0-0.1,0-0.1-0.1-0.2
		c-0.9-3.9-0.9-4-4.7-3.1C27.2,166.6,26.2,166.3,26.6,164.3z"/>
	<path class="st4" d="M77.6,78.3c-0.1,4.7-2.2,8.3-6.6,10.5c-4.1,2.1-8.2,1.8-12.2-0.6c-1.8-1.1-1.6-2-0.2-3.3
		c2.7-2.6,2.7-2.7,0.1-5.3c-4.3-4.5-4.3-4.5,0-8.7c4.1-4,4.1-4,8,0c3.1,3.1,3.2,3.2,6.1,0c1.3-1.3,1.9-0.9,2.7,0.2
		C76.8,73.1,77.6,75.5,77.6,78.3z"/>
	<path class="st4" d="M123.6,119.5c-0.6,2,0,3.3,2.8,3.1c0.9-0.1,1.9,0.2,2.8,0.4c3.9,0.2,4,0.4,3.4,4.1c-0.2,2.1-0.6,4.3-0.8,6.5
		c-0.1,1.2-0.5,1.5-1.6,1.3c-2.1-0.4-4.2-0.5-6.2-0.7c-1.6-0.2-2.2,0.5-2.3,2.1c-0.4,4.3-0.6,4.5-4.6,2.6c-4.5-2.1-7.4-8-6.5-12.9
		c0.9-5.1,5.6-9.5,10.3-9.8C123.8,116,123.8,116,123.6,119.5z"/>
	<path class="st5" d="M134.4,110.5c1.5-3.4,4.1-5.8,7.6-6.9c3.4-1.2,6.2-0.6,8.3,1.9c2.7,3.3,3.2,6.7,1.2,9.8
		c-0.2,0.4-0.5,0.8-0.8,1.2c-2.7,2.1-5.9,3.5-9.3,3.2C137.1,119.2,133.4,117.8,134.4,110.5z"/>
	<path class="st5" d="M73.6,61.9c-0.7-1.5-1.5-2.9-2.2-4.5c-2-4.7-0.4-8.5,4.3-10.3c4.6-1.8,8.6,0,10.3,4.6
		c1.6,4.3,1.4,8.3-1.5,12.1c-3.6,2.1-6.9,1.3-10-1.3C74.3,61.9,74.1,61.7,73.6,61.9L73.6,61.9z"/>
	<path class="st5" d="M82.6,112.3c2.1-0.5,4.1,0.7,6.1,1.6c3.2,1.6,4.2,5.3,2.8,9.3s-4.1,5.9-7.9,5.2c-3.9-0.7-7.3-2.1-9.2-5.9
		c-2.6-5.1,0.1-9.8,5.8-10.2C81,112.2,81.6,112.3,82.6,112.3z"/>
	<path class="st2" d="M73.6,61.8c0.5-0.1,0.8,0.1,0.9,0.5C74.2,62.3,73.7,62.3,73.6,61.8z"/>
	<path class="st1" d="M49.8,111.5c0,0.9-0.9,2.1-2.8,2.2c-1.9,0.1-3.3-1.2-3.4-2.9c0-1.4,1.5-3.2,2.9-3.3
		C48.5,107.5,49.8,108.8,49.8,111.5z"/>
	<path class="st1" d="M39,124.9c1.6,0,2.6,0.7,2.6,2.2s-0.8,2.5-2.3,2.5c-1.5,0-2.3-0.9-2.3-2.5C36.7,125.7,37.6,125,39,124.9z"/>
	<path class="st1" d="M47.9,123.2c-0.1-1.4,0.6-2.1,2-2.1c1.3,0,2.2,0.6,2.2,1.9c0.1,1.5-1.1,2.1-2.2,2.2
		C48.5,125.4,47.9,124.3,47.9,123.2z"/>
	<path class="st1" d="M39.4,114.9c0.9,0.2,1.6,0.8,1.6,1.8c0,1.1-0.6,1.8-1.5,1.6c-0.8-0.1-1.8-0.6-1.6-1.8
		C37.8,115.6,38.4,115,39.4,114.9z"/>
	<path class="st1" d="M93.5,147.5c0.2,1.9-1.1,2.8-2.8,2.9c-1.8,0.2-3.3-1.4-3.3-3.1c0-1.6,1.5-3.3,3.2-3.3
		C92.3,144,93.5,145.4,93.5,147.5z"/>
	<path class="st1" d="M72.1,162.3c-1.8,0-2.6-1.2-2.7-2.8c-0.1-1.5,1.6-3.1,3.2-2.9c1.6,0.1,3.1,1.6,2.9,3.2
		C75.3,161.6,74.1,162.4,72.1,162.3z"/>
	<path class="st1" d="M74.1,145.4c0-1.6,0.7-2.7,2.3-2.8c1.5,0,2.7,0.8,2.7,2.5c0,1.5-0.9,2.7-2.6,2.7
		C75.2,147.7,74.1,147,74.1,145.4z"/>
	<path class="st1" d="M83.4,155c-1.2-0.1-1.9-0.7-1.9-1.9c0-1.1,0.6-1.4,1.5-1.4c1.1,0,1.8,0.4,1.8,1.5
		C84.8,154.2,84.4,154.9,83.4,155z"/>
	<path class="st1" d="M114.4,83.1c-0.2,1.9-1.1,2.9-2.8,2.9c-1.6,0-3.1-0.8-2.9-2.8c0-1.9,1.1-2.8,2.8-2.9
		C113.3,80.4,114.2,81.6,114.4,83.1z"/>
	<path class="st1" d="M95.5,96.8c-2.2,0-2.8-1.1-2.9-2.6c0-1.8,0.9-2.7,2.7-2.7c1.5,0.1,2.6,1.1,2.6,2.6
		C97.8,95.9,96.8,96.7,95.5,96.8z"/>
	<path class="st1" d="M98.8,78.9c1.5,0.1,2.5,0.7,2.5,2.2c0,1.4-0.8,2.3-2.1,2.5c-1.4,0.1-2.5-0.9-2.5-2.3
		C96.5,79.7,97.6,79.1,98.8,78.9z"/>
	<path class="st1" d="M105.1,95.9c1.3-0.1,1.6,1.2,1.6,2.3c0,1.4-1.2,2-2.5,2s-2-0.9-2-2.2C102.4,96.5,103.4,95.9,105.1,95.9z"/>
	<path class="st1" d="M114.2,96.2c-1.2-0.2-2.1-0.8-2-2c0.1-1.1,0.7-2.1,1.9-2.1c1.2,0,2,0.8,2,2C116.2,95.3,115.3,96,114.2,96.2z"
		/>
	<path class="st1" d="M105.1,87.1c0.6-0.1,1.2,0.5,1.2,1.4c0,0.8-0.5,1.5-1.4,1.5c-0.9,0-1.5-0.4-1.6-1.3
		C103.2,87.7,103.8,87.2,105.1,87.1z"/>
</g>
</svg>
