<?xml version="1.0" encoding="utf-8"?>
<!-- Generator: Adobe Illustrator 24.0.1, SVG Export Plug-In . SVG Version: 6.00 Build 0)  -->
<svg version="1.1" id="Layer_1" xmlns="http://www.w3.org/2000/svg" xmlns:xlink="http://www.w3.org/1999/xlink" x="0px" y="0px"
	 viewBox="0 0 200 200" style="enable-background:new 0 0 200 200;" xml:space="preserve">
<style type="text/css">
	.st0{fill:#FEFEFE;}
	.st1{fill:#98948B;}
	.st2{fill:#747068;}
	.st3{fill:#514E47;}
	.st4{fill:#A8A59E;}
</style>
<g>
	<path class="st0" d="M200,100c0,32.8,0,65.6,0,98.4c0,1.3-0.2,1.6-1.6,1.6c-65.6,0-131.2,0-196.8,0c-1.5,0-1.7-0.4-1.7-1.7
		c0-65.5,0-131,0-196.5C0,0.4,0.2,0,1.7,0c65.6,0.1,131.2,0,196.8,0c1.4,0,1.6,0.3,1.6,1.6C200,34.4,200,67.2,200,100z M167.1,140.9
		c0.4-0.4,0.8-0.8,1.4-1.1c2-1,2.5-2.6,2.4-4.8c-0.2-5-0.2-10,0-15c0.2-4.2-0.6-7.9-2.8-11.6c-3.6-6.2-6.9-12.6-10.3-19
		c-0.1-0.1-0.1-0.3-0.2-0.4c-4.5-14.3-8.9-28.7-13.4-43c-0.7-2.4-1.5-4.8-2.2-7.2c-0.3-0.9-0.8-1.4-1.7-1.5c-4.4-2.2-9-3.6-13.5-5.3
		c-8.6-3.3-17.3-3.4-25.8,0.2c-6.2,2.6-12.1,5.6-18.2,8.4c-0.7,0.3-1.2,0.8-1.5,1.4C75.1,51.8,69,61.6,62.9,71.5
		C56.3,76.6,49.6,81.7,43,86.8c-0.7,0.4-0.9,1.1-1.2,1.7c-1.3,2.9-2.7,5.8-3.9,8.7c-2.5,5.6-5,11.2-7.5,16.9
		c-0.1,0.1-0.2,0.2-0.2,0.3c-2,1.4-4.1,2.7-6.1,4.1c-4.9,3.5-10,6.7-14.7,10.4c-1.2,0.4-0.9,1.2-0.6,2.1c3,10.3,6.1,20.7,9.1,31
		c0.3,1,0.8,1.3,1.7,1.4c4.5,0.6,9,1.3,13.5,1.9c9.3,1.3,18.5,2.5,27.8,3.7c3.9,0.5,7.8,1.4,11.8,1.3c2.2-0.1,4.5,0.2,6.6-0.6
		c0.4,0.8,1.2,0.6,1.9,0.6c4,0,8,0,12.1-0.3c5.7-0.4,11.4,0,17.1-0.4c8.3-0.5,16.6,0.1,24.9-0.4c4-0.3,7.9,0.1,11.9-0.2
		c5.1-0.3,10.3-1,15.4-1.5c3.2-0.3,6.5-0.4,9.6-0.9c5.2-0.9,10.4-2,15.6-3c4.2-0.8,4.4-1,3.9-5.3c-0.1-0.7-0.3-1.1-1-1.4
		c-6.4-2.8-12.6-5.9-17.7-10.8C171.1,144.4,168.6,143.2,167.1,140.9z"/>
	<path class="st1" d="M72.7,170.3c-4,0.1-7.9-0.8-11.8-1.3c-9.3-1.2-18.5-2.5-27.8-3.7c-4.5-0.6-9-1.3-13.5-1.9
		c-1-0.1-1.4-0.4-1.7-1.4c-3-10.4-6-20.7-9.1-31c-0.2-0.8-0.6-1.7,0.6-2.1c0.5,0.6,1.2,0.4,1.8,0.3c5.8-0.6,11.5-1.3,17.3-1.9
		c3.2-0.3,6.3-2.9,6.6-5.9c0.4-3.3-1.5-6.1-5-7.1c0-0.1,0.1-0.2,0.2-0.3c17.9-8.6,35.8-17.1,53.7-25.7C84.1,88.2,84,88,84,87.8
		c-9.5,0.4-19.1-0.5-28.6-0.4c-3.8,0.1-7.6-0.2-11.4-0.4c-0.3,0-0.6-0.2-0.9-0.3c6.6-5.1,13.2-10.2,19.9-15.3c1.3,0,2.6-0.1,3.9,0
		c2.1,0.2,3.1-0.6,4-2.5c4-8.2,8.1-16.3,12.2-24.4c0.4-0.7,0.5-1.6,1.7-1.6c2.3-0.2,4.6-0.5,6.9-0.7c7.8-0.7,15.6-1.4,23.3-2.1
		c6.7-0.6,13.4-1.1,20.1-1.8c1.8-0.2,3.7,0.2,5.3-1c0.9,0.1,1.4,0.6,1.7,1.5c0.7,2.4,1.5,4.8,2.2,7.2c-0.2,0-0.3,0.1-0.5,0.1
		c-0.6,0.1-1.3,0.1-1.9,0.2c-8.4,2.4-16.9,4.9-25.3,7.4c-1.1,0.3-1.7,1-2,2.1c-0.6,2.2-1.4,4.3-2,6.5c-0.4,1.3-1.1,2.1-2.3,2.7
		c-2.8,1.3-5.4,2.8-8.2,4.1c-1.2,0.5-1.6,1.2-1.6,2.5c0.1,3.3,0,6.6,0,9.9c0,3.5-0.4,7,0.8,10.4c-0.3,0.2-0.4,0.5-0.4,0.8
		c1,6.1,2,12.2,2.9,18.3c0.3,2.2,1.5,4.4,0.4,6.6c-2.3,4.6-4.8,9.2-7.1,13.8c-1.5,2.9-3.3,5.7-4.3,8.9l0,0c-0.5,0.3-0.4,0.7-0.4,1.2
		l0,0c-0.9,0.2-1.4,0.6-0.8,1.5c-5.2,7.5-10.4,15-15.6,22.5C74.7,167,73.3,168.4,72.7,170.3z"/>
	<path class="st2" d="M101.2,91.8c-1.2-3.4-0.7-6.9-0.8-10.4c0-3.3,0.1-6.6,0-9.9c0-1.3,0.4-2,1.6-2.5c2.8-1.3,5.4-2.8,8.2-4.1
		c1.2-0.6,1.9-1.4,2.3-2.7c0.6-2.2,1.4-4.3,2-6.5c0.3-1.1,0.9-1.7,2-2.1c8.5-2.4,16.9-4.9,25.3-7.4c0.6-0.2,1.3-0.2,1.9-0.2
		c-0.8,2.6-1.6,5.3-2.6,7.9c-3.9,11-7.9,22.1-11.8,33.1c-0.4,1.1-0.4,1.6,1.1,1.6c9.1-0.3,18.2,0.4,27.2,0.4
		c0.1,0.1,0.1,0.3,0.2,0.4c-0.7,0.7-0.8,1.6-1,2.5c-2.2,7.1-4.4,14.2-6.4,21.4c-0.5,1.8-1.6,2.2-3.2,2.3c-5,0.2-9.9,0.7-14.9,1.1
		c-7.4,0.6-14.8,1.1-22.3,1.6c-0.4,0-1-0.2-1.2,0.3c-0.2,0.5,0.3,0.8,0.7,1.1c6.3,5.3,12.7,10.7,19,16c0.7,0.6,0.7,1.1,0.4,1.9
		c-2,5.7-4,11.5-6,17.3c-1.1,3.2-2.4,6.3-3.1,9.6c-1.2,0.2-2.3,0.5-3.5,0.7c-5,0.6-10,1.1-15.1,1.7c-2.5,0.3-5.1,0.9-7.6,1.1
		c-4.8,0.4-9.7,1-14.5,1.7c-2.1,0.8-4.4,0.5-6.6,0.6c0.6-1.9,2-3.3,3.1-4.9c5.1-7.5,10.4-15,15.6-22.5c0.3-0.5,0.6-1,0.8-1.5
		c0,0,0,0,0,0c0.5-0.3,0.4-0.7,0.4-1.2c0,0,0,0,0,0c0.6,0,0.9-0.4,1.2-0.8c4.5-6.5,9.1-13.1,13.6-19.6c0.7-0.9,0.8-1.8,0.5-2.9
		C105.6,108.6,103.4,100.2,101.2,91.8z"/>
	<path class="st3" d="M119.9,164.5c0.6-3.3,2-6.4,3.1-9.6c1.9-5.8,4-11.5,6-17.3c0.3-0.8,0.3-1.3-0.4-1.9c-6.4-5.3-12.7-10.7-19-16
		c-0.3-0.3-0.9-0.5-0.7-1.1c0.2-0.5,0.8-0.3,1.2-0.3c7.4-0.5,14.8-1,22.3-1.6c5-0.4,9.9-0.9,14.9-1.1c1.6-0.1,2.7-0.5,3.2-2.3
		c2-7.2,4.2-14.3,6.4-21.4c0.3-0.8,0.4-1.8,1-2.5c3.4,6.3,6.6,12.8,10.3,19c2.2,3.7,3,7.4,2.8,11.6c-0.2,5-0.2,10,0,15
		c0.1,2.2-0.4,3.7-2.4,4.8c-0.5,0.3-0.9,0.7-1.4,1.1c-3.7,2.7-7.4,5.5-11.1,8.2c-3.3,2.4-6.4,5.2-10.6,6.3c-1.4,0.4-2.7,0.9-4,1.4
		C134.2,159.3,127.1,161.9,119.9,164.5z"/>
	<path class="st3" d="M157.6,89c-9.1,0-18.2-0.6-27.2-0.4c-1.4,0-1.5-0.5-1.1-1.6c4-11,7.9-22.1,11.8-33.1c0.9-2.6,1.7-5.3,2.6-7.9
		c0.2,0,0.3-0.1,0.5-0.1C148.7,60.3,153.2,74.7,157.6,89z"/>
	<path class="st4" d="M43,86.8c0.3,0.1,0.6,0.3,0.9,0.3c3.8,0.2,7.6,0.4,11.4,0.4c9.5-0.2,19.1,0.8,28.6,0.4
		c0.1,0.2,0.1,0.3,0.2,0.5c-17.9,8.6-35.8,17.1-53.7,25.7c2.5-5.6,5-11.3,7.5-16.9c1.3-2.9,2.6-5.8,3.9-8.7
		C42.2,87.9,42.3,87.1,43,86.8z"/>
	<path class="st4" d="M140.3,37.2c-1.6,1.3-3.5,0.8-5.3,1c-6.7,0.7-13.4,1.2-20.1,1.8c-7.8,0.7-15.6,1.4-23.3,2.1
		c-2.3,0.2-4.6,0.6-6.9,0.7c-1.2,0.1-1.3,0.9-1.7,1.6c-4.1,8.1-8.2,16.2-12.2,24.4c-0.9,1.9-2,2.7-4,2.5c-1.3-0.1-2.6,0-3.9,0
		c6.1-9.9,12.3-19.7,18.4-29.6c0.4-0.6,0.9-1.1,1.5-1.4c6.1-2.8,12.1-5.8,18.2-8.4c8.5-3.6,17.2-3.5,25.8-0.2
		C131.3,33.6,136,35.1,140.3,37.2z"/>
	<path class="st4" d="M30.2,114.4c3.4,1,5.4,3.8,5,7.1c-0.4,3-3.4,5.6-6.6,5.9c-5.8,0.6-11.5,1.3-17.3,1.9c-0.6,0.1-1.3,0.3-1.8-0.3
		c4.7-3.8,9.8-6.9,14.7-10.4C26.1,117,28.2,115.7,30.2,114.4z"/>
	<path class="st4" d="M101.2,91.8c2.2,8.4,4.4,16.7,6.7,25.1c0.3,1.1,0.2,1.9-0.5,2.9c-4.6,6.5-9.1,13.1-13.6,19.6
		c-0.3,0.4-0.6,0.9-1.2,0.8c1.1-3.1,2.8-5.9,4.3-8.9c2.4-4.6,4.8-9.2,7.1-13.8c1.1-2.2-0.1-4.4-0.4-6.6c-0.8-6.1-1.9-12.2-2.9-18.3
		C100.8,92.3,100.9,92,101.2,91.8z"/>
	<path class="st4" d="M92.2,141.4c-0.3,0.5-0.6,1-0.8,1.5C90.8,142,91.4,141.6,92.2,141.4z"/>
	<path class="st4" d="M92.6,140.2c0,0.5,0.1,0.9-0.4,1.2C92.2,141,92.1,140.5,92.6,140.2z"/>
</g>
</svg>
