<svg id="background" xmlns="http://www.w3.org/2000/svg" viewBox="0 0 1365 1023"><defs><style>.cls-1{fill:#aee296;}.cls-2{fill:#91ce72;}</style></defs><title>sjgiohjvsgvshgvsiosGamescreen-background2</title><rect class="cls-1" width="1365" height="1023"/><path class="cls-2" d="M1280.14,131.82C1200-6.57,857.11,41.3,739.08,52.26c-101,25.91-255,17.58-255,17.58-125-5.24-311.94-75.31-380,7.4C14.82,185.58-3,411,56.18,607.41,33.37,707.24,19.14,823.83,75,895c50.36,64.12,175.56,59.8,256.18,49.14,110.82,43,247.6,36.95,415.89-13.07,53.95-24.09,228.45,16.13,298,10.18,96.67,6.28,186.46-4.21,234-62C1378.69,758.33,1362.15,273.35,1280.14,131.82Z" transform="translate(-0.5 0)"/></svg>