<svg id="background" xmlns="http://www.w3.org/2000/svg" viewBox="0 0 1364.85 1033.56"><defs><style>.cls-1{fill:#aee296;}.cls-2{fill:#91ce72;}</style></defs><title>sjgiohjvsgvshgvsiosGamescreen-background2</title><rect class="cls-1" width="1364.85" height="1033.56"/><path class="cls-2" d="M1279.5,133.18c-80.18-139.82-423-91.45-541-80.38-101,26.17-255,17.76-255,17.76-125-5.29-311.91-76.09-380,7.48C14.31,187.49-3.5,415.2,55.67,613.68c-22.8,100.86-37,218.65,18.83,290.53C124.85,969,250,964.63,330.66,953.86c110.8,43.44,247.56,37.32,415.84-13.2,53.94-24.35,228.42,16.29,298,10.28,96.67,6.34,186.44-4.26,234-62.62C1378,766.16,1361.5,276.17,1279.5,133.18Z" transform="translate(0 0)"/></svg>