<svg id="background" xmlns="http://www.w3.org/2000/svg" viewBox="0 0 1365 1080"><defs><style>.cls-1{fill:#aee296;stroke:#757575;stroke-miterlimit:10;stroke-width:1.09px;}.cls-2{fill:#91ce72;}</style></defs><title>ps5Artboard 1</title><rect class="cls-1" x="0.5" y="0.5" width="1364.85" height="1080"/><path class="cls-2" d="M1280,143C1199.82-6.6,857,45.15,739,57,638,85,484,76,484,76,359,70.34,172.09-5.41,104,84,14.81,201.12-3,444.76,56.17,657.13,33.37,765.06,19.13,891.09,75,968c50.35,69.32,175.54,64.65,256.16,53.12C442,1067.61,578.72,1061.07,747,1007c53.94-26,228.42,17.43,298,11,96.67,6.79,186.44-4.55,234-67C1378.54,820.29,1362,296,1280,143Z"/></svg>