<svg id="background" xmlns="http://www.w3.org/2000/svg" viewBox="0 0 1365 981"><defs><style>.cls-1{fill:#aee296;}.cls-2{fill:#91ce72;}</style></defs><title>ps5Artboard 1</title><rect class="cls-1" x="0.5" y="0.44" width="1364.85" height="981.06"/><path class="cls-2" d="M1280,126.85C1199.82-5.86,857,40.05,739,50.56,638,75.4,484,67.42,484,67.42c-125-5-311.91-72.23-380,7.09-89.19,103.9-107,320-47.83,508.43-22.8,95.75-37,207.55,18.83,275.78,50.35,61.49,175.54,57.35,256.16,47.12C442,947.08,578.72,941.28,747,893.31c53.94-23.1,228.42,15.47,298,9.76,96.67,6,186.44-4,234-59.44C1378.54,727.68,1362,262.58,1280,126.85Z"/></svg>