<?xml version="1.0" encoding="utf-8"?>
<!-- Generator: Adobe Illustrator 23.1.0, SVG Export Plug-In . SVG Version: 6.00 Build 0)  -->
<svg version="1.1" id="Layer_1" xmlns="http://www.w3.org/2000/svg" xmlns:xlink="http://www.w3.org/1999/xlink" x="0px" y="0px"
	 viewBox="0 0 1340.2 1080" style="enable-background:new 0 0 1340.2 1080;" xml:space="preserve">
<style type="text/css">
	.st0{fill:#A5A5A5;}
	.st1{fill:#649647;}
	.st2{fill:#91CE72;}
	.st3{fill:#604015;}
	.st4{fill:#3E773E;}
</style>
<title>achtArtboard 1</title>
<g>
	<g id="rockbottom">
		<polygon class="st0" points="5.4,948.6 14.3,1035.5 39.9,1086 138.6,1100.2 302.4,1073.9 432.7,1100.2 575.8,1100.2 810.6,1077.9 
			1087.9,1091.1 1275.4,1077.9 1324.7,1045.6 1336.6,913.3 1186.5,983.2 1004.8,989.6 690.8,1040.8 235.9,971 		"/>
	</g>
	<g id="background">
		<path class="st1" d="M1335.6,162.7c-0.9-164.7-481.9-42.1-600.9-30.8c-101.8,26.6-257.1,18.1-257.1,18.1
			c-126-5.4-314.5-77.4-383.2,7.6C4.4,268.9,72.5,501.1,46.1,702.7c-23,102.7-67.5,282.9-11.1,356c50.8,65.9,193,2.9,274.3-8.1
			c111.7,44.2,274.3,57.5,444,6.1c64.1-8.1,232.8,18.2,302.9,12.1c97.5,6.5,240.5,24.6,264.5-48.5c26.1-79.6,19.6-298.2,15.8-504.1
			C1333.8,364.3,1336,240.7,1335.6,162.7z"/>
		<path class="st2" d="M1335.6,89.7c-12.5-177.3-504.2-22-619.7-56.6c-128.3,10.5-251.6-6.3-251.6-6.3C337.2,21,118-42.9,48.8,49.9
			c-90.7,121.6-34,356.9-23.7,591.6c-23.2,112-42.4,362.3,14.8,405.2c63.9,47.9,193.4,4.6,275.3-7.3
			c144.1,28.3,235.8,45.8,419.4,12.3c54.8-27,241.1,14.2,311.8,7.6c98.3,7.1,231.3,25.6,266.4-48.2c29.5-62,16-324.1,13.8-560.1
			C1325.3,300.5,1340.6,160.6,1335.6,89.7z"/>
	</g>
	<g id="props">
		
			<image style="overflow:visible;opacity:0.25;enable-background:new    ;" width="192" height="151" xlink:href="285FAE90.png"  transform="matrix(0.9868 0 0 1.0103 28.9179 15.9928)">
		</image>
		<path class="st3" d="M38.5,139.3c0,0,44.6-19.1,60.4-39.2s34.1-48.9,52.2-48.6l17.4-16.2l1.2-8.8l4.9,6.7l8.1-1.1
			c0,0-12.8,3.4-17.8,19.1l32.6,0.9l7.3-5.7l-6,12.6l-19.3,1.8l7.2,11.5l-8.9-3.5l-2.7-7.1c0,0-14.7-4.3-20.9-0.7
			c0,0-23.5,7.9-31.9,32.8c0,0-8.2,23.4-46.9,41.9l-19.6,21.9l-18.5-7.8L38.5,139.3z"/>
		<path class="st4" d="M1313.7,858.2c-22.4-3.7-31.3,21.2-28.8,39.8c0.6,4.4,7.2,3.3,6.6-1.1c-1.9-14.3,3.7-34.9,21.5-32
			C1317.2,865.7,1317.9,858.9,1313.7,858.2L1313.7,858.2z"/>
		<path class="st4" d="M1285.2,897.1c-2.4-17.2-5.7-36.7,2.3-53c2-3.9-4.3-6.3-6.2-2.5c-8.5,17.3-5.2,38.2-2.7,56.6
			C1279.2,902.6,1285.8,901.5,1285.2,897.1L1285.2,897.1z"/>
		<path class="st4" d="M1279.5,890.8c-3.2-12.4-8.7-26-22-29.8c-4.1-1.2-6.5,5.2-2.4,6.4c10.9,3,15.1,14.3,17.8,24.5
			C1274,896,1280.6,895,1279.5,890.8L1279.5,890.8z"/>
		<path class="st4" d="M1222.3,919.3c-17.2-15.2-37.5,1.4-44.9,18.5c-1.7,4,4.4,6.6,6.2,2.6c5.7-13.2,21-27.8,34.7-15.7
			C1221.5,927.5,1225.5,922.1,1222.3,919.3L1222.3,919.3z"/>
		<path class="st4" d="M1178.2,937.1c6.7-15.9,13.9-34.3,29-43.9c3.7-2.3-0.4-7.7-4.1-5.4c-16.1,10.2-23.9,29.8-31.2,46.8
			C1170.3,938.6,1176.5,941.2,1178.2,937.1L1178.2,937.1z"/>
		<path class="st4" d="M1176.6,928.7c3.5-12.3,5.9-26.8-3.5-37.1c-3-3.2-8.2,0.9-5.3,4.2c7.7,8.4,5.6,20.3,2.7,30.4
			C1169.2,930.3,1175.3,932.9,1176.6,928.7z"/>
		<path class="st4" d="M86.2,934.8c-22.6-2-29.7,23.5-26,41.8c0.9,4.3,7.4,2.7,6.5-1.6c-2.9-14.1,1.2-35.1,19.2-33.5
			C90.3,942,90.4,935.1,86.2,934.8L86.2,934.8z"/>
		<path class="st4" d="M60.5,975.6c-3.6-16.9-8.2-36.2-1.4-53c1.6-4-4.7-6.1-6.4-2c-7.3,17.9-2.5,38.5,1.3,56.6
			C54.9,981.5,61.4,980,60.5,975.6L60.5,975.6z"/>
		<path class="st4" d="M54.4,969.7c-4.1-12.1-10.5-25.3-24-28.1c-4.2-0.8-6.2,5.7-2,6.5c11.1,2.3,16.1,13.2,19.5,23.1
			C49.3,975.4,55.8,973.8,54.4,969.7L54.4,969.7z"/>
		<path class="st4" d="M117.8,965.1c-22.6-2-29.7,23.5-26,41.8c0.9,4.3,7.4,2.7,6.5-1.6c-2.9-14.1,1.2-35.1,19.2-33.5
			C121.8,972.3,122,965.4,117.8,965.1L117.8,965.1z"/>
		<path class="st4" d="M92.1,1005.9c-3.6-16.9-8.2-36.2-1.4-53c1.6-4-4.7-6.1-6.4-2c-7.3,17.9-2.5,38.5,1.3,56.6
			C86.5,1011.8,93,1010.3,92.1,1005.9L92.1,1005.9z"/>
		<path class="st4" d="M86,1000c-4.1-12.1-10.5-25.3-24-28.1c-4.2-0.8-6.2,5.7-2,6.5c11.1,2.3,16.1,13.2,19.5,23.1
			C80.9,1005.7,87.4,1004.2,86,1000L86,1000z"/>
		<path class="st4" d="M1235.8,60.9c-22.6-2.1-29.7,23.5-26,41.8c0.9,4.3,7.4,2.7,6.5-1.6c-2.9-14.1,1.2-35.1,19.2-33.5
			C1239.9,68.1,1240,61.3,1235.8,60.9L1235.8,60.9z"/>
		<path class="st4" d="M1210.1,101.8c-3.6-17-8.3-36.2-1.4-53c1.6-4-4.7-6.1-6.4-2c-7.3,17.9-2.5,38.5,1.3,56.6
			C1204.5,107.7,1211,106.1,1210.1,101.8L1210.1,101.8z"/>
		<path class="st4" d="M1204,95.8c-4.1-12.1-10.5-25.3-24-28.1c-4.2-0.8-6.2,5.7-2,6.5c11.1,2.3,16.1,13.1,19.5,23.1
			C1198.9,101.5,1205.4,100,1204,95.8L1204,95.8z"/>
		<path class="st4" d="M1292,99.3c-22.6-2-29.7,23.5-26,41.8c0.9,4.3,7.4,2.7,6.5-1.6c-2.9-14.1,1.2-35.1,19.2-33.5
			C1296.1,106.5,1296.3,99.7,1292,99.3L1292,99.3z"/>
		<path class="st4" d="M1266.3,140.2c-3.6-17-8.3-36.2-1.4-53c1.6-4-4.7-6-6.4-2c-7.3,17.9-2.5,38.5,1.3,56.6
			C1260.7,146,1267.3,144.5,1266.3,140.2L1266.3,140.2z"/>
		<path class="st4" d="M1260.3,134.2c-4.1-12.1-10.5-25.3-24-28.1c-4.2-0.8-6.2,5.7-2,6.5c11.1,2.3,16.1,13.1,19.5,23.1
			C1255.1,139.9,1261.6,138.4,1260.3,134.2L1260.3,134.2z"/>
		<path class="st4" d="M71.4,901.4c-22.6-2-29.7,23.5-26,41.8c0.9,4.3,7.4,2.7,6.5-1.6c-2.9-14.1,1.2-35.1,19.2-33.5
			C75.5,908.6,75.6,901.8,71.4,901.4L71.4,901.4z"/>
		<path class="st4" d="M45.7,942.3c-3.6-16.9-8.2-36.2-1.4-53c1.6-4-4.7-6.1-6.4-2c-7.3,17.9-2.5,38.5,1.3,56.6
			C40.1,948.2,46.6,946.6,45.7,942.3L45.7,942.3z"/>
		<path class="st4" d="M39.6,936.4c-4.1-12.1-10.5-25.3-24-28.1c-4.2-0.8-6.2,5.7-2,6.5c11.1,2.3,16.1,13.2,19.5,23.1
			C34.5,942,41,940.5,39.6,936.4L39.6,936.4z"/>
	</g>
</g>
</svg>
