<?xml version="1.0" encoding="utf-8"?>
<!-- Generator: Adobe Illustrator 23.1.0, SVG Export Plug-In . SVG Version: 6.00 Build 0)  -->
<svg version="1.1" id="Layer_1" xmlns="http://www.w3.org/2000/svg" xmlns:xlink="http://www.w3.org/1999/xlink" x="0px" y="0px"
	 viewBox="0 0 1081 1080" style="enable-background:new 0 0 1081 1080;" xml:space="preserve">
<style type="text/css">
	.st0{fill:#A5A5A5;}
	.st1{fill:#649647;}
	.st2{fill:#91CE72;}
	.st3{fill:#604015;}
	.st4{fill:#3E773E;}
</style>
<title>achtArtboard 1</title>
<g>
	<g id="rockbottom">
		<polygon class="st0" points="4,948.6 11.2,1035.5 31.9,1086 111.5,1100.2 243.7,1073.9 348.8,1100.2 464.2,1100.2 653.7,1077.9 
			877.4,1091.1 1028.7,1077.9 1068.5,1045.6 1078.1,913.3 957,983.2 810.4,989.6 557,1040.8 189.9,971 		"/>
	</g>
	<g id="background">
		<path class="st1" d="M1077.3,162.7c-0.7-164.7-388.9-42.1-484.9-30.8c-82.2,26.6-207.5,18.1-207.5,18.1
			c-101.7-5.4-253.8-77.4-309.2,7.6C3.2,268.9,58.1,501.1,36.9,702.7c-18.6,102.7-54.4,282.9-9,356c41,65.9,155.7,2.9,221.3-8.1
			c90.2,44.2,221.3,57.5,358.3,6.1c51.8-8.1,187.8,18.2,244.4,12.1c78.6,6.5,194,24.6,213.4-48.5c21.1-79.6,15.8-298.2,12.7-504.1
			C1075.8,364.3,1077.6,240.7,1077.3,162.7z"/>
		<path class="st2" d="M1077.3,89.7c-10.1-177.3-406.9-22-500-56.6c-103.5,10.5-203-6.3-203-6.3C271.7,21,94.9-42.9,39,49.9
			c-73.2,121.6-27.5,356.9-19.1,591.6c-18.7,112-34.2,362.3,11.9,405.2c51.6,47.9,156.1,4.6,222.1-7.3
			c116.2,28.3,190.3,45.8,338.4,12.3c44.2-27,194.5,14.2,251.6,7.6c79.3,7.1,186.6,25.6,215-48.2c23.8-62,12.9-324.1,11.1-560.1
			C1069,300.5,1081.3,160.6,1077.3,89.7z"/>
	</g>
	<g id="props">
		
			<image style="overflow:visible;opacity:0.25;enable-background:new    ;" width="192" height="151" xlink:href="CC71C356.png"  transform="matrix(0.7962 0 0 1.0103 22.98 15.9928)">
		</image>
		<path class="st3" d="M30.8,139.3c0,0,36-19.1,48.7-39.2s27.5-48.9,42.1-48.6l14-16.2l1-8.8l4,6.7l6.6-1.1c0,0-10.4,3.4-14.3,19.1
			l26.3,0.9l5.9-5.7L160.1,59l-15.5,1.8l5.8,11.5l-7.2-3.5l-2.2-7.1c0,0-11.8-4.3-16.9-0.7c0,0-19,7.9-25.8,32.8
			c0,0-6.6,23.4-37.9,41.9l-15.8,21.9l-15-7.8L30.8,139.3z"/>
		<path class="st4" d="M1059.6,858.2c-18.1-3.7-25.2,21.2-23.3,39.8c0.5,4.4,5.8,3.3,5.3-1.1c-1.5-14.3,3-34.9,17.4-32
			C1062.4,865.7,1063,858.9,1059.6,858.2L1059.6,858.2z"/>
		<path class="st4" d="M1036.6,897.1c-1.9-17.2-4.6-36.7,1.9-53c1.6-3.9-3.5-6.3-5-2.5c-6.9,17.3-4.2,38.2-2.2,56.6
			C1031.7,902.6,1037.1,901.5,1036.6,897.1L1036.6,897.1z"/>
		<path class="st4" d="M1032,890.8c-2.6-12.4-7-26-17.7-29.8c-3.3-1.2-5.3,5.2-1.9,6.4c8.8,3,12.2,14.3,14.3,24.5
			C1027.6,896,1032.9,895,1032,890.8L1032,890.8z"/>
		<path class="st4" d="M985.9,919.3c-13.9-15.2-30.3,1.4-36.2,18.5c-1.4,4,3.6,6.6,5,2.6c4.6-13.2,16.9-27.8,28-15.7
			C985.2,927.5,988.5,922.1,985.9,919.3L985.9,919.3z"/>
		<path class="st4" d="M950.3,937.1c5.4-15.9,11.2-34.3,23.4-43.9c2.9-2.3-0.4-7.7-3.3-5.4c-13,10.2-19.3,29.8-25.2,46.8
			C943.9,938.6,948.9,941.2,950.3,937.1L950.3,937.1z"/>
		<path class="st4" d="M949,928.7c2.9-12.3,4.7-26.8-2.9-37.1c-2.4-3.2-6.6,0.9-4.3,4.2c6.2,8.4,4.5,20.3,2.2,30.4
			C943,930.3,948,932.9,949,928.7z"/>
		<path class="st4" d="M69.2,934.8c-18.2-2-23.9,23.5-20.9,41.8c0.7,4.3,5.9,2.7,5.2-1.6c-2.3-14.1,1-35.1,15.5-33.5
			C72.5,942,72.6,935.1,69.2,934.8L69.2,934.8z"/>
		<path class="st4" d="M48.5,975.6c-2.9-16.9-6.6-36.2-1.1-53c1.3-4-3.8-6.1-5.2-2c-5.9,17.9-2,38.5,1,56.6
			C43.9,981.5,49.2,980,48.5,975.6L48.5,975.6z"/>
		<path class="st4" d="M43.6,969.7c-3.3-12.1-8.5-25.3-19.4-28.1c-3.4-0.8-5,5.7-1.6,6.5c8.9,2.3,13,13.2,15.7,23.1
			C39.4,975.4,44.7,973.8,43.6,969.7L43.6,969.7z"/>
		<path class="st4" d="M94.7,965.1c-18.2-2-23.9,23.5-20.9,41.8c0.7,4.3,5.9,2.7,5.2-1.6c-2.3-14.1,1-35.1,15.5-33.5
			C98,972.3,98.1,965.4,94.7,965.1L94.7,965.1z"/>
		<path class="st4" d="M73.9,1005.9c-2.9-16.9-6.6-36.2-1.1-53c1.3-4-3.8-6.1-5.2-2c-5.9,17.9-2,38.5,1,56.6
			C69.4,1011.8,74.7,1010.3,73.9,1005.9L73.9,1005.9z"/>
		<path class="st4" d="M69,1000c-3.3-12.1-8.5-25.3-19.4-28.1c-3.4-0.8-5,5.7-1.6,6.5c8.9,2.3,13,13.2,15.7,23.1
			C64.9,1005.7,70.1,1004.2,69,1000L69,1000z"/>
		<path class="st4" d="M996.8,60.9c-18.2-2.1-23.9,23.5-20.9,41.8c0.7,4.3,5.9,2.7,5.2-1.6c-2.3-14.1,1-35.1,15.5-33.5
			C1000,68.1,1000.2,61.3,996.8,60.9L996.8,60.9z"/>
		<path class="st4" d="M976,101.8c-2.9-17-6.7-36.2-1.1-53c1.3-4-3.8-6.1-5.2-2c-5.9,17.9-2,38.5,1,56.6
			C971.5,107.7,976.8,106.1,976,101.8L976,101.8z"/>
		<path class="st4" d="M971.1,95.8c-3.3-12.1-8.5-25.3-19.4-28.1c-3.4-0.8-5,5.7-1.6,6.5c8.9,2.3,13,13.1,15.7,23.1
			C967,101.5,972.2,100,971.1,95.8L971.1,95.8z"/>
		<path class="st4" d="M1042.1,99.3c-18.2-2-23.9,23.5-20.9,41.8c0.7,4.3,5.9,2.7,5.2-1.6c-2.3-14.1,1-35.1,15.5-33.5
			C1045.4,106.5,1045.6,99.7,1042.1,99.3L1042.1,99.3z"/>
		<path class="st4" d="M1021.4,140.2c-2.9-17-6.7-36.2-1.1-53c1.3-4-3.8-6-5.2-2c-5.9,17.9-2,38.5,1,56.6
			C1016.9,146,1022.2,144.5,1021.4,140.2L1021.4,140.2z"/>
		<path class="st4" d="M1016.5,134.2c-3.3-12.1-8.5-25.3-19.4-28.1c-3.4-0.8-5,5.7-1.6,6.5c8.9,2.3,13,13.1,15.7,23.1
			C1012.4,139.9,1017.6,138.4,1016.5,134.2L1016.5,134.2z"/>
		<path class="st4" d="M57.3,901.4c-18.2-2-23.9,23.5-20.9,41.8c0.7,4.3,5.9,2.7,5.2-1.6c-2.3-14.1,1-35.1,15.5-33.5
			C60.5,908.6,60.7,901.8,57.3,901.4L57.3,901.4z"/>
		<path class="st4" d="M36.5,942.3c-2.9-16.9-6.6-36.2-1.1-53c1.3-4-3.8-6.1-5.2-2c-5.9,17.9-2,38.5,1,56.6
			C32,948.2,37.3,946.6,36.5,942.3L36.5,942.3z"/>
		<path class="st4" d="M31.6,936.4c-3.3-12.1-8.5-25.3-19.4-28.1c-3.4-0.8-5,5.7-1.6,6.5c8.9,2.3,13,13.2,15.7,23.1
			C27.5,942,32.7,940.5,31.6,936.4L31.6,936.4z"/>
	</g>
</g>
</svg>
