<?xml version="1.0" encoding="utf-8"?>
<!-- Generator: Adobe Illustrator 24.0.1, SVG Export Plug-In . SVG Version: 6.00 Build 0)  -->
<svg version="1.1" id="Layer_1" xmlns="http://www.w3.org/2000/svg" xmlns:xlink="http://www.w3.org/1999/xlink" x="0px" y="0px"
	 viewBox="0 0 1920 1080" style="enable-background:new 0 0 1920 1080;" xml:space="preserve">
<style type="text/css">
	.st0{fill:#84C2D8;}
	.st1{fill:#70BD51;}
	.st2{fill:#B32E2B;}
	.st3{fill:#AD7E14;}
	.st4{fill:#A5A5A5;}
	.st5{fill:#74AF78;}
	.st6{fill:#F9F9F9;}
	.st7{fill:#CCCCCC;}
	.st8{fill:#FFFFFF;}
	.st9{fill:#45C4BE;}
	.st10{fill:#43D1C6;}
	.st11{fill:#7BBF7B;}
	.st12{fill:#1B5E1B;}
	.st13{fill:#CE3030;}
	.st14{fill:#788E42;}
	.st15{fill:#050505;}
	.st16{fill:#E81F1F;}
	.st17{fill:#7E9B45;}
	.st18{fill:#604015;}
	.st19{fill:#5DB263;}
	.st20{fill:#84AA48;}
	.st21{fill:#439B45;}
	.st22{fill:#CCCCCC;stroke:#8E8E8E;stroke-width:1.1;stroke-miterlimit:10;}
	.st23{enable-background:new    ;}
	.st24{fill:#EF0C0C;}
	.st25{fill:#FCC24A;}
	.st26{fill:#FA922D;}
	.st27{fill:#E94401;}
	.st28{fill:#DE2D02;}
	.st29{fill:#FEFEFE;}
	.st30{fill:#6FC749;}
	.st31{fill:#F47C00;}
	.st32{fill:#109D58;}
</style>
<title>vijfArtboard 1</title>
<g>
	<g id="bg">
		<rect x="-1" class="st0" width="1922" height="1080"/>
		<g id="Layer_2_1_">
			<path class="st1" d="M1118.7,314.3c3.7-0.1,6.6-3.2,6.6-6.9C1121.5,307.6,1118.6,310.6,1118.7,314.3z"/>
			<path class="st2" d="M1119.7,337c0.6,0.4,1.3,0.7,2,0.9c2.1,0.2,4.3-0.5,5.8-2c0,0,7.6-6.7,5.4-14.7s-8.2-7.8-8.2-7.8
				s-3.2,0-4.5,0.9c-0.7,0.5-1.6,0.6-2.4,0.2c0,0-2.4-0.9-3.3-1.1c-0.7-0.1-1.4-0.1-2.2,0c-7.8,2-6.9,11.1-6.9,11.1
				c0.3,4,1.9,7.8,4.6,10.8c4.3,4.5,8.7,1.7,8.7,1.7S1119.3,336.6,1119.7,337z"/>
			<path class="st3" d="M1118.8,312.1c-0.2-0.6-0.7-1.5-0.7-1.5s-0.4-0.9-1.3-2.6s-1.5-1.7-1.5-1.7c-0.5-0.1-1-0.1-1.5,0
				c-0.9,0.2-0.4,0.9-0.4,0.9l1.5,1.7c0,0,2.2,3,2.2,3.9s0.2,1.1,0.2,1.1c0.5,0.2,1,0.4,1.5,0.4c0.7,0,0.7-0.2,0.7-0.2
				C1119.4,313.4,1119.1,312.8,1118.8,312.1z"/>
		</g>
		<g id="Layer_2-2">
			<path class="st1" d="M1030.6,296.2c3.9-0.1,7-3.4,7-7.3C1033.7,289,1030.6,292.3,1030.6,296.2z"/>
			<path class="st2" d="M1031.7,320.5c0.6,0.4,1.3,0.7,2.1,0.9c2.3,0.2,4.6-0.5,6.2-2.1c0,0,8.1-7.2,5.8-15.8s-8.8-8.4-8.8-8.4
				s-3.5,0-4.9,0.9c-0.7,0.6-1.7,0.7-2.6,0.2c0,0-2.6-0.9-3.5-1.1c-0.8-0.1-1.5-0.1-2.3,0c-8.3,2.1-7.4,11.8-7.4,11.8
				c0.3,4.3,2,8.4,4.9,11.6c4.6,4.9,9.3,1.9,9.3,1.9S1031.2,320,1031.7,320.5z"/>
			<path class="st3" d="M1030.8,293.9c-0.2-0.7-0.7-1.6-0.7-1.6s-0.4-0.9-1.4-2.8s-1.6-1.9-1.6-1.9c-0.5-0.1-1.1-0.1-1.6,0
				c-0.9,0.2-0.5,0.9-0.5,0.9l1.6,1.9c0,0,2.3,3.3,2.3,4.2s0.2,1.1,0.2,1.1c0.5,0.3,1.1,0.4,1.6,0.5c0.7,0,0.7-0.2,0.7-0.2
				C1031.4,295.2,1031.1,294.5,1030.8,293.9z"/>
		</g>
	</g>
	<g id="ground">
		<polygon class="st4" points="490,725 502,794 982,856.9 1257.8,803 1419.8,816.2 1470.3,750.7 1381,762 1236.6,750 982,798 
			622.7,713.9 		"/>
		<path class="st5" d="M1346,556c0,0,152.5,118.5,141,184c0,0-6.7,38.2-56,30c0,0,20.2,0.3-46-1.4c-40.9-1.1-93.8,1.8-157.9,13.8
			c-167.7,31.6-420.3,38.6-566-14c0,0-35.6-11.7-91.2,4.7s-91.2-17.5-91.2-17.5s-48.2-48.6,59.7-95.9
			C657.5,607.5,987.1,551.1,1346,556z"/>
		<path class="st6" d="M534.7,184.6c-0.2-3.8-1.2-7.5-2.9-10.9c1.9-3.5,2.9-7.4,2.9-11.4c0-11.8-8.7-21.8-20.7-25.4
			c-7-10.1-16.6-16.3-27.1-16.3c-7.1,0-13.7,2.8-19.4,7.7c-19.3-14.3-45.8-13.5-64.3,1.8c-4-2.7-8.8-4.1-13.6-4.2
			c-8,0-15.4,4.1-21.5,11.2c-10.2,3.2-18.1,11.3-21,21.6c-10.2,7.8-16.1,17.1-16.1,27c0,8.5,4.3,16.5,12,23.6
			c2.8,11.7,11.6,21,23.1,24.5c6.4,8.6,14.6,13.7,23.5,13.7c6.7,0,12.9-2.9,18.3-7.9c8.5,5.6,18.4,8.5,28.6,8.6
			c14.5,0,27.7-6.1,37.9-16c3.9,2,8.2,3.1,12.6,3.1c6.9,0,13.5-2.7,19.1-7.4c1.5,0.2,3,0.3,4.5,0.3c17,0,30.7-12,30.7-26.8
			C541.2,195,538.8,189.1,534.7,184.6z"/>
		<path class="st6" d="M1527.7,285.6c-0.2-3.8-1.2-7.5-2.9-10.9c1.9-3.5,2.9-7.4,2.9-11.4c0-11.8-8.7-21.8-20.7-25.4
			c-7-10.1-16.6-16.3-27.2-16.3c-7.1,0-13.7,2.8-19.4,7.7c-19.3-14.3-45.8-13.6-64.3,1.7c-4-2.7-8.8-4.1-13.6-4.2
			c-8,0-15.4,4.1-21.5,11.2c-10.2,3.2-18.1,11.3-21,21.6c-10.2,7.8-16.1,17.1-16.1,27c0,8.5,4.3,16.5,12,23.6
			c2.8,11.7,11.5,21,23,24.5c6.4,8.6,14.6,13.7,23.5,13.7c6.7,0,12.9-2.9,18.3-7.9c8.5,5.6,18.4,8.5,28.6,8.5c14.5,0,27.7-6,37.8-16
			c3.9,2,8.2,3.1,12.6,3.1c6.9,0,13.5-2.7,19.1-7.4c1.5,0.2,3,0.3,4.5,0.3c17,0,30.7-12,30.7-26.8
			C1534.2,296,1531.8,290.1,1527.7,285.6z"/>
	</g>
	<g id="mountain">
		<polygon class="st7" points="1190.6,589 996.1,589 1093.3,430.6 1190.6,272.2 1287.8,430.6 1385,589 		"/>
		<polygon class="st8" points="1191.1,286.7 1259.2,404.8 1229,383.2 1211.9,394.5 1191,380.2 1171,394.7 1154,383.2 1122.8,404.9 
					"/>
		<path class="st7" d="M1191.1,289.7l33.9,58.7l29.6,51.2l-23.7-17l-1.7-1.2l-1.7,1.1l-15.4,10.2l-19.2-13.1l-1.7-1.2l-1.7,1.2
			l-18.2,13.3l-15.3-10.3l-1.7-1.1l-1.7,1.2l-24.8,17.3l29.7-51.5L1191.1,289.7 M1191.1,283.7l-36.5,63.2l-36.5,63.2l35.9-25
			l17,11.5l20-14.5l20.9,14.3L1229,385l35,25l-36.5-63.2L1191.1,283.7L1191.1,283.7z"/>
	</g>
	<g id="river">
		<path class="st9" d="M1195,600.1c0,0,6-5.7,34,56.2c0,0-4,50.5,9,82.6c0,0,86,5,134-16.1c0,0-42-40.2-52-74.6
			s-81.1-48.3-81.1-48.3L1195,600.1z"/>
		<path class="st10" d="M1218,606.1c0,0,4.9-5.4,27.7,52.6c0,0-3.2,47.2,7.3,77.3c0,0,82-8,109-15c0,0-34.2-37.6-42.3-69.8
			s-66-45.2-66-45.2L1218,606.1z"/>
	</g>
	<g id="bush">
		<path class="st11" d="M1230.9,551.8c-1.8-18.3-13.8-32.7-29-33.4c-6.8-0.2-13.4,2.1-18.6,6.6c-5.3-8.8-13.6-14.7-23.1-15.2
			c-4.9-0.2-9.8,1-14.1,3.5c-4-2.9-8.8-4.6-13.7-4.8c-7-0.2-13.9,2.3-19.1,7c-2.6-1-5.3-1.6-8-1.7c-9.2-0.5-17.7,4.2-23.8,12
			c-4.4,1.2-8.4,3.3-11.8,6.3c-1.3-0.3-2.7-0.5-4.1-0.6c-17.2-0.8-32,16.1-33,37.8c-0.7,14.4,4.8,27.3,13.7,34.6
			c-0.1,20.7,12.7,37.8,29.3,38.6c8,0.4,15.6-3.1,21.4-9.2c5,11,14.3,18.5,25.2,19.1c9.8,0.5,18.8-4.8,24.9-13.5
			c4.6,4.7,10.8,7.5,17.4,7.9c8.9,0.4,17.2-3.9,23.2-11.3c1.3,0.3,2.7,0.5,4.1,0.5c8,0.4,15.4-3.1,21.2-9c1.1,0.2,2.2,0.3,3.2,0.4
			c17.2,0.8,32-16.1,33-37.8C1250.2,572.7,1242.4,558,1230.9,551.8z"/>
	</g>
	<g id="bush02">
		<path class="st12" d="M800.2,560.1c-1.8-18.3-13.8-32.7-29-33.4c-6.8-0.2-13.4,2.1-18.6,6.6c-5.3-8.8-13.6-14.7-23.1-15.2
			c-4.9-0.2-9.8,1-14.1,3.5c-4-2.9-8.8-4.6-13.7-4.8c-7-0.2-13.9,2.3-19.1,7c-2.6-1-5.3-1.6-8-1.7c-9.2-0.4-17.8,4.2-23.8,12
			c-4.3,1.2-8.4,3.3-11.7,6.3c-1.3-0.3-2.7-0.5-4.1-0.5c-17.2-0.8-32,16.1-33,37.8c-0.7,14.4,4.8,27.3,13.7,34.6
			c-0.1,20.7,12.7,37.8,29.2,38.6c8,0.4,15.5-3.1,21.4-9.2c5,11,14.3,18.5,25.2,19.1c9.8,0.5,18.8-4.8,25-13.5
			c4.6,4.7,10.8,7.5,17.4,7.9c8.9,0.4,17.2-3.9,23.2-11.3c1.3,0.3,2.7,0.5,4.1,0.5c8,0.4,15.4-3.1,21.2-9c1.1,0.2,2.2,0.3,3.2,0.4
			c17.2,0.8,32-16.1,33-37.8C819.4,581,811.7,566.3,800.2,560.1z"/>
	</g>
	<g id="tree">
		<path class="st13" d="M1097.1,484.2c1.9,2.4,3,5.3,3,8.4c0,0.8,0.7,1.5,1.5,1.5s1.5-0.7,1.5-1.5c0-3.9-1.4-7.6-3.9-10.5
			C1097.9,480.6,1095.8,482.7,1097.1,484.2L1097.1,484.2z"/>
		<path class="st13" d="M1100,489c1.2,1.7,3.1,3,5.2,3.4c0.8,0.2,1.6-0.2,1.8-1c0.2-0.8-0.2-1.6-1-1.8c-1.3-0.2-2.5-0.9-3.4-2
			c-0.4-0.7-1.3-0.9-2-0.5C1099.9,487.4,1099.6,488.3,1100,489z"/>
		<path class="st14" d="M1158.2,502.4c-10-2.9-16.2-11.8-19.7-21.2c-4-10.5-6-21.7-5.7-33c1-22.4,15.5-40.2,26-58.9
			c25.5-45.5-59.4-57.4-87.4-53.6c-20.1,2.8-37.8,16.1-43.2,36.3c-2.5,9.5-1.8,20.4,4.8,28.1c6,6.9,15,9.5,23.8,10.6
			c2.1,0.4,4.3,0.6,6.5,0.6c0.4,0,5.7-1.4,1.8-0.3c0.3-0.1,0.7-0.3,1-0.4c0.6-0.1,1.2-0.3,1.8-0.5c1.7-0.5-1.3-0.1,1.1-0.1
			c0.5,0,1,0,1.5,0c1,0-1.6-0.2-0.1,0c0.5,0.1,1,0.3,1.5,0.5c-1.9-0.7-0.1-0.1,0.3,0.3c-1-1,1.3,1.5,0.7,0.8c0.2,0.3,1.2,2.4,0.7,1
			c0.3,0.8,0.6,1.7,0.8,2.6c1.1,4.2,0.6,10.9-0.2,16.1c-1.6,10.3-4.6,20.3-7.9,30.2c-2.2,6.6-5,15-0.2,21.1
			c2.8,3.5,7.2,4.7,11.5,4.5c2.7-0.2,5.3-0.8,7.9-1.7c3.3-1.2,4.3-2.4,7.3,0c6.2,4.9,15-3.8,8.8-8.8c-3.6-2.9-7.4-5.6-12.3-5.4
			c-4.4,0.2-8.8,4.3-13.3,3.5c-1.2-0.2-0.3-0.2-0.1,0.4c-0.1-1-0.1-2.1,0.2-3.1c0.6-2.7,1.4-5.3,2.4-7.9c4.7-14.2,9.8-30.1,8.9-45.3
			c-0.5-7.3-2.7-15.1-9.4-19c-4.2-2.4-9.5-2.6-14.1-1.4c-1,0.2-1.9,0.8-2.9,1c-2.8,0.7,2.4,0.1,1-0.6c-0.9-0.2-1.9-0.3-2.9-0.2
			c-1.9-0.2-3.7-0.5-5.5-0.9c-4.1-0.9-8.3-2.4-11.1-5.7c-6-7.1-2.5-18.5,1.7-25.6c4.8-8.1,12.6-14.1,21.7-16.7
			c9.6-2.8,19.7-2.5,29.5-1.5c10.3,0.9,20.5,2.8,30.5,5.7c8.5,2.6,19.8,7,24.2,15.3c4.7,8.9-5.5,20-9.9,27.2
			c-12.2,19.9-21.8,40.6-18.9,64.5c2.6,21.4,11,46.8,33.9,53.5C1162.7,516.5,1166,504.5,1158.2,502.4L1158.2,502.4z"/>
		<path class="st15" d="M1093.4,477c0.8,0,1.5-0.7,1.5-1.5s-0.7-1.5-1.5-1.5s-1.5,0.7-1.5,1.5S1092.6,477,1093.4,477z"/>
		<path class="st16" d="M540.8,429.1c-1,0.8-2.1,1.5-3.3,2c-0.9,0.4-2.3,0.9-3,0c-0.3-0.3-0.8-0.3-1.1,0c-0.3,0.3-0.3,0.8,0,1.1
			c1.1,1.3,2.9,1.1,4.3,0.5c1.5-0.6,2.9-1.5,4.1-2.5c0.3-0.3,0.3-0.8,0-1.1C541.5,428.8,541.1,428.8,540.8,429.1L540.8,429.1z"/>
		<path class="st16" d="M534.6,433.3C534.6,433.3,534.6,433.3,534.6,433.3v-0.1C534.6,433.2,534.6,433.3,534.6,433.3v-0.2
			c0,0.1,0,0.2-0.1,0.3L534.6,433.3c-0.1,0.2-0.3,0.4-0.4,0.7c-0.1,0.2-0.1,0.4-0.1,0.6c0,0.1,0,0.1,0,0.2c0,0.1,0,0.2,0.1,0.3
			c0.1,0.2,0.2,0.3,0.3,0.5c0.2,0.1,0.4,0.1,0.6,0.1c0.2,0,0.4-0.2,0.5-0.4c0.1-0.2,0.1-0.4,0.1-0.6c0,0,0-0.1,0-0.1v0.2
			c0-0.1,0-0.1,0-0.2v0.2c0-0.1,0-0.2,0.1-0.3l-0.1,0.2c0.1-0.2,0.2-0.4,0.3-0.6c0.1-0.1,0.1-0.3,0.2-0.5c0-0.2,0-0.5,0-0.7
			c-0.1-0.2-0.2-0.3-0.3-0.4c-0.2-0.1-0.4-0.1-0.6-0.1C534.8,432.5,534.6,432.9,534.6,433.3L534.6,433.3z"/>
		<path class="st17" d="M657.3,459.4c19.8,3.9,24.1,29.9,20.7,46.5c-1.7,8.4-7.5,15.5-8,24.2c-0.4,7,2.5,14.6,9.2,17.6
			c6,2.8,11.3-6.2,5.2-8.9c-8.4-3.8-2-15.4,0.4-21c3.8-8.8,4.8-18.1,4.2-27.6c-1.2-17.5-10-37.2-29-40.9
			C653.5,448.1,650.7,458.1,657.3,459.4L657.3,459.4z"/>
		<path class="st17" d="M643.2,468c4.9,6.5,10.6,13.9,10.2,22.5c-0.4,6.7,10,6.6,10.4,0c0.6-10.5-5.6-19.7-11.6-27.7
			C648.1,457.5,639.2,462.7,643.2,468L643.2,468z"/>
		<path class="st14" d="M633.5,459.7c0.8,0.1,2.3,0.2,2.8,0.3c0.7,0.1,1.3,0.2,2,0.3c0.9,0.2,0.1-0.5,0.8,0.3
			c1.7,1.8,2.6,5.3,4.1,7.5s4.5,3.4,7.1,1.9c2.3-1.3,3.5-4.8,1.9-7.1c-2.7-3.8-3.7-8.6-7.8-11.2c-3.1-1.9-7.3-2-10.8-2.3
			c-2.8-0.2-5.2,2.5-5.2,5.2C628.4,457.5,630.7,459.4,633.5,459.7L633.5,459.7z"/>
		<path class="st17" d="M613.5,464.2c0.4,0,0.8-0.1,1.2-0.1c0.1,0,1.7,0,1,0s0.6,0.1,0.7,0.2s1.7,0.6,0.5,0.1
			c2.5,1.1,5.7,0.8,7.1-1.9c1.2-2.3,0.8-5.9-1.9-7.1c-2.7-1.3-5.7-1.9-8.7-1.6c-2.7,0.3-5.3,2.2-5.2,5.2
			C608.5,461.6,610.7,464.5,613.5,464.2L613.5,464.2z"/>
		<path class="st14" d="M627.4,478.2c2.3,5.1,3.4,10.4,1.5,15.8c-2.2,6.3,7.8,9,10,2.8c2.9-8.1,0.8-16.2-2.5-23.8
			C633.7,466.9,624.8,472.2,627.4,478.2L627.4,478.2z"/>
		<path class="st17" d="M604.4,477.8c3.2,6.2,6.3,15.3-1,19.9c-5.6,3.5-0.4,12.5,5.2,8.9c12.5-7.9,10.8-22.5,4.7-34
			C610.3,466.7,601.3,471.9,604.4,477.8L604.4,477.8z"/>
		<path class="st18" d="M734.7,528c0,0,21.4-12,32.6-6s25.6,17,32.2,6l10.7,2l2.8,6v-8l3.3-4c0,0-5.6,5-11.7-4l11.7-20h4.2l-5.6-6
			l-7.5,10l-0.5-13l-2.3,8l0.9,7c0,0-4.2,12-7.5,13c0,0-10.7,8-20.5-6c0,0-9.3-13-28.4-4l-13-5l-4.7,17L734.7,528z"/>
		<path class="st18" d="M749.7,663H693c3.4-27.6,6-59.8,4.8-95.4c-0.7-19.2-2.2-37.1-4.2-53.7c5.6-49.5,5.6-99.5,0-149.1h56
			c-6.4,19-10.3,38.7-11.7,58.7c-2,30.6,1.9,61.3,11.7,90.4L749.7,663z"/>
		<path class="st18" d="M703,480c0,0-46-12-70-6s-55,17-69,6l-23,2l-6,6v-8l-7-4c0,0,12,5,25-4l-25-20h-9l12-6l16,10l1-13l5,8l-2,7
			c0,0,9,12,16,13c0,0,23,8,44-6c0,0,20-13,61-4l28-5l10,17L703,480z"/>
		<path class="st18" d="M734.4,647.5c0,0-25.4,0.8-35,9.9s-21,23-30.9,18.1l-10.3,6l-1,5.5l-2.4-5.6l-4.5-1.4c0,0,7.2,1.1,10.7-7.8
			c1.8-1.7,3.9-2.9,6.3-3.5c0,0,13.3,1,19.1-13.1c0,0,5.6-13.2,27.7-15.1l11.8-9.2l9.8,10L734.4,647.5z"/>
		<path class="st18" d="M725.3,640.1c0,0-16.2,8.6-17.2,18s-0.4,22.9-9.8,22.6l-3.3,7.6l2.5,4.2l-4.8-3.2l-3.8,0.4
			c0,0,5.4-1.5,2.4-8.9c0.1-1.7,0.9-3.3,2.1-4.5c0,0,9.3-3.5,4.9-15.3c0,0-4-11.1,9.4-19.4l2.4-10.2l12.2,3.9L725.3,640.1z"/>
		<path class="st18" d="M741.9,649.6c0,0-4.9,12.4-7,18.9c-2.9,9,19.4,15,6.8,18.7l2.3,6.2l6.9,1.7h-9.2l-4.6,1.9
			c0,0,5.8-3.2-4.5-6.8c0,0-2.3-1.9-1.1-3.8c0,0,9.2-6.2-6.8-11.9c0,0-21.9-4.3-11.6-15.3l1.4-8.7l19.5-2.6L741.9,649.6z"/>
		<path class="st18" d="M747,639c0,0-4.1,17.3,6.5,18.4s28.1,0.1,16.9,11.4l5.6,3.8l8-3l-9.6,5.9l-3.8,4.5c0,0,4.3-6.4-8.3-2.8
			c0,0-3.4-0.1-3.2-2.5c0,0,6.3-11.2-13.4-5.7c0,0-2.9-6.1-19.9-7.1l-3.5-6.8l18.9-14.8L747,639z"/>
		<path class="st19" d="M845.4,279.8c-4.2-27.8-23.5-48.8-46.7-48.8c-10.4,0-20,4.2-27.8,11.4c-8.7-13.1-21.8-21.4-36.3-21.4
			c-7.5,0-14.9,2.2-21.2,6.3c-6.3-4.1-13.7-6.3-21.2-6.3c-10.7,0-20.6,4.5-28.5,12c-4-1.3-8.1-2-12.3-2c-14.1,0-26.7,7.8-35.4,20
			c-6.6,2.1-12.5,5.7-17.5,10.5c-2.1-0.4-4.2-0.5-6.3-0.5c-26.2,0-47.5,26.9-47.5,60c0,22,9.4,41.3,23.4,51.7
			c1.4,31.6,22.1,56.6,47.4,56.6c12.3,0,23.5-5.9,31.9-15.5c8.5,16.4,23.1,27.2,39.8,27.2c15,0,28.3-8.8,37-22.4
			c7.7,6.8,17,10.8,27.1,10.8c13.6,0,25.9-7.3,34.6-18.9c2.1,0.4,4.2,0.6,6.2,0.6c12.2,0,23.3-5.8,31.7-15.3c1.7,0.2,3.3,0.3,5,0.3
			c26.2,0,47.5-26.9,47.5-60C876.2,310.3,863.4,288.3,845.4,279.8z"/>
		<path class="st18" d="M972.5,657.2l60.2-3c-8.8-44.7-11.1-90.3-6.8-135.7c-8.3-44.7-10.5-90.3-6.8-135.6l-60.2,3
			c19.7,42.6,22.2,91.3,6.8,135.6L972.5,657.2z"/>
		<path class="st12" d="M1159.4,281.8c-4.2-27.8-23.5-48.8-46.7-48.8c-10.4,0-20,4.2-27.8,11.4c-8.7-13.1-21.8-21.4-36.3-21.4
			c-7.5,0-14.9,2.2-21.2,6.3c-6.3-4.1-13.7-6.3-21.2-6.3c-10.7,0-20.6,4.5-28.5,12c-4-1.3-8.1-2-12.3-2c-14.1,0-26.7,7.8-35.4,20
			c-6.6,2.1-12.5,5.7-17.5,10.5c-2.1-0.4-4.2-0.5-6.3-0.5c-26.2,0-47.5,26.9-47.5,60c0,22,9.4,41.3,23.4,51.7
			c1.4,31.6,22.1,56.6,47.4,56.6c12.3,0,23.5-5.9,31.9-15.5c8.5,16.4,23.1,27.2,39.8,27.2c15,0,28.3-8.8,37-22.4
			c7.7,6.8,17,10.8,27.1,10.8c13.6,0,25.9-7.3,34.6-18.9c2.1,0.3,4.2,0.5,6.3,0.5c12.2,0,23.3-5.8,31.7-15.3c1.7,0.2,3.3,0.3,5,0.3
			c26.2,0,47.5-26.9,47.5-60C1190.2,312.3,1177.4,290.3,1159.4,281.8z"/>
		<path class="st20" d="M546.9,432.9c11.8-5.3,15.1,7.9,13.7,16.8s-6.8,21,0.1,29c6.5,7.5,17.6,5.3,25.1,0.7c4-2.4,6.8-5.6,10.1-8.6
			c1.3-1,2.8-1.7,4.3-2c0.7-0.2,1.5-0.5,2.2-0.6c0.2,0,3-0.4,1.7-0.6c6.5,1.1,9.3-8.9,2.8-10c-7.3-1.2-15.2,2.8-20,7.9
			c-3.4,3.6-9.1,8-14.3,7.9c-7.6,0-4.5-9.4-3.4-14c2.2-9.9,4-20.4-1.7-29.4c-6-9.3-16.3-10.2-25.7-6
			C535.6,426.7,540.8,435.6,546.9,432.9L546.9,432.9z"/>
		<path class="st17" d="M603.4,497.6c-7.8,3.7-6.5-15.9-4.9-20c1.3-3.5,3.8-6.5,7.1-8.3c2.2-1.3,5-4.1,7.3-4.9c6.3-2,3.6-12-2.8-10
			c-2.6,0.8-4.3,2.6-6.5,4.1c-2.6,1.8-5.5,3-7.9,5.1c-5.2,4.5-8.1,11.6-8.9,18.4c-0.7,6.5,0.2,15.3,3.8,20.9c4,6.4,11.8,6.5,18,3.6
			C614.6,503.7,609.4,494.8,603.4,497.6L603.4,497.6z"/>
		<path class="st14" d="M629.5,492.8c-1.6,3.4-6,7.8-10,4.9c-3.7-2.8-2.9-9.5-2.6-13.5c0.4-5.6,1.4-10.4,4.8-15
			c2.8-3.8,6.4-8.6,11.2-9.7c6.5-1.5,3.7-11.5-2.8-10c-7.9,1.9-13.6,9-18.1,15.4c-5.1,7.2-6.4,17.8-5.6,26.4
			c0.7,7.7,4.3,15.5,12.5,17.3c8,1.8,16.2-3.4,19.5-10.6C641.2,492,632.3,486.7,629.5,492.8L629.5,492.8z"/>
		<path class="st17" d="M653.6,488.9c-0.9,5.4-5.9,5.7-9,1.5c-2.7-3.7-3-9.1-2.4-13.5c1.3-9.6,8.2-17.6,18.4-17.2
			c6.7,0.3,6.7-10.1,0-10.4c-18.8-0.7-30.8,17.7-28.7,35.1c1,8.1,5.3,16.4,13.7,18.7c7.4,2.3,15.2-1.9,17.5-9.2
			c0.2-0.7,0.4-1.5,0.5-2.2C664.5,485.2,654.6,482.4,653.6,488.9L653.6,488.9z"/>
		<path d="M548.9,426.3c0.8,0,1.4-0.7,1.4-1.5c0-0.8-0.6-1.4-1.4-1.4c-0.8,0-1.4,0.7-1.4,1.5C547.5,425.7,548.1,426.3,548.9,426.3z"
			/>
		<path class="st18" d="M838.1,651.4l75,7c-3.9-45.5,0.4-91.3,12.7-135.2c-3.3-45.5,1-91.1,12.7-135.2l-75-7
			c6.9,17.4,10.5,36,10.7,54.7c0.2,36.3-13.3,64.2-23.4,80.5L838.1,651.4z"/>
		<path class="st18" d="M913.6,526.7c0,0,12.7-11.2,21.4-12.6s20.5-2.1,23.1-8.2l7.7-2.7l2.9,1.3l-1.3-2.9l1.6-2.5
			c-2.3,2.3-5.6,3.2-8.7,2.3l-0.8-6.7l-2.5-4.5l-0.3,3.6l1.8,2.2c0,0-0.9,5.7-2.9,7.1c-4,3.8-9.7,5.5-15.1,4.4c0,0-8.6-1.7-20.2,7.7
			l-9.8,2.4l-0.3,7.6L913.6,526.7z"/>
		<path class="st21" d="M1023.4,313.8c-4.2-27.8-23.5-48.8-46.7-48.8c-10.4,0-20,4.2-27.8,11.4c-8.7-13.1-21.8-21.4-36.3-21.4
			c-7.5,0-14.9,2.2-21.2,6.3c-6.3-4.1-13.7-6.3-21.2-6.3c-10.7,0-20.6,4.5-28.5,12c-4-1.3-8.1-2-12.3-2c-14.1,0-26.7,7.8-35.4,20
			c-6.6,2.1-12.5,5.7-17.5,10.5c-2.1-0.4-4.2-0.5-6.3-0.5c-26.2,0-47.5,26.9-47.5,60c0,22,9.4,41.3,23.4,51.7
			c1.4,31.6,22.1,56.6,47.4,56.6c12.3,0,23.5-5.9,31.9-15.5c8.5,16.4,23.1,27.2,39.8,27.2c15,0,28.3-8.8,37-22.4
			c7.7,6.8,17,10.8,27.1,10.8c13.6,0,25.9-7.3,34.6-18.9c2.1,0.4,4.2,0.6,6.2,0.6c12.2,0,23.3-5.8,31.7-15.3c1.7,0.2,3.3,0.3,5,0.3
			c26.2,0,47.5-26.9,47.5-60C1054.2,344.3,1041.4,322.3,1023.4,313.8z"/>
	</g>
	<g id="rock">
		<polygon class="st22" points="803.3,736.8 973.1,769.9 1099.7,736.8 1159.8,749.2 1209.4,688.5 1193.7,622.2 1145.4,572.5 
			1074.6,561.9 1026.6,532.5 953.5,514.6 884.3,525.6 832.9,543.8 775.9,553.2 753.7,619.5 776.2,663.6 753.7,716.1 		"/>
		<polygon class="st4" points="778,726 808.9,743.8 977.9,773.8 1091.7,748.8 1160,749 1179,726 1142.7,740.8 1081.1,731.8 
			979,757.8 822.7,735.8 		"/>
	</g>
	<g id="title">
		<g>
			<g class="st23">
				<path class="st24" d="M829.2,641.9c-4.3,0-8.4-0.6-12.4-1.8s-7.8-3-11.4-5.4v-14h7.4l1.6,10.3c2.1,1.2,4.4,2.1,6.8,2.8
					c2.5,0.7,5.1,1,8,1c3.2,0,6-0.5,8.2-1.4c2.2-0.9,4-2.2,5.2-3.8c1.2-1.6,1.8-3.5,1.8-5.7c0-2-0.5-3.8-1.6-5.3s-2.7-2.9-5.1-4
					c-2.4-1.2-5.6-2.2-9.7-3c-4.9-1-9-2.4-12.3-4.2s-5.9-3.9-7.6-6.4c-1.7-2.5-2.6-5.4-2.6-8.6c0-3.4,1-6.5,2.9-9.2s4.7-4.8,8.2-6.4
					c3.5-1.6,7.6-2.3,12.2-2.3c4.9,0,9.3,0.7,13.1,2.1c3.8,1.4,6.9,3.1,9.4,5.1v13.1h-7.4l-1.6-9.3c-1.5-1.1-3.3-2-5.4-2.7
					c-2.2-0.7-4.9-1.1-8.1-1.1c-2.7,0-5.1,0.4-7.2,1.3c-2.1,0.9-3.7,2.1-4.9,3.7c-1.2,1.6-1.7,3.5-1.7,5.6c0,1.9,0.5,3.5,1.6,4.9
					c1.1,1.4,2.8,2.6,5.1,3.7c2.4,1.1,5.6,2.1,9.5,3c7.4,1.7,13.1,4.2,16.9,7.6c3.8,3.3,5.7,7.5,5.7,12.4c0,3.5-1,6.6-3.1,9.3
					c-2,2.7-4.9,4.8-8.6,6.4C838.6,641.1,834.2,641.9,829.2,641.9z"/>
			</g>
		</g>
		<g>
			<g class="st23">
				<path class="st24" d="M865.6,640.9v-5.7l7.9-1.3v-51.5l-7.9-1.3v-5.7h7.9h9.7l34.6,51l0.3-0.1v-43.9l-8.7-1.3v-5.7h17.5h7.9v5.7
					l-7.9,1.3v58.4h-8.7l-35.6-51.3l-0.3,0.1V634l8.7,1.3v5.7H865.6z"/>
			</g>
		</g>
		<g>
			<g class="st23">
				<path class="st24" d="M935.6,640.9v-5.7l5.2-0.7l24.7-59.1h8.2l24.3,59.1l5.2,0.7v5.7h-20.3v-5.7l5.3-0.9l-4.7-12h-28.3l-4.8,12
					l5.3,0.9v5.7H935.6z M958.2,615h22.4l-10.4-26.6l-0.6-1.5h-0.3l-0.6,1.5L958.2,615z"/>
				<path class="st24" d="M1010.5,640.9v-5.7l7.9-1.3v-51.5l-7.9-1.3v-5.7h25.4v5.7l-7.9,1.3V634l7.9,1.3v5.7H1010.5z M1027.3,622
					l-5.1-5.5l33.5-34.5l0.2-0.2l-5.3-0.6v-5.7h22.7v5.7l-6.6,1.1L1027.3,622z M1052.2,640.9v-5.7l5.8-0.6l0,0l-19.6-25.1l5.3-7
					l25.5,31.6l6.5,1.1v5.7H1052.2z"/>
				<path class="st24" d="M1083.3,640.9v-5.7l7.9-1.3v-51.5l-7.9-1.3v-5.7h52.3v15.7h-7.7l-1.1-8.9h-26.1v21.3h26.1v7h-26.1v23.7
					h27.7l1.1-9h7.6v15.7H1083.3z"/>
			</g>
		</g>
		<g>
			<g class="st23">
				<path class="st8" d="M805.3,708.7v-4.1l3.6-0.5l16.9-42.4h5.6l16.6,42.4l3.6,0.5v4.1h-13.9v-4.1l3.7-0.6l-3.2-8.6h-19.3
					l-3.3,8.6l3.7,0.6v4.1H805.3z M820.8,690h15.3l-7.1-19.1l-0.4-1.1h-0.2l-0.4,1.1L820.8,690z"/>
			</g>
		</g>
		<g>
			<g class="st23">
				<path class="st8" d="M869.4,709.3c-2.9,0-5.4-0.7-7.5-2.1c-2.1-1.4-3.7-3.4-4.8-5.9s-1.7-5.4-1.7-8.8v-0.7c0-3.7,0.6-7,1.7-9.8
					c1.1-2.8,2.7-5,4.8-6.6s4.6-2.3,7.6-2.3c2.1,0,4,0.4,5.6,1.1c1.6,0.8,3,1.9,4.2,3.3v-14.2l-5.4-0.9v-4.1h5.4h6.5v45.3l5.4,0.9
					v4.1h-11.1l-0.5-4.2c-1.2,1.6-2.6,2.8-4.3,3.6C873.6,708.9,871.6,709.3,869.4,709.3z M871.1,704.2c1.9,0,3.6-0.4,4.9-1.3
					s2.4-2.1,3.3-3.6v-16.2c-0.8-1.5-1.9-2.6-3.3-3.5c-1.3-0.9-3-1.3-4.8-1.3c-2.1,0-3.8,0.6-5.1,1.7c-1.3,1.1-2.4,2.7-3,4.8
					c-0.7,2-1,4.4-1,7.1v0.7c0,3.5,0.7,6.3,2.2,8.4C865.7,703.1,868,704.2,871.1,704.2z"/>
			</g>
		</g>
		<g>
			<g class="st23">
				<path class="st8" d="M910.5,708.7l-12.8-30.3l-3.7-0.5v-4.1h15.1v4.1l-4.7,0.6l8,19.8l0.9,2.8h0.2l1.1-2.8l7.4-19.8l-4.8-0.6
					v-4.1h15v4.1l-3.8,0.5l-12.1,30.3H910.5z"/>
			</g>
		</g>
		<g>
			<g class="st23">
				<path class="st8" d="M952,709.3c-3.3,0-6.2-0.7-8.7-2.2c-2.5-1.5-4.4-3.5-5.7-6.1c-1.3-2.6-2-5.6-2-9.1v-1.4
					c0-3.3,0.7-6.3,2.1-8.9s3.3-4.7,5.6-6.2c2.3-1.5,4.9-2.3,7.6-2.3c3.2,0,5.9,0.6,8.1,1.9c2.2,1.3,3.8,3.1,4.9,5.4
					c1.1,2.3,1.7,5.1,1.7,8.2v4h-23.3l-0.1,0.2c0,2.2,0.4,4.2,1.2,5.9c0.8,1.7,1.9,3.1,3.3,4.1c1.4,1,3.2,1.5,5.2,1.5
					c2.2,0,4.2-0.3,5.8-0.9c1.7-0.6,3.1-1.5,4.3-2.5l2.6,4.1c-1.3,1.2-3,2.2-5.1,3C957.5,708.9,955,709.3,952,709.3z M942.7,687.8
					h16.6v-0.8c0-1.7-0.3-3.2-0.9-4.5c-0.6-1.3-1.5-2.4-2.7-3.1s-2.7-1.1-4.5-1.1c-1.5,0-2.8,0.4-4,1.2c-1.2,0.8-2.2,1.9-3,3.4
					s-1.3,3-1.5,4.8L942.7,687.8z"/>
			</g>
		</g>
		<g>
			<g class="st23">
				<path class="st8" d="M971.2,708.7v-4.1l5.4-0.9v-24.9l-5.4-0.9v-4.1h11.2l0.5,5.2c1.2-1.8,2.7-3.3,4.5-4.3
					c1.8-1,3.9-1.5,6.2-1.5c3.9,0,6.9,1.1,9,3.3c2.1,2.2,3.2,5.6,3.2,10.2v17l5.4,0.9v4.1h-17.4v-4.1l5.4-0.9v-16.9
					c0-3.1-0.6-5.3-1.9-6.5c-1.3-1.3-3.2-1.9-5.7-1.9c-1.9,0-3.5,0.4-5,1.3c-1.4,0.9-2.6,2.1-3.5,3.6v20.5l5.4,0.9v4.1H971.2z"/>
			</g>
		</g>
		<g>
			<g class="st23">
				<path class="st8" d="M1026.5,709.2c-2.7,0-4.8-0.8-6.3-2.3c-1.6-1.5-2.3-3.9-2.3-7.3v-21.2h-5.7v-4.7h5.7v-8.4h6.5v8.4h7.8v4.7
					h-7.8v21.2c0,1.7,0.3,2.9,1,3.7s1.6,1.2,2.8,1.2c0.8,0,1.6-0.1,2.6-0.2s1.7-0.3,2.2-0.4l0.9,4.2c-1,0.3-2.1,0.5-3.5,0.7
					S1027.7,709.2,1026.5,709.2z"/>
				<path class="st8" d="M1053.9,709.3c-3.9,0-6.9-1.2-9.1-3.6c-2.2-2.4-3.3-6.2-3.3-11.3v-15.6l-4.1-0.9v-4.1h4.1h6.5v20.6
					c0,3.7,0.6,6.3,1.7,7.7c1.1,1.4,2.9,2.1,5.3,2.1c2.3,0,4.2-0.5,5.8-1.4c1.5-0.9,2.7-2.2,3.4-3.9v-20.1l-4.8-0.9v-4.1h4.8h6.5
					v29.9l4.1,0.9v4.1h-10l-0.4-5.2c-1.1,1.9-2.6,3.3-4.4,4.3C1058.2,708.8,1056.2,709.3,1053.9,709.3z"/>
			</g>
		</g>
		<g>
			<g class="st23">
				<path class="st8" d="M1080,708.7v-4.1l5.4-0.9v-24.9l-5.4-0.9v-4.1h11.2l0.6,4.4l0.1,0.6c1-1.8,2.3-3.2,3.8-4.2s3.2-1.5,5.1-1.5
					c0.7,0,1.4,0.1,2.1,0.2c0.7,0.1,1.2,0.2,1.5,0.3l-0.9,5.9l-4.5-0.3c-1.7-0.1-3.2,0.3-4.3,1.1c-1.2,0.9-2.1,2-2.7,3.5v19.7
					l5.4,0.9v4.1H1080z"/>
			</g>
		</g>
		<g>
			<g class="st23">
				<path class="st8" d="M1124.7,709.3c-3.3,0-6.2-0.7-8.7-2.2c-2.5-1.5-4.4-3.5-5.7-6.1c-1.3-2.6-2-5.6-2-9.1v-1.4
					c0-3.3,0.7-6.3,2.1-8.9s3.3-4.7,5.6-6.2c2.3-1.5,4.9-2.3,7.6-2.3c3.2,0,5.9,0.6,8.1,1.9c2.2,1.3,3.8,3.1,4.9,5.4
					c1.1,2.3,1.7,5.1,1.7,8.2v4h-23.3l-0.1,0.2c0,2.2,0.4,4.2,1.2,5.9c0.8,1.7,1.9,3.1,3.3,4.1c1.4,1,3.2,1.5,5.2,1.5
					c2.2,0,4.2-0.3,5.8-0.9c1.7-0.6,3.1-1.5,4.3-2.5l2.6,4.1c-1.3,1.2-3,2.2-5.1,3C1130.2,708.9,1127.7,709.3,1124.7,709.3z
					 M1115.3,687.8h16.6v-0.8c0-1.7-0.3-3.2-0.9-4.5c-0.6-1.3-1.5-2.4-2.7-3.1s-2.7-1.1-4.5-1.1c-1.5,0-2.8,0.4-4,1.2
					c-1.2,0.8-2.2,1.9-3,3.4s-1.3,3-1.5,4.8L1115.3,687.8z"/>
			</g>
		</g>
	</g>
	<g id="food">
		
			<image style="overflow:visible;opacity:0.1;enable-background:new    ;" width="66" height="57" xlink:href="509E3A946D5847CD.png"  transform="matrix(1 0 0 1 553.15 698.15)">
		</image>
		<path class="st25" d="M569.7,719.6c-1-1.2-2-2.5-3-3.7c-1.7-2.2-3.4-4.3-5.1-6.5c-0.1-0.2-0.3-0.3-0.4-0.5
			c4.5,0.5,8.9,1.1,13.2,1.6c-0.2,1,0,2.1,0.4,3c1.2,3,4.6,4.5,7.6,3.3c0,0,0.1,0,0.1-0.1c1.9-0.8,3.3-2.7,3.5-4.8
			c2,0.2,4.1,0.5,6.2,0.7c1.4,0.2,2.9,0.4,4.3,0.5c-1,0.4-1.8,1-2.4,1.9c-0.4,0.5-0.7,1.2-0.8,1.8l0,0c-0.1,0-0.1,0.1-0.1,0.2
			c-0.4,0.7-0.4,1.6,0.2,2.2c0.1,0.3,0.1,0.6,0.2,0.9c0.4,1.4,0.2,2.8-0.5,4.1c-0.2-0.1-0.1-0.2-0.2-0.4c-0.8-2.4-3.4-3.8-5.8-3
			c-0.3,0.1-0.5,0.2-0.7,0.3c-2.3,1.2-3.2,4-2,6.3c0.5,0.9,1.2,1.6,2.1,2c-0.3,0.8-0.5,1.6-0.5,2.5c-1.6,0.2-1.7,1-1.6,1.9
			c0.1,0.7,0.5,1.4,1.1,1.8c-0.3,0.6-0.6,1.1-0.9,1.6c-0.2,0.3-0.5,0.5-0.5,0.8c-0.9-1.1-1.7-2.1-2.6-3.2l-5-6.4
			c1.9-1.5,2.6-3.9,1.9-6.2c-0.7-2.2-2.7-3.7-4.9-3.9C572.2,718.4,570.8,718.8,569.7,719.6z M569.8,711.9c-0.4,0-0.5,0.2-0.3,0.7
			c0.3,0.8,0.3,0.8-0.4,1.1l0,0c-1.1,0.5-1.1,0.5-0.5,1.5c0.2,0.4,0.3,1,0.6,1.1s0.8-0.3,1.2-0.5c0.7-0.3,0.7-0.3,1,0.3
			s0.4,0.6,0.8,0.1c1.1-0.9,1.2-2.6,0.3-3.7C571.8,711.9,570.7,711.6,569.8,711.9L569.8,711.9z M590.2,718.5c0.5-0.1,1-0.4,1.4-0.8
			c0.2-0.2,0.3-0.4-0.1-0.6c-0.8-0.5-0.8-0.5-0.3-1.3c0.7-1,0.7-1-0.4-1.7s-1.1-0.7-1.8,0.4c-0.4,0.7-0.4,0.7-1.1,0.2
			c-0.3-0.2-0.5-0.2-0.7,0.2c-0.3,0.9-0.2,1.9,0.5,2.6C588.3,718.4,589.3,718.7,590.2,718.5z M583.8,730c0.7-0.1,0.7-0.1,0.6-0.7
			c-0.4-1.1-1.4-1.7-2.5-1.7c-1.1,0.1-2.1,0.9-2.4,2c-0.2,0.9-0.2,1,0.8,0.8c0.3-0.1,0.5,0,0.5,0.4s0.1,0.9,0.1,1.3
			c0,0.3,0.1,0.3,0.3,0.3l1.4-0.1c0.8-0.1,0.8-0.1,0.7-0.9c0-0.2,0-0.4,0-0.6C583.1,730.2,583.3,730,583.8,730z M583.3,721.1
			l-0.1-0.5c-0.2-0.8-0.9-1.3-1.7-1.1c-0.3,0.1-0.5,0.2-0.7,0.4c-0.6,0.5-0.9,1.4-0.8,2.2c0,0.8,0.5,1.3,1.5,1.4
			c0.8,0.2,1.6-0.2,1.8-1C583.5,722.1,583.5,721.6,583.3,721.1z"/>
		<path class="st26" d="M600,713.5c2.1,0.2,4.2,0.5,6.2,0.7c0.4,0,0.3,0.3,0.3,0.5c-0.9,7.2-3.5,14.1-7.7,20.1
			c-2.5,3.6-5.6,6.9-9,9.7c-0.3,0.2-0.4,0.2-0.6-0.1c-1.2-1.6-2.5-3.2-3.8-4.8c0.1,0,0.1,0,0.2-0.1c2-1.7,3.9-3.5,5.6-5.5
			c2.3-2.8,4.3-5.9,5.7-9.2c1.2-2.7,2.1-5.6,2.6-8.6C599.8,715.3,600,714.5,600,713.5z"/>
		<path class="st27" d="M600,713.5c0,0.9-0.1,1.8-0.3,2.7c-0.5,2.9-1.4,5.8-2.6,8.5c-1.5,3.3-3.4,6.4-5.8,9.2
			c-1.7,2-3.6,3.8-5.6,5.5c-0.1,0-0.1,0.1-0.2,0.1l-1.2-1.5c0-0.4,0.4-0.6,0.5-0.8c0.4-0.5,0.7-1.1,0.9-1.6c0.1,0,0.2,0.1,0.3,0.1
			c0.8,0.3,1.6,0,2-0.7c0.4-0.5,0.4-1.3,0-1.8c-0.4-0.6-1.1-1.1-1.8-1.3c0-0.8,0.2-1.7,0.5-2.5c1.3,0.7,2.8,0.7,4.2,0
			c1-0.5,1.8-1.4,2.2-2.4c0.3-0.9,0.4-1.9,0.3-2.8c0.7-1.2,0.9-2.7,0.5-4l-0.2-0.9c0.8,0.4,1.9,0.3,2.6-0.3c0.8-0.4,1-1.4,0.6-2.2
			c0-0.1-0.1-0.1-0.1-0.2c-0.4-0.7-1.3-1-2.1-0.6c-0.1,0.1-0.2,0.1-0.3,0.2c-0.3,0.2-0.6,0.4-0.8,0.7c0-0.7,0.3-1.3,0.8-1.8
			c0.6-0.8,1.4-1.5,2.4-1.9C597.7,713.2,598.8,713.4,600,713.5z"/>
		<path class="st28" d="M586.2,711.9c-0.3,3.2-3.2,5.5-6.4,5.2c-2.2-0.2-4.1-1.6-4.8-3.7c-0.4-0.9-0.6-2-0.4-3
			c3.7,0.5,7.3,0.9,11,1.3L586.2,711.9z M581.9,714.2c0.6-0.1,0.8-0.5,0.7-0.9c-0.1-0.3-0.5-0.5-0.8-0.5c-0.3,0.1-0.5,0.4-0.5,0.7
			c0,0,0,0.1,0,0.1C581.5,714.2,581.7,714.3,581.9,714.2L581.9,714.2z M578.6,712.6c0-0.2-0.3-0.4-0.5-0.4c0,0,0,0-0.1,0
			c-0.3,0-0.5,0.3-0.4,0.5c0,0,0,0,0,0.1c0,0.3,0.3,0.4,0.5,0.4c0,0,0.1,0,0.1,0C578.6,713.2,578.7,712.9,578.6,712.6L578.6,712.6z
			 M579.4,714.4c-0.3,0.1-0.4,0.2-0.3,0.5s0.3,0.5,0.6,0.4c0.2-0.1,0.4-0.3,0.3-0.5c0,0,0,0,0,0
			C579.9,714.4,579.7,714.3,579.4,714.4L579.4,714.4z M580.7,712.2c-0.1-0.2-0.3-0.3-0.5-0.2c-0.2,0.1-0.2,0.2-0.2,0.4
			c0,0.2,0.1,0.3,0.3,0.3c0,0,0.1,0,0.1,0C580.7,712.6,580.7,712.4,580.7,712.2L580.7,712.2z"/>
		<path class="st28" d="M569.7,719.6c1.1-0.8,2.5-1.3,3.9-1.2c3.1,0.3,5.4,3,5.1,6.1c-0.1,1.6-0.9,3-2.1,4l-5.8-7.4
			C570.4,720.6,570.1,720.1,569.7,719.6z M576.5,725.1c0.4-0.1,0.7-0.4,0.6-0.8c-0.1-0.4-0.5-0.6-0.8-0.5c-0.4,0.1-0.6,0.4-0.5,0.8
			c0,0,0,0,0,0c0,0.3,0.3,0.5,0.6,0.5C576.4,725.1,576.4,725.1,576.5,725.1L576.5,725.1z M572.4,721.3c0.1,0.4,0.3,0.6,0.7,0.6
			c0.4-0.1,0.6-0.4,0.5-0.8c-0.1-0.3-0.4-0.6-0.8-0.5C572.5,720.7,572.3,720.9,572.4,721.3L572.4,721.3z M576,720.9
			c-0.3,0-0.4,0.3-0.4,0.6c0,0,0,0,0,0.1c0.1,0.3,0.3,0.5,0.6,0.4c0,0,0,0,0,0c0.3-0.1,0.5-0.3,0.4-0.6c0,0,0,0,0-0.1
			C576.6,720.9,576.4,720.8,576,720.9L576,720.9z M574.4,723.3c0.1,0.2,0.2,0.3,0.5,0.2s0.3-0.2,0.2-0.4c0-0.2-0.1-0.3-0.3-0.3
			c0,0,0,0-0.1,0C574.5,722.9,574.4,723,574.4,723.3C574.4,723.3,574.4,723.3,574.4,723.3L574.4,723.3z"/>
		<path class="st28" d="M593.3,724.1c0.1,1,0,1.9-0.3,2.9c-0.4,1-1.2,1.9-2.2,2.4c-1.3,0.7-2.8,0.7-4.2,0c-2.3-1.1-3.3-4-2.1-6.3
			c0.4-0.9,1.1-1.6,2-2.1c2.3-1.2,5.1-0.3,6.2,2c0.1,0.2,0.2,0.5,0.3,0.8C593.2,723.9,593.1,724.1,593.3,724.1z M591,726.4
			c0.3-0.1,0.5-0.4,0.4-0.7c0,0,0,0,0,0c0-0.3-0.3-0.5-0.6-0.5c0,0-0.1,0-0.1,0c-0.4,0.1-0.5,0.4-0.5,0.7
			C590.3,726.3,590.7,726.5,591,726.4C591,726.4,591,726.4,591,726.4z M587.2,723.1c0,0.3,0.3,0.4,0.6,0.4c0,0,0.1,0,0.1,0
			c0.3,0,0.5-0.3,0.4-0.6c0,0,0-0.1,0-0.1c-0.1-0.4-0.3-0.5-0.7-0.4S587.1,722.6,587.2,723.1L587.2,723.1z M591.1,722.9
			c-0.1-0.2-0.3-0.4-0.6-0.4c-0.3,0-0.4,0.3-0.4,0.6c0,0,0,0,0,0.1c0.1,0.3,0.4,0.4,0.6,0.3c0,0,0,0,0,0
			C591.1,723.5,591.1,723.2,591.1,722.9L591.1,722.9z M587.9,725.1c-0.1-0.4-0.3-0.6-0.6-0.5c-0.2,0-0.4,0.2-0.4,0.5c0,0,0,0,0,0.1
			c0.1,0.3,0.2,0.5,0.5,0.4S587.9,725.3,587.9,725.1L587.9,725.1z M588.2,727c0.1,0.2,0.3,0.4,0.5,0.3c0.2,0,0.4-0.2,0.3-0.5
			c0,0,0,0,0-0.1c0-0.2-0.2-0.4-0.4-0.3c0,0-0.1,0-0.1,0C588.3,726.5,588.2,726.7,588.2,727L588.2,727z M589.7,724.6
			c-0.1-0.3-0.2-0.4-0.4-0.3s-0.2,0.2-0.2,0.4s0.2,0.3,0.4,0.2C589.6,724.9,589.7,724.8,589.7,724.6
			C589.7,724.6,589.7,724.6,589.7,724.6L589.7,724.6z"/>
		<path class="st29" d="M569.8,711.9c1.2-0.3,2.4,0.2,3,1.2c0.6,1.1,0.4,2.4-0.5,3.2c-0.5,0.4-0.5,0.4-0.8-0.2s-0.3-0.7-1-0.3
			c-0.4,0.2-0.8,0.6-1.2,0.5s-0.4-0.7-0.6-1.1c-0.5-1-0.5-1.1,0.5-1.5l0,0c0.8-0.4,0.8-0.4,0.4-1.1
			C569.3,712.1,569.3,711.9,569.8,711.9z"/>
		<path class="st29" d="M590.2,718.5c-0.9,0.2-1.9-0.1-2.5-0.9c-0.6-0.7-0.8-1.7-0.5-2.6c0.1-0.4,0.3-0.4,0.7-0.2
			c0.7,0.5,0.7,0.4,1.1-0.2c0.7-1.1,0.7-1.1,1.8-0.4s1,0.7,0.4,1.7c-0.5,0.8-0.5,0.8,0.3,1.3c0.3,0.2,0.3,0.4,0.1,0.6
			C591.2,718.1,590.7,718.4,590.2,718.5z"/>
		<path class="st29" d="M583.8,730c-0.5,0-0.7,0.2-0.5,0.7c0,0.2,0,0.4,0,0.6c0.2,0.8,0.1,0.9-0.7,0.9c-0.5,0-0.9,0.1-1.4,0.1
			c-0.3,0-0.3,0-0.3-0.3c0-0.5-0.1-0.9-0.2-1.3s-0.2-0.4-0.5-0.4c-0.9,0.1-1,0.1-0.8-0.8c0.3-1.1,1.2-1.9,2.4-2
			c1.1,0,2.1,0.6,2.5,1.7C584.5,729.9,584.5,729.9,583.8,730z"/>
		<path class="st30" d="M586.2,731.9c0.8,0.1,1.4,0.6,1.8,1.3c0.4,0.5,0.4,1.3,0,1.8c-0.4,0.7-1.2,1-2,0.7c-0.1,0-0.2-0.1-0.3-0.1
			c-0.6-0.4-1-1.1-1.1-1.8C584.5,732.9,584.6,732,586.2,731.9z"/>
		<path class="st30" d="M593.5,716.8c0.3-0.2,0.5-0.5,0.8-0.7c0.6-0.6,1.6-0.5,2.1,0.1c0.1,0.1,0.2,0.2,0.2,0.3
			c0.5,0.7,0.4,1.7-0.2,2.2c-0.1,0.1-0.2,0.1-0.2,0.2c-0.8,0.6-1.8,0.7-2.6,0.3c-0.6-0.6-0.6-1.5-0.2-2.2
			C593.5,717,593.5,717,593.5,716.8L593.5,716.8z"/>
		<path class="st30" d="M583.3,721.1c0.1,0.4,0.1,0.9,0,1.3c-0.3,0.8-1,1.2-1.8,1c-0.9-0.1-1.4-0.6-1.5-1.4
			c-0.1-0.8,0.2-1.7,0.8-2.2c0.5-0.6,1.4-0.6,2,0c0.2,0.2,0.4,0.5,0.4,0.8C583.3,720.8,583.3,721,583.3,721.1z"/>
		<path class="st27" d="M593.5,716.8c0,0.1,0,0.2-0.1,0.2c0,0,0,0,0,0C593.4,717,593.4,716.9,593.5,716.8z"/>
		<path class="st26" d="M581.9,714.2c-0.2,0-0.5-0.1-0.6-0.5c-0.1-0.4,0.1-0.7,0.4-0.8c0,0,0,0,0,0c0.3,0,0.7,0.1,0.8,0.5
			C582.7,713.8,582.5,714.1,581.9,714.2z"/>
		<path class="st26" d="M578.6,712.6c0.1,0.3,0,0.6-0.3,0.7c-0.2,0.1-0.5,0-0.6-0.3c0,0,0-0.1,0-0.1c-0.1-0.2,0.1-0.5,0.3-0.6
			c0,0,0.1,0,0.1,0C578.3,712.2,578.5,712.3,578.6,712.6z"/>
		<path class="st26" d="M579.4,714.4c0.3-0.1,0.5,0,0.5,0.3s0,0.5-0.3,0.5c-0.2,0.1-0.5-0.1-0.6-0.3c0,0,0,0,0-0.1
			C579,714.6,579.2,714.4,579.4,714.4z"/>
		<path class="st26" d="M580.7,712.2c0,0.2-0.1,0.4-0.3,0.4c-0.2,0-0.4,0-0.4-0.2s0-0.4,0.3-0.4C580.5,711.9,580.7,712,580.7,712.2
			C580.7,712.2,580.7,712.2,580.7,712.2z"/>
		<path class="st26" d="M576.5,725.1c-0.3,0.1-0.6,0-0.7-0.3c0,0,0-0.1,0-0.1c-0.1-0.4,0.1-0.7,0.5-0.8c0,0,0,0,0,0
			c0.4-0.1,0.7,0.2,0.8,0.5C577.2,724.7,576.9,725,576.5,725.1z"/>
		<path class="st26" d="M572.4,721.3c-0.1-0.3,0.1-0.6,0.4-0.7c0,0,0,0,0.1,0c0.4-0.1,0.7,0.2,0.8,0.5c0.1,0.4-0.2,0.7-0.5,0.8
			C572.7,721.9,572.4,721.7,572.4,721.3z"/>
		<path class="st26" d="M576,720.9c0.3-0.2,0.6-0.1,0.7,0.2s0.1,0.6-0.2,0.7c-0.1,0-0.2,0.1-0.3,0.1c-0.3,0.1-0.6-0.1-0.7-0.4
			c0,0,0,0,0-0.1C575.6,721.2,575.7,721,576,720.9C576,720.9,576,720.9,576,720.9z"/>
		<path class="st26" d="M574.4,723.3c-0.1-0.2,0.1-0.4,0.3-0.5c0,0,0,0,0,0c0.2,0,0.3,0.1,0.4,0.2s0,0.4-0.2,0.5
			C574.7,723.6,574.5,723.5,574.4,723.3C574.4,723.3,574.4,723.3,574.4,723.3z"/>
		<path class="st26" d="M591,726.4c-0.4,0-0.7-0.1-0.7-0.5s0-0.7,0.5-0.7c0.3-0.1,0.6,0.1,0.7,0.4c0,0,0,0.1,0,0.1
			C591.5,726,591.3,726.3,591,726.4z"/>
		<path class="st26" d="M587.2,723.1c-0.1-0.3,0-0.6,0.3-0.7c0,0,0.1,0,0.1,0c0.3-0.1,0.6,0,0.7,0.3c0,0,0,0.1,0,0.1
			c0.1,0.3-0.1,0.6-0.4,0.7C587.6,723.6,587.3,723.4,587.2,723.1C587.2,723.1,587.2,723.1,587.2,723.1z"/>
		<path class="st26" d="M591.1,722.9c0,0.3,0,0.5-0.3,0.6c-0.3,0.1-0.5-0.1-0.6-0.3c0,0,0,0,0,0c-0.1-0.3,0-0.5,0.3-0.6
			c0,0,0,0,0.1,0C590.8,722.5,591,722.7,591.1,722.9z"/>
		<path class="st26" d="M587.8,725.1c0.1,0.3-0.2,0.4-0.4,0.4s-0.5-0.2-0.5-0.4c-0.1-0.2,0.1-0.5,0.3-0.5c0,0,0.1,0,0.1,0
			C587.6,724.5,587.8,724.7,587.8,725.1z"/>
		<path class="st26" d="M588.2,727c0-0.3,0.1-0.5,0.3-0.5s0.5,0,0.5,0.3c0.1,0.2-0.1,0.4-0.3,0.5c0,0,0,0,0,0
			C588.5,727.4,588.3,727.2,588.2,727z"/>
		<path class="st26" d="M589.7,724.6c0,0.1,0,0.3-0.2,0.3c-0.2,0.1-0.3,0-0.4-0.2c0,0,0,0,0,0c-0.1-0.2,0-0.3,0.2-0.4c0,0,0,0,0,0
			C589.5,724.3,589.6,724.4,589.7,724.6z"/>
		<g id="Layer_2-3">
			
				<image style="overflow:visible;opacity:0.17;enable-background:new    ;" width="69" height="76" xlink:href="509E3A946D5847CF.png"  transform="matrix(1 0 0 1 962 481)">
			</image>
			<path class="st1" d="M1009.4,499.8c-1.1,4.9-6,8-10.9,7C999.6,501.8,1004.5,498.7,1009.4,499.8z"/>
			<path class="st2" d="M991.2,537c0,0-6.7,2.3-11-5.1s-2.6-15.9-2.6-15.9s1.8-12.4,12.7-12.5c1,0.1,2,0.3,2.9,0.7
				c1.1,0.6,4,2.5,4,2.5c0.9,0.8,2.2,0.9,3.2,0.5c2-0.8,6.3,0.3,6.3,0.3s8.1,1.6,8.4,13s-11.9,17.8-11.9,17.8
				c-2.6,1.4-5.6,1.7-8.4,0.7c-0.9-0.5-1.6-1.1-2.3-1.8C992.1,536.5,991.2,537,991.2,537z"/>
			<path class="st3" d="M999.7,506.7c0,0-0.1,0.3-0.9,0.1c-0.7-0.2-1.3-0.6-1.9-1c0,0-0.2-0.4,0-1.5s-1.6-5.9-1.6-5.9l-1.5-2.8
				c0,0-0.4-1,0.8-1c0.7,0,1.4,0.1,2,0.5c0,0,0.9,0.2,1.5,2.8s0.9,3.9,0.9,3.9s0.3,1.3,0.4,2.2C999.6,504.8,999.7,505.8,999.7,506.7
				z"/>
		</g>
		<g id="SJKajA.tif">
			
				<image style="overflow:visible;opacity:0.15;enable-background:new    ;" width="121" height="80" xlink:href="509E3A946D5847CA.png"  transform="matrix(1 0 0 1 1292 639)">
			</image>
			<path class="st31" d="M1368.4,682c-0.5,0.9-1.1,1.7-1.7,2.5c-1.1,1.1-2.4,1.9-3.9,2.4c-4.5,1.7-8.8,0.9-13-1.1
				c-2.5-1.2-4.7-2.8-7.1-4.2c-0.4-0.2-0.4-0.5-0.2-1c0.7-1.2,1.4-2.3,2-3.6c0.2-0.3,0.1-0.7-0.1-0.9c-0.3-0.2-0.7-0.1-0.9,0.2
				c-0.7,0.9-1.5,1.7-2.3,2.6c-0.2,0.2-0.4,0.5-0.6,0.7c-0.3,0.4-0.6,0.4-1,0.1c-1.7-1-3.5-2.1-5.2-3.2c-3.6-2.2-7.2-4.3-10.8-6.5
				c-0.6-0.3-0.7-0.6-0.3-1.2s0.6-1.2,1-1.8c0.2-0.4,0.2-0.7-0.1-0.9s-0.6-0.1-0.9,0.2c-0.5,0.6-1.1,1.2-1.6,1.8s-0.6,0.5-1.1,0.2
				c-1.9-1.2-3.9-2.3-5.9-3.5c-2.5-1.5-4.6-3.6-6.1-6c-0.1-0.2-0.2-0.4-0.4-0.5l-0.7-1.6c0-0.1,0-0.3,0-0.5
				c-0.3-1.1,0.2-2.3,1.3-2.7c1-0.5,2.1-0.7,3.2-0.8c2.8-0.3,5.7-0.1,8.5,0.4c4.1,0.8,8.2,1.8,12.4,2.7c0.5,0.1,0.6,0.3,0.6,0.8
				c0,0.9,0,1.8,0,2.7c0,0.2,0.1,0.5,0.3,0.6c0.2,0.1,0.5,0.1,0.7,0c0.1-0.1,0.2-0.3,0.2-0.5c0.2-0.8,0.4-1.5,0.5-2.2
				c0.2-0.5,0.4-0.7,1-0.6c6.2,1.3,12.3,2.6,18.5,4c0.5,0.1,0.7,0.3,0.6,0.8c0,1.4,0,2.7-0.1,4.1c0,0.2,0,0.4,0.1,0.6
				c0.2,0.2,0.4,0.3,0.7,0.2c0.3,0,0.5-0.2,0.5-0.5c0.3-1.1,0.5-2.2,0.8-3.3c0-0.2,0.1-0.5,0.1-0.7c0.1-0.3,0.3-0.5,0.6-0.5
				c0,0,0.1,0,0.1,0c2.8,0.5,5.4,1.6,7.8,3.1c2.1,1.6,3.5,3.8,4.1,6.4c0.4,1.7,0.5,3.5,0.4,5.2c-0.1,0.6-0.2,1.1-0.3,1.7
				C1369.6,679.1,1369.1,680.6,1368.4,682z"/>
			<path class="st32" d="M1368.9,682.2c0.7-1.4,1.2-2.9,1.5-4.5c0.1-0.6,0.2-1.1,0.3-1.7c1.1,0,2.1-0.4,3-1c0.6-0.4,1-1.1,0.9-1.8
				c0-0.3,0-0.7-0.1-1.1c-0.1-0.4,0-0.8,0.1-1.1c0.2-0.6,0.8-0.9,1.3-0.9c0.3,0,0.3-0.1,0.4-0.4c0.1-0.7,0.2-1.4,0.5-2
				c0.4-1.1,1-1.3,2-0.8c0.2,0.1,0.3,0.1,0.3-0.1c0.2-0.5,0.5-1,0.7-1.5c0.2-0.4,0.5-0.8,0.8-1.1c0.4-0.4,1-0.5,1.4-0.1c0,0,0,0,0,0
				c0,0,0,0,0.1,0c0.2,0.2,0.3,0.5,0.6,0.5c0.2-0.1,0.5-0.2,0.6-0.4c0.6-0.4,1.3-0.6,1.9-0.8c1.1-0.2,2.2,0.6,2.3,1.8
				c0,0.1,0,0.1,0,0.2c0,0.5,0,0.9-0.2,1.4c-0.2,0.7,0,1.4,0.5,1.9c0.4,0.4,0.4,1,0,1.4c-0.4,0.3-0.5,1-0.2,1.4
				c0.2,0.4,0.1,0.9-0.3,1.2c-0.3,0.3-0.6,0.6-1,0.8c-0.4,0.2-0.7,0.6-0.8,1.1c0,0.2-0.2,0.4-0.4,0.5c-1.3,0.8-2.6,1.5-4,2.1
				c-2.1,0.9-4.4,1.5-6.7,1.8c-0.1,0-0.1,0-0.2,0c-0.1,0-0.2,0.1-0.2,0.2s0.1,0.1,0.2,0.1c1.6,0.3,3.3,0.5,5,0.6
				c1.5,0,2.9-0.6,4-1.5c0.4-0.4,0.8-0.6,1.3-0.7c0.6-0.2,1.4,0.1,1.6,0.8c0,0.1,0,0.2,0.1,0.3c0.1,0.3,0.1,0.6,0.2,0.9
				c0.8-0.3,1.7-0.5,2.6-0.5c0.4,0,0.7,0,1.1,0.1c0.8,0,1.5,0.7,1.5,1.6c0,0.1,0,0.3,0,0.4c0,0.6,0,0.5,0.6,0.5
				c1.3,0,2.7,0.4,3.7,1.3c0.5,0.4,0.7,1.1,0.4,1.6c-0.2,0.4-0.4,0.8-0.7,1.1c-0.2,0.2-0.1,0.2,0,0.4c0.4,0.3,0.8,0.7,1.2,1.1
				c0.6,0.6,0.8,1.6,0.3,2.4c-0.4,0.6-1,1-1.7,1c-0.5,0-1,0-1.5,0c-0.2,0-0.3,0-0.3,0.2c0,0.4,0,0.8-0.1,1.2
				c-0.3,0.8-1.1,1.3-1.9,1.1c-0.5-0.1-1.1-0.3-1.6-0.6c-0.6-0.3-1.3-0.7-1.8-1c-0.3-0.2-0.4-0.2-0.6,0.1c-0.1,0.1-0.2,0.2-0.3,0.4
				c-0.4,0.5-1.1,0.6-1.7,0.2c-0.7-0.4-1.3-1-1.8-1.6c-0.3-0.3-0.5-0.6-0.7-0.9c-0.1-0.2-0.3-0.2-0.4-0.2c-0.3,0.1-0.7,0.3-1,0.4
				c-0.7,0.3-1.5-0.1-1.7-0.8c0,0,0,0,0,0c-0.2-0.4-0.3-0.8-0.3-1.3c-0.2-1.4-0.9-2.7-1.9-3.6c-1.3-1.1-2.7-2-4.2-2.7
				c0.3,0.4,0.6,0.8,0.9,1.2c1.7,2.3,3,4.9,4,7.6c0.3,0.7,0.4,1.4,0.3,2.2c-0.1,0.5,0,1.1,0.1,1.6c0,0.1,0,0.2,0.1,0.4
				c0.2,0.8-0.2,1.6-1,1.8c-0.2,0.1-0.4,0.3-0.4,0.5c0.1,0.8-0.5,1.5-1.3,1.6c-0.1,0-0.2,0-0.4,0c-0.4,0-0.6,0.3-0.7,0.6
				c-0.2,0.5-0.5,0.9-0.9,1.3c-0.7,0.9-2,1.1-2.9,0.4c-0.2-0.2-0.5-0.4-0.6-0.7c-0.3-0.6-0.6-1.3-0.7-1.9c0-0.2-0.1-0.2-0.3-0.3
				c-1.4,0-1.9-0.6-1.6-2c0.2-0.6,0.4-1.3,0.6-1.9c0.1-0.2,0.1-0.3-0.1-0.4c-1.3-0.8-1.5-1.4-0.6-2.7c0.2-0.3,0.4-0.6,0.7-1
				c0.1-0.1,0.1-0.3,0-0.4c0,0,0,0,0,0c-0.9-1.1-0.8-1.7,0.2-2.6c0.3-0.3,0.6-0.6,0.9-0.9c0.4-0.5,0.6-1.2,0.3-1.8
				C1369.8,683.5,1369.4,682.8,1368.9,682.2z"/>
		</g>
	</g>
</g>
</svg>
