<svg xmlns="http://www.w3.org/2000/svg" xmlns:xlink="http://www.w3.org/1999/xlink" width="150" height="131" viewBox="0 0 150 131">
  <defs>
    <clipPath id="clip-logo-portrait">
      <rect width="150" height="131"/>
    </clipPath>
  </defs>
  <g id="logo-portrait" clip-path="url(#clip-logo-portrait)">
    <g id="Group_8" data-name="Group 8" transform="translate(-38.99 -21.242)">
      <g id="Group_6" data-name="Group 6" transform="translate(38.99 93.16)">
        <g id="Group_4" data-name="Group 4" transform="translate(0 40.592)">
          <path id="Path_44" data-name="Path 44" d="M117.124,281.9a1.077,1.077,0,0,1,1.05-.825,1.144,1.144,0,0,1,1.072.772l1.265,4.244h.021l1.265-4.244a1.143,1.143,0,0,1,1.071-.772,1.077,1.077,0,0,1,1.05.825l1,5.98a1.13,1.13,0,0,1,.01.182.743.743,0,0,1-.772.772c-.546,0-.761-.247-.836-.75l-.632-4.362h-.022l-1.286,4.49a.9.9,0,0,1-1.715,0l-1.286-4.49h-.021l-.633,4.362c-.075.5-.289.75-.836.75a.743.743,0,0,1-.772-.772,1.085,1.085,0,0,1,.011-.182Z" transform="translate(-82.702 -281.014)" fill="#44c8f5"/>
          <path id="Path_45" data-name="Path 45" d="M138.508,281.914a.8.8,0,1,1,1.607,0v3.74a1.642,1.642,0,0,0,1.65,1.768,1.683,1.683,0,0,0,1.639-1.768v-3.74a.8.8,0,1,1,1.607,0v3.826a3.254,3.254,0,0,1-6.5,0Z" transform="translate(-95.392 -281.014)" fill="#44c8f5"/>
          <path id="Path_46" data-name="Path 46" d="M156.1,281.914a.8.8,0,1,1,1.607,0v5.379h1.908a.727.727,0,0,1,.771.772.75.75,0,0,1-.771.708h-2.679a.8.8,0,0,1-.836-.879Z" transform="translate(-105.361 -281.014)" fill="#44c8f5"/>
          <path id="Path_47" data-name="Path 47" d="M165.318,282.706H164.15a.692.692,0,0,1-.729-.74.718.718,0,0,1,.729-.739h3.943a.717.717,0,0,1,.729.739.692.692,0,0,1-.729.74h-1.168v5.38a.8.8,0,1,1-1.608,0Z" transform="translate(-109.511 -281.098)" fill="#44c8f5"/>
          <path id="Path_48" data-name="Path 48" d="M177.2,281.914a.8.8,0,1,1,1.607,0V288a.8.8,0,1,1-1.607,0Z" transform="translate(-117.321 -281.014)" fill="#44c8f5"/>
          <path id="Path_49" data-name="Path 49" d="M184.122,281.9a1.077,1.077,0,0,1,1.051-.825,1.144,1.144,0,0,1,1.071.772l1.265,4.244h.021l1.265-4.244a1.143,1.143,0,0,1,1.071-.772,1.077,1.077,0,0,1,1.05.825l1,5.98a1.13,1.13,0,0,1,.01.182.742.742,0,0,1-.772.772c-.546,0-.761-.247-.836-.75l-.632-4.362h-.022l-1.286,4.49a.9.9,0,0,1-1.714,0l-1.286-4.49h-.021l-.633,4.362c-.075.5-.289.75-.836.75a.742.742,0,0,1-.771-.772,1.132,1.132,0,0,1,.01-.182Z" transform="translate(-120.673 -281.014)" fill="#44c8f5"/>
          <path id="Path_50" data-name="Path 50" d="M205.653,282.159c0-.536.268-.932.836-.932h2.658a.713.713,0,0,1,.761.739.725.725,0,0,1-.761.74H207.26v1.564h1.758a.725.725,0,0,1,.782.74.737.737,0,0,1-.782.74H207.26v1.629h1.983a.713.713,0,0,1,.761.74.725.725,0,0,1-.761.74h-2.765a.782.782,0,0,1-.825-.8Z" transform="translate(-133.446 -281.098)" fill="#44c8f5"/>
          <path id="Path_51" data-name="Path 51" d="M217.6,282.052a.787.787,0,0,1,.825-.825h1.779c2.4,0,3.772,1.543,3.772,3.922a3.465,3.465,0,0,1-3.665,3.708h-1.865a.785.785,0,0,1-.846-.8Zm1.607,5.326h1.082c1.383,0,2.015-1.018,2.015-2.3,0-1.372-.643-2.368-2.122-2.368h-.975Z" transform="translate(-140.219 -281.098)" fill="#44c8f5"/>
          <path id="Path_52" data-name="Path 52" d="M234.6,281.914a.8.8,0,1,1,1.607,0V288a.8.8,0,1,1-1.607,0Z" transform="translate(-149.851 -281.014)" fill="#44c8f5"/>
          <path id="Path_53" data-name="Path 53" d="M242.2,281.819a1.26,1.26,0,0,1,1.146-.889,1.213,1.213,0,0,1,1.147.889l2.1,5.829a1.252,1.252,0,0,1,.085.4.714.714,0,0,1-.739.707.751.751,0,0,1-.782-.557l-.321-1.007h-2.979l-.321,1a.744.744,0,0,1-.772.568.769.769,0,0,1-.793-.75.925.925,0,0,1,.075-.354Zm.118,3.89h2.036l-1-3.108h-.022Z" transform="translate(-152.894 -280.93)" fill="#44c8f5"/>
          <path id="Path_54" data-name="Path 54" d="M264.238,282.159c0-.536.268-.932.836-.932h2.658a.713.713,0,0,1,.761.739.725.725,0,0,1-.761.74h-1.886v1.564H267.6a.725.725,0,0,1,.782.74.738.738,0,0,1-.782.74h-1.757v1.629h1.982a.713.713,0,0,1,.761.74.725.725,0,0,1-.761.74h-2.765a.782.782,0,0,1-.825-.8Z" transform="translate(-166.649 -281.098)" fill="#44c8f5"/>
          <path id="Path_55" data-name="Path 55" d="M276.039,281.914a.768.768,0,0,1,.8-.836,1,1,0,0,1,.675.354l3.4,4.533h.022v-4.05a.8.8,0,1,1,1.607,0V288a.768.768,0,0,1-.8.836,1.025,1.025,0,0,1-.675-.354l-3.4-4.479h-.021v4a.8.8,0,1,1-1.607,0Z" transform="translate(-173.337 -281.014)" fill="#44c8f5"/>
          <path id="Path_56" data-name="Path 56" d="M42.676,304.15c.782,0,2.3.257,2.3,1.2a.68.68,0,0,1-.665.718c-.439,0-.739-.375-1.639-.375-1.329,0-2.015,1.125-2.015,2.433a2.1,2.1,0,0,0,2.015,2.368c.9,0,1.265-.45,1.7-.45a.754.754,0,0,1,.707.728c0,1.029-1.619,1.265-2.411,1.265a3.952,3.952,0,0,1,0-7.887Z" transform="translate(-38.99 -294.09)" fill="#44c8f5"/>
          <path id="Path_57" data-name="Path 57" d="M54.6,308.093a3.7,3.7,0,0,1,3.687-3.943,3.748,3.748,0,0,1,3.686,3.943,3.695,3.695,0,1,1-7.373,0Zm5.7,0c0-1.3-.675-2.465-2.015-2.465s-2.015,1.168-2.015,2.465.654,2.465,2.015,2.465S60.3,309.4,60.3,308.093Z" transform="translate(-47.838 -294.09)" fill="#44c8f5"/>
          <path id="Path_58" data-name="Path 58" d="M73.272,305.123a1.077,1.077,0,0,1,1.05-.825,1.144,1.144,0,0,1,1.072.772l1.265,4.244h.021l1.265-4.244a1.143,1.143,0,0,1,1.071-.772,1.077,1.077,0,0,1,1.05.825l1,5.98a1.131,1.131,0,0,1,.01.182.743.743,0,0,1-.772.772c-.547,0-.761-.247-.836-.75l-.632-4.362h-.022l-1.286,4.49a.9.9,0,0,1-1.715,0l-1.286-4.49H74.5l-.633,4.362c-.075.5-.289.75-.836.75a.743.743,0,0,1-.772-.772,1.087,1.087,0,0,1,.011-.182Z" transform="translate(-57.849 -294.174)" fill="#44c8f5"/>
          <path id="Path_59" data-name="Path 59" d="M95.291,305.123a1.077,1.077,0,0,1,1.05-.825,1.143,1.143,0,0,1,1.071.772l1.265,4.244H98.7l1.265-4.244a1.144,1.144,0,0,1,1.071-.772,1.077,1.077,0,0,1,1.051.825l1,5.98a1.132,1.132,0,0,1,.01.182.743.743,0,0,1-.771.772c-.547,0-.761-.247-.836-.75l-.633-4.362h-.021l-1.286,4.49a.9.9,0,0,1-1.714,0l-1.286-4.49h-.022l-.632,4.362c-.075.5-.289.75-.836.75a.743.743,0,0,1-.772-.772,1.13,1.13,0,0,1,.01-.182Z" transform="translate(-70.328 -294.174)" fill="#44c8f5"/>
          <path id="Path_60" data-name="Path 60" d="M115.709,305.134a.8.8,0,1,1,1.607,0v3.74a1.642,1.642,0,0,0,1.65,1.768,1.683,1.683,0,0,0,1.639-1.768v-3.74a.8.8,0,1,1,1.608,0v3.826a3.254,3.254,0,0,1-6.5,0Z" transform="translate(-82.47 -294.174)" fill="#44c8f5"/>
          <path id="Path_61" data-name="Path 61" d="M133.151,305.134a.768.768,0,0,1,.8-.836,1,1,0,0,1,.675.354l3.4,4.533h.022v-4.051a.8.8,0,1,1,1.607,0v6.087a.768.768,0,0,1-.8.836,1.025,1.025,0,0,1-.675-.354l-3.4-4.479h-.021v4a.8.8,0,1,1-1.607,0Z" transform="translate(-92.356 -294.174)" fill="#44c8f5"/>
          <path id="Path_62" data-name="Path 62" d="M150.742,305.134a.8.8,0,1,1,1.607,0v6.087a.8.8,0,1,1-1.607,0Z" transform="translate(-102.325 -294.174)" fill="#44c8f5"/>
          <path id="Path_63" data-name="Path 63" d="M160.168,304.15c.782,0,2.3.257,2.3,1.2a.68.68,0,0,1-.665.718c-.439,0-.739-.375-1.639-.375-1.329,0-2.015,1.125-2.015,2.433a2.1,2.1,0,0,0,2.015,2.368c.9,0,1.264-.45,1.7-.45a.754.754,0,0,1,.707.728c0,1.029-1.618,1.265-2.411,1.265a3.952,3.952,0,0,1,0-7.887Z" transform="translate(-105.578 -294.09)" fill="#44c8f5"/>
          <path id="Path_64" data-name="Path 64" d="M173.95,305.039a1.261,1.261,0,0,1,1.147-.889,1.212,1.212,0,0,1,1.146.889l2.1,5.83a1.251,1.251,0,0,1,.085.4.714.714,0,0,1-.739.707.751.751,0,0,1-.782-.557l-.321-1.008h-2.979l-.321,1a.745.745,0,0,1-.772.568.769.769,0,0,1-.793-.75.911.911,0,0,1,.075-.354Zm.118,3.89H176.1l-1-3.108h-.022Z" transform="translate(-114.215 -294.09)" fill="#44c8f5"/>
          <path id="Path_65" data-name="Path 65" d="M187.077,305.925h-1.168a.692.692,0,0,1-.729-.74.718.718,0,0,1,.729-.74h3.943a.718.718,0,0,1,.729.74.692.692,0,0,1-.729.74h-1.168v5.38a.8.8,0,1,1-1.607,0Z" transform="translate(-121.843 -294.258)" fill="#44c8f5"/>
          <path id="Path_66" data-name="Path 66" d="M198.961,305.134a.8.8,0,1,1,1.607,0v6.087a.8.8,0,1,1-1.607,0Z" transform="translate(-129.653 -294.174)" fill="#44c8f5"/>
          <path id="Path_67" data-name="Path 67" d="M205.393,305.378c0-.535.268-.932.836-.932h2.658a.713.713,0,0,1,.761.74.725.725,0,0,1-.761.74H207v1.564h1.757a.726.726,0,0,1,.782.739.738.738,0,0,1-.782.74H207V310.6h1.982a.713.713,0,0,1,.761.74.725.725,0,0,1-.761.739h-2.765a.782.782,0,0,1-.825-.8Z" transform="translate(-133.299 -294.258)" fill="#44c8f5"/>
          <path id="Path_68" data-name="Path 68" d="M219.511,305.925h-1.168a.692.692,0,0,1-.729-.74.718.718,0,0,1,.729-.74h3.943a.718.718,0,0,1,.729.74.692.692,0,0,1-.729.74h-1.168v5.38a.8.8,0,1,1-1.608,0Z" transform="translate(-140.226 -294.258)" fill="#44c8f5"/>
          <path id="Path_69" data-name="Path 69" d="M231.395,305.378c0-.535.268-.932.836-.932h2.658a.713.713,0,0,1,.761.74.725.725,0,0,1-.761.74H233v1.564h1.757a.726.726,0,0,1,.782.739.738.738,0,0,1-.782.74H233V310.6h1.982a.713.713,0,0,1,.761.74.725.725,0,0,1-.761.739H232.22a.782.782,0,0,1-.825-.8Z" transform="translate(-148.035 -294.258)" fill="#44c8f5"/>
          <path id="Path_70" data-name="Path 70" d="M246.338,304.15c.782,0,2.3.257,2.3,1.2a.68.68,0,0,1-.664.718c-.44,0-.74-.375-1.64-.375-1.328,0-2.014,1.125-2.014,2.433a2.1,2.1,0,0,0,2.014,2.368c.9,0,1.265-.45,1.7-.45a.754.754,0,0,1,.708.728c0,1.029-1.619,1.265-2.411,1.265a3.952,3.952,0,0,1,0-7.887Z" transform="translate(-154.415 -294.09)" fill="#44c8f5"/>
          <path id="Path_71" data-name="Path 71" d="M258.956,305.134a.8.8,0,1,1,1.607,0v2.272h3.365v-2.272a.8.8,0,1,1,1.607,0v6.087a.8.8,0,1,1-1.607,0v-2.337h-3.365v2.337a.8.8,0,1,1-1.607,0Z" transform="translate(-163.656 -294.174)" fill="#44c8f5"/>
          <path id="Path_72" data-name="Path 72" d="M276.72,305.134a.768.768,0,0,1,.8-.836,1,1,0,0,1,.675.354l3.4,4.533h.022v-4.051a.8.8,0,1,1,1.607,0v6.087a.768.768,0,0,1-.8.836,1.023,1.023,0,0,1-.675-.354l-3.4-4.479h-.022v4a.8.8,0,1,1-1.607,0Z" transform="translate(-173.723 -294.174)" fill="#44c8f5"/>
          <path id="Path_73" data-name="Path 73" d="M293.617,308.093a3.7,3.7,0,0,1,3.687-3.943,3.749,3.749,0,0,1,3.687,3.943,3.695,3.695,0,1,1-7.373,0Zm5.7,0c0-1.3-.675-2.465-2.015-2.465s-2.015,1.168-2.015,2.465.654,2.465,2.015,2.465S299.318,309.4,299.318,308.093Z" transform="translate(-183.3 -294.09)" fill="#44c8f5"/>
          <path id="Path_74" data-name="Path 74" d="M312.667,305.134a.8.8,0,1,1,1.607,0v5.38h1.908a.727.727,0,0,1,.771.772.75.75,0,0,1-.771.707H313.5a.794.794,0,0,1-.836-.879Z" transform="translate(-194.096 -294.174)" fill="#44c8f5"/>
          <path id="Path_75" data-name="Path 75" d="M322.365,308.093a3.7,3.7,0,0,1,3.687-3.943,3.749,3.749,0,0,1,3.687,3.943,3.695,3.695,0,1,1-7.373,0Zm5.7,0c0-1.3-.675-2.465-2.015-2.465s-2.015,1.168-2.015,2.465.654,2.465,2.015,2.465S328.066,309.4,328.066,308.093Z" transform="translate(-199.593 -294.09)" fill="#44c8f5"/>
          <path id="Path_76" data-name="Path 76" d="M346.959,307.386c.675,0,.943.343.943,1.029a3.392,3.392,0,0,1-3.493,3.622,3.952,3.952,0,0,1,0-7.887c1.618,0,2.947.76,2.947,1.511a.678.678,0,0,1-.664.75c-.729,0-.879-.782-2.282-.782-1.34,0-2.015,1.168-2.015,2.465s.654,2.465,2.015,2.465a1.673,1.673,0,0,0,1.821-1.693h-1.093a.74.74,0,1,1,0-1.479Z" transform="translate(-209.996 -294.09)" fill="#44c8f5"/>
          <path id="Path_77" data-name="Path 77" d="M359.327,305.134a.8.8,0,1,1,1.607,0v6.087a.8.8,0,1,1-1.607,0Z" transform="translate(-220.541 -294.174)" fill="#44c8f5"/>
          <path id="Path_78" data-name="Path 78" d="M365.759,305.378c0-.535.268-.932.836-.932h2.658a.713.713,0,0,1,.761.74.725.725,0,0,1-.761.74h-1.886v1.564h1.758a.725.725,0,0,1,.782.739.737.737,0,0,1-.782.74h-1.758V310.6h1.983a.713.713,0,0,1,.761.74.725.725,0,0,1-.761.739h-2.765a.782.782,0,0,1-.825-.8Z" transform="translate(-224.186 -294.258)" fill="#44c8f5"/>
        </g>
        <g id="Group_5" data-name="Group 5" transform="translate(0.444)">
          <path id="Path_79" data-name="Path 79" d="M40.014,190.925c0-2.211,1.382-3.686,3.317-3.686s3.317,1.474,3.317,3.686v9.03h.092c1.382-1.7,3.962-2.3,6.035-2.3,5.206,0,9.076,3.317,9.076,8.938V219.3c0,2.211-1.382,3.686-3.317,3.686s-3.317-1.474-3.317-3.686V207.741c0-3.087-1.935-4.561-4.331-4.561-2.718,0-4.238,1.981-4.238,4.561V219.3c0,2.211-1.382,3.686-3.317,3.686s-3.317-1.474-3.317-3.686Z" transform="translate(-40.014 -187.239)" fill="#44c8f5"/>
          <path id="Path_80" data-name="Path 80" d="M122.81,224.125c0,6.911-4.745,12.761-11.887,12.761s-11.887-5.851-11.887-12.761c0-6.727,4.884-12.854,11.887-12.854S122.81,217.4,122.81,224.125Zm-17.139,0c0,3.179,1.658,6.68,5.252,6.68s5.252-3.5,5.252-6.68-1.612-6.773-5.252-6.773S105.671,220.946,105.671,224.125Z" transform="translate(-73.465 -200.859)" fill="#44c8f5"/>
          <path id="Path_81" data-name="Path 81" d="M157.894,217.714a9.228,9.228,0,0,1-.691-3.133c0-1.474,1.382-2.672,3.317-2.672a3.161,3.161,0,0,1,3.133,2.626l3.824,12.67h.092l3.87-12.394c.507-1.8,1.428-2.9,3.363-2.9s2.856,1.106,3.363,2.9l3.87,12.394h.092l3.824-12.67a3.161,3.161,0,0,1,3.133-2.626,3.072,3.072,0,0,1,3.317,3.225,9.014,9.014,0,0,1-.645,2.488l-5.667,15.986c-.691,1.936-1.843,3.364-4.008,3.364-2.028,0-3.226-1.152-3.824-3.086L174.848,223.2h-.092l-3.409,10.689c-.6,1.934-1.8,3.086-3.824,3.086-2.165,0-3.317-1.428-4.008-3.364Z" transform="translate(-106.431 -201.221)" fill="#44c8f5"/>
          <path id="Path_82" data-name="Path 82" d="M249.161,226.29c.461,3.271,3.179,4.791,6.266,4.791,3.409,0,5.759-2.672,7.51-2.672a2.945,2.945,0,0,1,2.719,2.857c0,2.856-5.9,5.62-10.827,5.62-7.464,0-12.44-5.436-12.44-12.761,0-6.727,4.884-12.854,11.887-12.854,7.187,0,11.933,6.543,11.933,12.071,0,1.981-.876,2.949-2.9,2.949Zm10.412-4.423c-.368-2.9-2.211-5.067-5.3-5.067-2.949,0-4.929,2.257-5.252,5.067Z" transform="translate(-154.709 -200.859)" fill="#44c8f5"/>
          <path id="Path_83" data-name="Path 83" d="M317.012,219.011c-1.244,0-3.778-1.935-5.944-1.935-1.2,0-2.257.553-2.257,1.843,0,3.087,11.518,2.626,11.518,10.182,0,4.423-3.732,7.785-9.445,7.785-3.732,0-9.26-2.119-9.26-5.114a3.128,3.128,0,0,1,2.856-2.949c2.58,0,3.732,2.258,6.864,2.258,2.028,0,2.626-.645,2.626-1.889,0-3.041-11.518-2.58-11.518-10.182,0-4.607,3.732-7.74,8.984-7.74,3.271,0,8.293,1.521,8.293,4.792A2.865,2.865,0,0,1,317.012,219.011Z" transform="translate(-188.281 -200.859)" fill="#44c8f5"/>
          <path id="Path_84" data-name="Path 84" d="M352.474,208.348H351a2.687,2.687,0,0,1-2.9-2.9,2.833,2.833,0,0,1,2.9-2.9h1.474v-3.963c0-2.211,1.383-3.686,3.318-3.686s3.317,1.474,3.317,3.686v3.963H361c1.7,0,3.179.783,3.179,2.9,0,2.074-1.474,2.9-3.179,2.9h-1.889v15.3c0,2.211-1.382,3.686-3.317,3.686s-3.318-1.474-3.318-3.686Z" transform="translate(-214.62 -191.578)" fill="#44c8f5"/>
        </g>
      </g>
      <g id="Group_7" data-name="Group 7" transform="translate(79.751 21.242)">
        <path id="Path_85" data-name="Path 85" d="M204.13,146.047l-11.011,6.077-11.011-6.077v12.7l6.6,3.81a8.826,8.826,0,0,0,8.826,0l6.6-3.81Z" transform="translate(-160.863 -91.975)" fill="#44c8f5"/>
        <path id="Path_86" data-name="Path 86" d="M193.171,35.951,169.74,22.424a8.826,8.826,0,0,0-8.826,0L137.484,35.951a8.829,8.829,0,0,0-4.413,7.644V70.65a8.828,8.828,0,0,0,4.413,7.643l4.079,2.355V45.088a1.9,1.9,0,0,1,2.853-1.646L165.343,55.23l20.9-11.789a1.9,1.9,0,0,1,2.853,1.646v35.56l4.079-2.355a8.825,8.825,0,0,0,4.413-7.643V43.595A8.826,8.826,0,0,0,193.171,35.951Z" transform="translate(-133.071 -21.242)" fill="#44c8f5"/>
      </g>
    </g>
  </g>
</svg>
