<?xml version="1.0" encoding="utf-8"?>
<!-- Generator: Adobe Illustrator 24.0.2, SVG Export Plug-In . SVG Version: 6.00 Build 0)  -->
<svg version="1.1" id="Laag_1" xmlns="http://www.w3.org/2000/svg" xmlns:xlink="http://www.w3.org/1999/xlink" x="0px" y="0px"
	 viewBox="0 0 259.44 71.92" style="enable-background:new 0 0 259.44 71.92;" xml:space="preserve">
<g>
	<path d="M0,20.89c0.86-3.52,3.26-5.6,6.34-7.31C13.45,9.63,20.47,5.5,27.51,1.42c3.27-1.89,6.49-1.89,9.75,0
		c7.56,4.38,15.13,8.73,22.71,13.09c3.23,1.86,4.81,4.62,4.8,8.35c-0.03,8.73-0.03,17.46,0,26.19c0.01,3.79-1.62,6.54-4.89,8.42
		c-7.54,4.32-15.08,8.67-22.6,13.03c-3.27,1.89-6.49,1.91-9.75,0.01c-3.96-2.31-7.95-4.58-11.92-6.87c-0.34-0.2-0.66-0.42-1.01-0.64
		c1.53-1.19,2.35-2.64,2.82-4.48c0.46-1.79,1.4-3.46,2.14-5.17c1.55-3.57,3.64-6.81,6.02-9.87c1.14-1.47,1.63-1.63,3.03-0.45
		c1.64,1.38,3.15,2.93,4.63,4.48c1.79,1.87,3.56,3.77,5.23,5.75c1.16,1.38,2.36,2.78,2.59,4.73c0.04,0.31,0.62,0.6,1,0.83
		c0.59,0.35,1.22,0.65,1.85,0.94c0.68,0.31,1.39,0.79,2.08,0.79c0.58-0.01,1.35-0.49,1.66-0.99c0.18-0.3-0.22-1.2-0.6-1.56
		c-0.89-0.83-1.94-1.49-2.96-2.24c0.3-0.48,0.49-0.82,0.71-1.14c0.56-0.82,0.32-1.42-0.36-2.08c-1.22-1.17-2.39-2.41-3.51-3.67
		c-1.21-1.36-2.17-2.92-3.94-3.75c-0.58-0.27-0.93-1.13-1.29-1.77c-1.44-2.6-2.68-5.33-4.28-7.83c-2.45-3.84-1.61-7.68-0.46-11.59
		c0.02-0.08,0.03-0.18,0.09-0.22c1.5-1.08,2.93-2.29,4.54-3.17c1.22-0.68,2.67-0.95,4.02-1.39c0.52-0.17,1.04-0.44,1.56-0.45
		c0.91-0.02,1.82,0.14,2.65,0.21c-0.05-0.16-0.15-0.48-0.25-0.81c0.11-0.05,0.22-0.11,0.33-0.16c-0.25-0.16-0.49-0.32-0.76-0.5
		c0.19-0.11,0.38-0.23,0.82-0.48c-0.63-0.13-0.98-0.2-1.34-0.27c-0.08-0.06-0.15-0.13-0.23-0.19c0.33-0.1,0.67-0.2,1-0.3
		c-0.09-0.14-0.18-0.28-0.27-0.42c-0.57,0.09-1.32,0.45-1.65,0.21c-0.38-0.27-0.39-1.06-0.8-1.61c-0.05,0.24-0.09,0.48-0.14,0.71
		c-0.39,1.88-0.92,2.58-2.75,2.35c-2.16-0.26-3.61,1-5.29,1.77c-0.81,0.37-1.5,0.73-2.47,0.55c-0.63-0.12-1.36,0.26-2.04,0.45
		c-0.55,0.15-1.09,0.35-1.82,0.59c0.04-0.71-0.1-1.28,0.12-1.62c0.87-1.38,0.21-2.58-0.46-3.66c-1.01-1.63-3.31-1.42-4.02,0.36
		c-0.51,1.27-0.53,2.6,0.41,3.8c0.28,0.35,0.39,0.83,0.67,1.43c-0.7,0-1.2-0.03-1.69,0.01c-0.97,0.08-1.95,0.32-2.92,0.28
		c-1.12-0.05-2.29-0.15-3.31-0.55c-1.11-0.44-2.13-0.59-3.24-0.19c-0.04,0.01-0.08,0.01-0.12,0.03c-1.5,0.5-2.81,0.38-3.71-1.11
		c-0.18-0.29-0.4-0.56-0.87-0.76c0.09,0.47,0.18,0.95,0.29,1.52c-0.6-0.15-1.16-0.3-1.72-0.44C5.5,20,5.42,20.12,5.35,20.25
		c0.24,0.2,0.48,0.4,0.69,0.57c-0.16,0.06-0.4,0.14-0.86,0.3c0.54,0.26,0.87,0.42,1.3,0.62c-0.34,0.18-0.63,0.33-0.91,0.47
		c0.15,0.35,0.29,0.69,0.45,1.08c1.69-0.57,3.41-0.54,5.15,0.11c0.57,0.21,1.29,0.28,1.87,0.13c1.07-0.26,1.93,0.04,2.84,0.52
		c0.87,0.45,1.83,0.72,2.74,1.11c0.29,0.13,0.59,0.33,0.78,0.58c1.63,2.16,1.69,4.7,1.89,7.26c0.23,3.06-0.67,5.85-1.56,8.68
		c-0.51,1.62-0.89,3.31-1.57,4.86c-0.48,1.08-1.47,1.91-2.05,2.96c-0.77,1.38-1.32,2.88-2.03,4.3c-0.33,0.67-0.72,1.35-1.23,1.88
		c-1.01,1.05-0.77,1.96,0.08,2.91c0.16,0.18,0.3,0.37,0.55,0.68c-0.52,0.69-1.06,1.4-1.68,2.22c-2.89-1.73-5.74-3.32-8.47-5.11
		C1.44,55.15,0.63,53.11,0,51.03C0,40.98,0,30.93,0,20.89z"/>
	<path d="M158.92,29.93c-1.25,3.89-2.38,7.44-3.52,10.98c-0.32,0.99-0.6,1.98-0.97,2.95c-0.7,1.81-1.94,2.97-3.98,3.14
		c-2.14,0.17-3.73-0.67-4.76-2.54c-0.33-0.59-0.6-1.22-0.82-1.85c-2.31-6.49-4.61-12.98-6.89-19.47c-0.29-0.82-0.54-1.67-0.71-2.53
		c-0.42-2.06,0.36-3.54,2.17-4.24c2-0.77,4.07-0.2,5.09,1.45c0.27,0.43,0.45,0.93,0.6,1.42c1.44,4.72,2.86,9.45,4.29,14.17
		c0.13,0.44,0.3,0.88,0.54,1.6c1.55-4.94,3-9.56,4.45-14.19c0.19-0.61,0.36-1.22,0.57-1.82c0.73-2.04,1.97-2.95,4.01-2.94
		c1.99,0.01,3.22,0.86,3.89,2.91c1.6,4.92,3.12,9.86,4.68,14.8c0.11,0.34,0.23,0.67,0.43,1.24c1.12-3.69,2.17-7.14,3.21-10.59
		c0.52-1.71,1.02-3.43,1.54-5.15c0.8-2.63,2.86-3.79,5.33-3.02c2.22,0.69,3.22,2.8,2.37,5.32c-1.71,5.01-3.5,9.99-5.26,14.98
		c-0.84,2.36-1.63,4.74-2.56,7.07c-0.79,1.98-2.16,3.33-4.48,3.38c-2.46,0.05-3.99-1.05-4.84-3.63c-1.31-3.97-2.56-7.96-3.83-11.94
		C159.32,31.04,159.17,30.65,158.92,29.93z"/>
	<path d="M82.5,18.45c3.61-3,7.54-3.37,11.64-2.1c4.2,1.3,6.71,4.3,7,8.63c0.33,4.96,0.18,9.96,0.21,14.94
		c0.01,1.19,0.02,2.4-0.14,3.58c-0.29,2.14-1.82,3.48-3.87,3.52c-2.15,0.04-3.7-1.22-4.1-3.4c-0.11-0.58-0.14-1.19-0.14-1.78
		c-0.01-4.18-0.01-8.37-0.01-12.55c0-0.44,0-0.88-0.01-1.31c-0.12-3.41-2.13-5.42-5.39-5.4c-3.08,0.03-5.14,2.17-5.17,5.52
		c-0.04,3.87-0.01,7.73-0.01,11.6c0,1,0.02,1.99-0.01,2.99c-0.07,2.63-1.7,4.35-4.1,4.34c-2.4,0-4.06-1.72-4.07-4.35
		c-0.03-8.25-0.01-16.5-0.01-24.75c0-3.63-0.04-7.25,0.02-10.88c0.05-2.8,2.16-4.54,4.85-4.1c1.94,0.31,3.28,1.96,3.31,4.23
		c0.04,3.35,0.02,6.7,0.02,10.04C82.5,17.55,82.5,17.9,82.5,18.45z"/>
	<path d="M191.37,34.28c0.13,2.89,2.53,5.21,5.75,5.75c2.31,0.39,4.44-0.05,6.48-1.09c1.1-0.56,2.17-1.2,3.29-1.71
		c1.52-0.69,2.89-0.3,3.94,1.01c1.02,1.28,1.12,2.78,0.11,4.07c-0.55,0.71-1.23,1.4-1.99,1.87c-4.67,2.91-9.72,4.01-15.12,2.61
		c-6.89-1.78-11.2-7.92-11.01-15.46c0.17-6.72,3.98-12.52,9.64-14.7c8.22-3.17,17.49,2.06,19.47,10.99c0.22,1,0.35,2.05,0.35,3.07
		c0.01,2.48-1.1,3.57-3.59,3.58c-5.35,0.02-10.7,0.01-16.05,0.01C192.23,34.28,191.8,34.28,191.37,34.28z M204,28.74
		c-0.2-3.77-3.09-6.35-6.85-6.17c-3.21,0.15-6.01,3.06-5.93,6.17C195.47,28.74,199.73,28.74,204,28.74z"/>
	<path d="M105.92,32.3c0.12-5.72,1.87-10.08,5.82-13.38c6.32-5.29,15.77-4.01,20.53,2.9c3.99,5.8,4.24,12,0.96,18.19
		c-2.9,5.47-8.52,8.05-14.95,7.19c-5.62-0.75-10.39-5.28-11.79-11.28C106.16,34.52,106.04,33.09,105.92,32.3z M127.46,31.64
		c-0.11-0.03-0.22-0.07-0.33-0.1c0.01-1.95-0.42-3.79-1.46-5.46c-2.4-3.83-7.7-3.87-10.01,0.03c-2.04,3.44-2.06,7.06-0.19,10.59
		c1.09,2.06,2.86,3.15,5.26,3.13c2.35-0.02,4.13-1.11,5.1-3.15C126.58,35.09,126.93,33.32,127.46,31.64z"/>
	<path d="M226.06,47.4c-2.93-0.13-5.83-0.78-8.45-2.37c-0.77-0.47-1.51-1.07-2.1-1.74c-1.14-1.3-1.19-2.63-0.32-4.07
		c0.87-1.44,2.27-2.16,3.85-1.72c1.17,0.33,2.3,0.89,3.38,1.46c1.74,0.92,3.52,1.46,5.51,1.11c1-0.18,1.71-0.62,1.9-1.68
		c0.19-1.02-0.3-1.74-1.14-2.16c-1.24-0.63-2.54-1.14-3.81-1.71c-1.67-0.75-3.4-1.4-4.99-2.29c-6.48-3.65-4.86-11.6-0.27-14.58
		c4.2-2.73,11.44-2.56,15.42,0.48c1.87,1.43,2.46,3.44,1.54,5.25c-0.82,1.61-2.42,2.25-4.13,1.6c-1.45-0.55-2.84-1.29-4.32-1.72
		c-0.95-0.28-2.08-0.35-3.03-0.11c-0.62,0.15-1.35,0.97-1.48,1.6c-0.12,0.55,0.34,1.54,0.85,1.86c1.23,0.78,2.63,1.29,3.97,1.91
		c1.7,0.78,3.47,1.43,5.09,2.35c6.18,3.5,4.95,10.98,0.51,14.16C231.69,46.72,229.01,47.31,226.06,47.4z"/>
	<path d="M244.96,23.64c-4.32-0.38-5.41-1.13-5.43-3.6c-0.01-2.46,1.15-3.29,5.43-3.78c0-0.8-0.01-1.62,0-2.44
		c0.01-1.07-0.03-2.16,0.08-3.22c0.21-2.06,1.71-3.5,3.65-3.63c2.19-0.14,3.85,1.01,4.27,3.15c0.23,1.16,0.17,2.37,0.21,3.56
		c0.03,0.83,0.01,1.67,0.01,2.69c0.92,0,1.78-0.04,2.64,0.01c2.34,0.13,3.61,1.42,3.61,3.59c0,2.04-1.22,3.39-3.27,3.54
		c-0.94,0.07-1.9,0.01-2.98,0.01c0,0.58,0,1.01,0,1.43c0,5.66,0.01,11.31-0.01,16.97c0,0.67-0.06,1.36-0.21,2.01
		c-0.49,2.01-2.05,3.14-4.13,3.06c-1.92-0.07-3.45-1.41-3.76-3.38c-0.1-0.62-0.1-1.27-0.11-1.91c-0.01-5.54,0-11.08,0-16.61
		C244.96,24.64,244.96,24.17,244.96,23.64z"/>
	<path d="M191.97,60.02c-0.78,2.58-1.54,5.17-2.33,7.75c-0.46,1.5-1.56,2.32-2.83,1.85c-0.67-0.25-1.45-1-1.63-1.66
		c-1.05-4-1.95-8.05-2.87-12.08c-0.25-1.08,0.2-1.82,1.12-2.05c1.03-0.26,1.87,0.24,2.12,1.39c0.6,2.76,1.13,5.54,1.69,8.31
		c0.04,0.21,0.1,0.42,0.4,0.64c0.5-1.65,1.01-3.3,1.5-4.95c0.37-1.22,0.72-2.44,1.07-3.67c0.28-1,0.77-1.8,1.94-1.77
		c1.1,0.03,1.55,0.8,1.83,1.75c0.78,2.68,1.58,5.34,2.38,8.01c0.08,0.25,0.19,0.5,0.4,1.03c0.64-3.16,1.2-6.03,1.8-8.89
		c0.1-0.49,0.25-1.18,0.6-1.37c0.56-0.3,1.37-0.49,1.95-0.33c0.94,0.27,0.93,1.21,0.75,2.02c-0.56,2.53-1.16,5.04-1.75,7.56
		c-0.34,1.43-0.68,2.87-1.02,4.3c-0.27,1.15-0.94,1.83-2.16,1.84c-1.2,0.02-1.94-0.6-2.28-1.73c-0.81-2.66-1.62-5.32-2.43-7.99
		C192.14,60,192.05,60.01,191.97,60.02z"/>
	<path d="M143.67,60.31c-0.28-0.37-0.55-0.62-0.7-0.94c-0.25-0.53-0.52-1.08-0.61-1.66c-0.22-1.47,0.47-2.69,1.84-3.44
		c1.86-1.01,4.58-0.81,6.1,0.47c1.05,0.88,1.53,2.08,0.95,3.31c-0.52,1.1-1.43,2.02-2.3,3.19c0.13,0.15,0.48,0.55,0.83,0.94
		c0.37,0.41,0.74,0.82,1.15,1.28c0.48-0.51,0.9-0.99,1.35-1.42c0.57-0.55,1.37-0.86,1.89-0.21c0.35,0.43,0.4,1.34,0.21,1.9
		c-0.22,0.67-0.85,1.22-1.36,1.89c0.48,0.55,0.98,1.11,1.46,1.69c0.59,0.72,0.65,1.47-0.06,2.12c-0.69,0.63-1.45,0.62-2.14-0.03
		c-0.52-0.49-1-1.02-1.33-1.36c-1.54,0.63-2.9,1.46-4.37,1.73c-3.72,0.69-6.63-2.02-6.07-5.49
		C140.81,62.45,142.11,61.33,143.67,60.31z M148.66,65.64c-0.94-1.05-1.86-2.09-2.81-3.1c-0.13-0.14-0.42-0.25-0.6-0.2
		c-0.84,0.21-1.71,1.71-1.62,2.71c0.1,1.07,0.81,1.75,1.99,1.86C146.81,67.01,147.8,66.6,148.66,65.64z M146.86,59.09
		c0.76-0.47,1.67-0.85,1.47-1.9c-0.08-0.39-0.72-0.92-1.13-0.94c-0.47-0.03-1.24,0.32-1.41,0.7
		C145.36,57.93,146.16,58.51,146.86,59.09z"/>
	<path d="M244.09,60.17c0,2.47,0.01,4.94,0,7.41c-0.01,1.49-0.51,2.12-1.66,2.13c-1.14,0-1.67-0.64-1.68-2.12
		c-0.01-3.9,0-7.81,0-11.71c0-0.88,0.12-1.71,1.12-2.01c1-0.31,1.67,0.22,2.23,0.97c1.91,2.56,3.82,5.1,5.74,7.65
		c0.25,0.34,0.53,0.66,1,1.26c0-2.48,0-4.65,0-6.82c0-0.52-0.03-1.04,0.02-1.55c0.09-1.03,0.67-1.64,1.71-1.6
		c1.04,0.04,1.59,0.66,1.6,1.71c0.01,3.31,0.01,6.61,0.01,9.92c0,0.84,0.13,1.7-0.04,2.5c-0.13,0.62-0.53,1.46-1.02,1.64
		c-0.51,0.19-1.39-0.14-1.9-0.52c-0.61-0.46-1.01-1.22-1.49-1.85c-1.8-2.37-3.6-4.74-5.4-7.1C244.25,60.1,244.17,60.14,244.09,60.17
		z"/>
	<path d="M167.62,60.98c2.76,1.33,3.61,2.94,2.88,5.43c-0.51,1.75-1.73,2.83-3.49,3.01c-2.02,0.21-4.06,0.19-6.1,0.16
		c-1.08-0.01-1.65-0.73-1.65-1.81c-0.01-4.03-0.02-8.05,0.01-12.08c0.01-1.24,0.61-1.77,1.89-1.8c1.36-0.02,2.72-0.02,4.07,0
		c1.93,0.03,3.42,0.99,3.96,2.54C169.79,58.13,169.28,59.65,167.62,60.98z M162.63,66.64c1.02,0,1.93,0.04,2.84-0.01
		c1.05-0.06,1.7-0.63,1.77-1.71c0.06-1.05-0.54-1.67-1.53-1.77c-1-0.1-2.02-0.02-3.08-0.02C162.63,64.28,162.63,65.38,162.63,66.64z
		 M162.65,60.11c1.2-0.09,2.48,0.41,3.15-0.82c0.25-0.46,0.25-1.35-0.03-1.76c-0.75-1.09-1.97-0.7-3.12-0.68
		C162.65,57.94,162.65,58.95,162.65,60.11z"/>
	<path d="M224.82,63.33c-0.69,0-1.4,0.02-2.11-0.01c-1.01-0.04-1.57-0.62-1.52-1.61c0.04-0.95,0.65-1.4,1.6-1.4
		c1.24,0,2.47-0.03,3.71,0.01c1.33,0.04,1.83,0.56,1.93,1.92c0.34,4.58-3.62,8.25-8.17,7.57c-3.29-0.49-5.61-2.6-6.38-5.8
		c-0.84-3.54,0.33-7.14,2.92-9c2.42-1.75,6.49-1.83,9.07-0.18c0.3,0.19,0.59,0.42,0.83,0.68c0.65,0.68,0.87,1.48,0.25,2.26
		c-0.61,0.77-1.39,0.56-2.17,0.19c-0.85-0.41-1.69-0.99-2.59-1.14c-3.29-0.54-5.52,1.97-5.1,5.59c0.35,3,2.07,4.66,4.58,4.41
		C223.66,66.6,224.91,65.29,224.82,63.33z"/>
	<path d="M114.19,61.73c0.02,6.3-5.88,10.1-11.23,7.23c-3.48-1.86-4.94-6.62-3.29-10.67c1.48-3.62,5.21-5.43,9.02-4.38
		C111.98,54.82,114.18,57.94,114.19,61.73z M110.93,62c-0.26-1.08-0.36-2-0.7-2.83c-0.64-1.57-1.84-2.46-3.6-2.47
		c-1.76,0-2.97,0.85-3.63,2.42c-0.8,1.89-0.78,3.82,0.18,5.65c1.4,2.64,5.18,2.79,6.68,0.23C110.41,64.08,110.61,62.95,110.93,62z"
		/>
	<path d="M123.12,63.12c1.24,1.33,2.35,2.51,3.45,3.72c0.82,0.9,0.82,1.83,0.04,2.5c-0.74,0.63-1.75,0.49-2.52-0.39
		c-0.78-0.9-1.53-1.84-2.29-2.76c-0.73-0.88-1.46-1.77-2.45-2.6c0,1.36,0.09,2.73-0.04,4.08c-0.06,0.64-0.36,1.45-0.84,1.81
		c-1.03,0.77-2.41-0.04-2.42-1.39c-0.04-4.18-0.02-8.36-0.01-12.54c0-0.92,0.45-1.6,1.39-1.62c1.91-0.04,3.84-0.12,5.73,0.12
		c2.45,0.31,3.75,1.82,3.92,4.1c0.19,2.47-0.78,3.87-3.26,4.73C123.63,62.94,123.45,63.01,123.12,63.12z M119.41,60.87
		c1.47-0.2,3.09,0.54,3.94-1.01c0.3-0.56,0.22-1.69-0.16-2.19c-0.99-1.25-2.47-0.53-3.77-0.71
		C119.41,58.34,119.41,59.52,119.41,60.87z"/>
	<path d="M79.67,53.46c1.06,0.31,2.16,0.52,3.17,0.94c0.9,0.37,1.35,1.14,0.89,2.15c-0.43,0.93-1.17,1.06-2.1,0.78
		c-0.76-0.23-1.57-0.55-2.31-0.45c-0.58,0.08-1.33,0.63-1.56,1.16c-0.33,0.79,0.48,1.14,1.13,1.38c1.08,0.39,2.2,0.71,3.27,1.13
		c1.77,0.68,2.78,1.98,2.87,3.88c0.09,1.89-0.6,3.48-2.24,4.47c-2.56,1.53-5.2,1.22-7.78,0.04c-0.91-0.42-1.23-1.28-0.84-2.22
		c0.4-0.97,1.26-0.98,2.13-0.74c0.5,0.14,0.98,0.37,1.48,0.45c0.7,0.11,1.42,0.21,2.12,0.15c0.89-0.09,1.55-0.72,1.47-1.58
		c-0.05-0.53-0.6-1.16-1.1-1.47c-0.62-0.39-1.41-0.52-2.13-0.74c-3.2-0.95-4.37-2.35-4.03-4.84C74.46,55.38,76.71,53.63,79.67,53.46
		z"/>
	<path d="M90.19,64.39c0,1.27,0.02,2.38,0,3.48c-0.03,1.22-0.54,1.8-1.57,1.83c-1.04,0.03-1.71-0.54-1.72-1.71
		c-0.04-4.14-0.03-8.29,0-12.43c0.01-1.08,0.64-1.68,1.77-1.68c1.44,0,2.88-0.04,4.31,0.02c3.03,0.13,5.15,2.26,5.2,5.16
		c0.05,2.91-1.99,5.08-5.04,5.31C92.23,64.45,91.31,64.39,90.19,64.39z M90.26,61.53c1.56-0.17,3.18,0.44,4.15-1.16
		c0.53-0.88,0.51-1.88-0.15-2.69c-1.08-1.35-2.57-0.81-4-0.84C90.26,58.43,90.26,59.88,90.26,61.53z"/>
	<path d="M233.59,56.97c0,1.12,0,2.06,0,3.17c1.1,0,2.16-0.01,3.23,0c1.28,0.02,2,0.61,1.97,1.58c-0.03,0.92-0.73,1.48-1.94,1.5
		c-1.04,0.02-2.07,0-3.21,0c0,1.09,0,2.14,0,3.34c1.22,0,2.44-0.01,3.66,0c1.24,0.01,1.89,0.54,1.89,1.5
		c0.01,0.95-0.66,1.54-1.87,1.56c-1.72,0.03-3.43,0.04-5.15,0c-1.4-0.03-1.95-0.61-1.96-2c-0.02-3.86-0.02-7.73,0-11.59
		c0.01-1.59,0.58-2.12,2.19-2.13c1.56-0.01,3.12-0.01,4.67,0c1.25,0.01,1.9,0.52,1.92,1.48c0.03,0.97-0.7,1.57-1.97,1.59
		C235.93,56.98,234.82,56.97,233.59,56.97z"/>
	<path d="M175.79,56.96c0,1.08,0,2.03,0,3.17c1.04,0,2.1-0.01,3.16,0c1.29,0.02,2.02,0.58,2.01,1.55c-0.01,0.95-0.74,1.52-2.03,1.53
		c-1.03,0.01-2.06,0-3.14,0c0,1.14,0,2.16,0,3.34c1.25,0,2.48-0.01,3.7,0c1.25,0.02,1.87,0.52,1.85,1.52
		c-0.03,1.12-0.75,1.52-1.75,1.54c-1.76,0.03-3.52,0.04-5.27,0c-1.38-0.03-1.92-0.62-1.92-2.03c-0.01-3.83-0.01-7.65,0-11.48
		c0.01-1.7,0.53-2.21,2.22-2.22c1.6-0.01,3.2-0.02,4.79,0.01c1.13,0.02,1.79,0.59,1.75,1.52c-0.05,1.08-0.74,1.53-1.76,1.54
		C178.24,56.98,177.09,56.96,175.79,56.96z"/>
	<path d="M206.94,56.96c0,1.12,0,2.06,0,3.17c1.09,0,2.16-0.01,3.22,0c1.28,0.02,2,0.62,1.96,1.59c-0.04,0.92-0.74,1.46-1.95,1.49
		c-1,0.02-2,0.02-2.99,0.03c-0.04,0-0.07,0.03-0.19,0.08c0,1.01,0,2.05,0,3.23c1.26,0,2.49,0.01,3.71,0
		c1.01-0.01,1.73,0.33,1.8,1.45c0.06,1-0.56,1.59-1.78,1.61c-1.76,0.03-3.52,0.04-5.27,0c-1.33-0.03-1.87-0.62-1.88-1.95
		c-0.01-3.91-0.02-7.81,0-11.72c0.01-1.49,0.57-2.04,2.02-2.05c1.68-0.02,3.36,0,5.03,0c0.99,0,1.62,0.43,1.7,1.45
		c0.08,0.93-0.57,1.57-1.68,1.61C209.46,57,208.26,56.96,206.94,56.96z"/>
	<path d="M134.3,56.96c0,3.42,0,6.68,0,9.94c0,0.48,0.03,0.96-0.03,1.43c-0.11,0.87-0.64,1.34-1.53,1.38
		c-0.88,0.04-1.47-0.35-1.67-1.22c-0.09-0.42-0.09-0.87-0.09-1.3c-0.01-3.34,0-6.69,0-10.22c-0.77,0-1.47,0.02-2.17-0.01
		c-1.14-0.05-1.74-0.6-1.72-1.56c0.02-0.95,0.62-1.5,1.77-1.5c2.56-0.02,5.11,0,7.67-0.01c1,0,1.6,0.46,1.66,1.48
		c0.06,0.98-0.52,1.54-1.66,1.59C135.85,56.99,135.17,56.96,134.3,56.96z"/>
</g>
</svg>
