<svg xmlns="http://www.w3.org/2000/svg" viewBox="0 0 1920 1080"><defs><style>.cls-1{fill:#e0e0e0;stroke:#757575;stroke-miterlimit:10;stroke-width:1.09px;}.cls-2{fill:#6b70b3;}.cls-3{fill:#ccc;}.cls-4{fill:#7dcbd8;}.cls-5{fill:#bcbdc1;}.cls-6{fill:#9ed5d8;}.cls-7{fill:#43772b;}.cls-8{fill:#62964a;}.cls-9{fill:#70bd51;}</style></defs><title>ps4Artboard 1</title><g id="background"><rect class="cls-1" x="0.5" y="0.5" width="1364.85" height="1080"/><rect class="cls-2" x="1365.5" y="0.5" width="554.83" height="1080"/><path class="cls-3" d="M1363,1H797.57C766.11,28.7,747,65.11,747,105c0,75.38,68.19,138.35,159.13,153.51-.08,1.32-.13,2.65-.13,4,0,59.93,81.18,108.71,182.43,110.45C1095,430.51,1176.43,476,1276,476c31.39,0,61-4.53,87-12.53Z"/></g><g id="wallprops"><path class="cls-4" d="M476.64,676.32h0l-94.58-6.9h0c-41.29-3-78,9.46-99.65,37.87-41.49,54.48-11.72,146.93,66.49,206.49C415.61,964.58,496,975,544,943.2c17.55-8,43.16-17.67,66-19.12,32,3.11,59-4.8,74.1-24.64,31.62-41.52-1-119.53-72.82-174.24C565.78,690.55,515.46,673.57,476.64,676.32Z"/><path class="cls-5" d="M1128.64,275.34h0l.34,32.58h0c.15,14.22,4.92,32.07,14.18,49.8,17.76,34,45.31,54.72,61.52,46.25,13.83-7.22,15-33.34,4-62-2.89-9.21-6.53-22-7.57-31,.13-10.74-3-23.44-9.47-35.82-13.53-25.92-36.58-40.63-51.47-32.85C1130.69,247.29,1126.8,260.06,1128.64,275.34Z"/><path class="cls-6" d="M322,762.42h0l-2.16,24.32h0c-.94,10.61,1.78,23.58,8.34,36.14,12.57,24.07,34.47,37.47,48.93,29.93,12.32-6.44,15.24-26,8-46.6-1.77-6.67-3.91-16-4.12-22.56.91-8-.79-17.29-5.37-26.06-9.58-18.35-28.11-27.6-41.38-20.67C325.83,741.31,321.55,751.14,322,762.42Z"/><path class="cls-5" d="M1000,199.67h0l-9,14.77h0c-3.91,6.44-4.92,13.23-2.07,18.69,5.47,10.47,23,12.09,39.26,3.62,13.84-7.22,22.2-19.45,21-29.39.16-3.38.69-8.18,2.35-12,3.16-4.94,4.1-9.84,2.11-13.66-4.17-8-19.62-8.14-34.51-.36C1009.69,186.29,1002.75,193.22,1000,199.67Z"/><path class="cls-5" d="M800.52,104.74h0l.08,10.05h0A35.39,35.39,0,0,0,805,130.13c5.47,10.47,14,16.83,19,14.21,4.28-2.24,4.65-10.29,1.27-19.11a59.08,59.08,0,0,1-2.32-9.54,23.74,23.74,0,0,0-2.9-11c-4.17-8-11.29-12.5-15.9-10.09C801.18,96.09,800,100,800.52,104.74Z"/></g><g id="grass"><path class="cls-7" d="M649.55,929.13s-2.66-28-18.41-35.13c0,0,12-2.22,20.62,18.42,0,0,2.36-12.67-2.11-19.26,0,0,3.92-3.42,8.94,15.62,0,0,.2-12.72,2.47-17.2,0,0,.93,11.1,3.37,18,0,0,1.94-22.33,6.49-25.16,0,0-3.83,25.44.77,32.39C671.69,916.81,664.13,929.28,649.55,929.13Z"/><path class="cls-8" d="M644.17,925.91S649.79,912,634.53,909c0,0,14-1.57,17.18,8.43,0,0,6.47-6.43,3.54-9.55,0,0,5.38-1.86,5.13,7.47,0,0,4.1-6.37,8-8.7,0,0-2.36,5.52-1.76,8.88,0,0,8.94-11.24,14.84-12.83,0,0-12,12.87-9,16.17A70.18,70.18,0,0,1,644.17,925.91Z"/><path class="cls-9" d="M648.55,929.66s1.56-26.11-11.31-35.11c0,0,10.89-.11,15.57,20.16,0,0,3.84-11.22.82-18,0,0,3.93-2.51,5.7,15.73,0,0,1.94-11.62,4.56-15.36,0,0-.73,10.31.46,17,0,0,4.8-20.13,9.2-22,0,0-6.9,22.68-3.82,29.78C669.73,921.91,661.35,932.12,648.55,929.66Z"/><path class="cls-7" d="M799.35,216s12.86-11.1,8.34-22.29c0,0,7.32,5.94,1.27,17.79,0,0,7.64-3,8.68-7.78,0,0,3.75,1-3.32,10.33,0,0,6.56-4.25,10-4.53,0,0-5.14,4.33-7.39,8.05,0,0,12.32-6.58,16.1-5,0,0-14.87,6.6-16,11.54A25.64,25.64,0,0,1,799.35,216Z"/><path class="cls-8" d="M798.22,211.87s9.95-1.65,3.59-11.15c0,0,8,7.24,4.57,12.45,0,0,6.58,1.39,6.66-1.31,0,0,3.71,2.35-1.15,5.41,0,0,5.34.1,8.51,1.45,0,0-4,.59-5.4,2.07,0,0,10.3,1.12,14.14,3.85,0,0-12.69-2.25-12.84.53A70,70,0,0,1,798.22,211.87Z"/><path class="cls-9" d="M798.57,215.59s14-8.09,12-18.33c0,0,5.66,6-2.21,15.57,0,0,7.67-1.72,9.53-5.7,0,0,3.3,1.31-5,8.56,0,0,6.89-2.91,10.13-2.74,0,0-5.6,3.14-8.38,6.1,0,0,12.67-4.24,15.89-2.43,0,0-15.05,3.95-17.07,8.09C813.4,224.71,803.91,223.55,798.57,215.59Z"/></g></svg>