<svg id="Layer_1" data-name="Layer 1" xmlns="http://www.w3.org/2000/svg" viewBox="0 0 1068 560"><defs><style>.cls-1{fill:#a5a5a5;}.cls-2{fill:#74af78;}</style></defs><title>platArtboard 1</title><path id="Path_134" data-name="Path 134" class="cls-1" d="M53.57,244.54l12,69,480,62.86,275.78-53.84,162,13.19,50.5-65.49-89.32,11.28-144.41-12-254.59,48L186.3,233.42Z"/><path id="Path_135" data-name="Path 135" class="cls-2" d="M868.57,211.53s193.53,19.59,182,66.75c0,0-6.73,27.5-56,21.61,0,0,20.22.23-46-1-40.92-.79-93.82,1.26-157.88,9.95-167.71,22.74-420.33,27.8-566-10.08,0,0-35.64-8.42-91.19,3.37s-91.19-12.64-91.19-12.64-48.23-35,59.74-69.06C221.09,182.85,509.66,208,868.57,211.53Z"/></svg>